<svg id="visual" viewBox="0 0 960 540" width="960" height="540" xmlns="http://www.w3.org/2000/svg" xmlns:xlink="http://www.w3.org/1999/xlink" version="1.1"><g><g transform="translate(943 530)"><path d="M5.7 3.2C4 6.2 -3 6 -4.8 2.9C-6.7 -0.1 -3.3 -6 0.2 -5.9C3.7 -5.8 7.4 0.3 5.7 3.2Z" fill="#ffffff"></path></g><g transform="translate(787 416)"><path d="M3.8 2.2C2.4 4.5 -2.8 4.6 -4.1 2.3C-5.4 -0.1 -2.7 -4.8 -0.1 -4.8C2.6 -4.8 5.1 -0.2 3.8 2.2Z" fill="#ffffff"></path></g><g transform="translate(86 180)"><path d="M4.6 2.5C3.2 5.1 -2.7 5 -4.2 2.4C-5.7 -0.3 -2.9 -5.6 0.1 -5.5C3 -5.5 6.1 -0.1 4.6 2.5Z" fill="#ffffff"></path></g><g transform="translate(849 201)"><path d="M0.8 0.5C0.5 1 -0.6 1 -0.9 0.5C-1.1 0 -0.6 -0.9 0 -0.9C0.5 -0.9 1.1 0 0.8 0.5Z" fill="#ffffff"></path></g><g transform="translate(154 507)"><path d="M2.3 1.4C1.4 2.8 -1.9 2.9 -2.7 1.5C-3.4 0.2 -1.7 -2.7 -0.1 -2.7C1.6 -2.8 3.1 0 2.3 1.4Z" fill="#ffffff"></path></g><g transform="translate(277 458)"><path d="M0.4 0.2C0.3 0.5 -0.3 0.5 -0.4 0.2C-0.5 0 -0.3 -0.5 0 -0.5C0.3 -0.5 0.5 0 0.4 0.2Z" fill="#ffffff"></path></g><g transform="translate(7 503)"><path d="M3.2 1.9C2.1 3.8 -2.2 3.8 -3.3 1.9C-4.4 0 -2.2 -3.8 0 -3.8C2.2 -3.8 4.3 0 3.2 1.9Z" fill="#ffffff"></path></g><g transform="translate(909 480)"><path d="M2.9 1.7C1.9 3.4 -2.1 3.5 -3.1 1.7C-4 0 -2 -3.5 0 -3.5C2 -3.5 3.9 -0.1 2.9 1.7Z" fill="#ffffff"></path></g><g transform="translate(362 377)"><path d="M2.7 1.5C1.7 3.1 -1.9 3.2 -2.8 1.6C-3.7 0 -1.8 -3.2 0 -3.2C1.8 -3.2 3.6 0 2.7 1.5Z" fill="#ffffff"></path></g><g transform="translate(252 44)"><path d="M2.6 1.6C1.7 3.2 -2 3.3 -2.9 1.7C-3.8 0.1 -1.9 -3 -0.1 -3.1C1.8 -3.1 3.6 0 2.6 1.6Z" fill="#ffffff"></path></g><g transform="translate(134 331)"><path d="M4.7 2.9C3.2 5.5 -3.2 5.5 -4.7 2.9C-6.3 0.4 -3.2 -4.7 0 -4.7C3.2 -4.7 6.3 0.4 4.7 2.9Z" fill="#ffffff"></path></g><g transform="translate(380 34)"><path d="M4.2 2.3C2.8 4.7 -2.6 4.7 -4 2.2C-5.4 -0.2 -2.7 -5.1 0 -5.1C2.7 -5.1 5.5 -0.1 4.2 2.3Z" fill="#ffffff"></path></g><g transform="translate(285 63)"><path d="M0.8 0.5C0.5 1 -0.6 1 -0.9 0.5C-1.2 0 -0.6 -0.9 0 -0.9C0.6 -0.9 1.1 0 0.8 0.5Z" fill="#ffffff"></path></g><g transform="translate(590 196)"><path d="M1.6 0.8C1 1.8 -1 1.8 -1.5 0.8C-2.1 -0.1 -1 -2 0 -2C1 -2 2.1 -0.1 1.6 0.8Z" fill="#ffffff"></path></g><g transform="translate(86 130)"><path d="M0.8 0.4C0.5 0.9 -0.5 0.9 -0.8 0.4C-1 0 -0.5 -0.9 0 -0.9C0.5 -0.9 1 0 0.8 0.4Z" fill="#ffffff"></path></g><g transform="translate(124 497)"><path d="M3.6 2.1C2.4 4.2 -2.5 4.2 -3.7 2.1C-4.9 0.1 -2.4 -4.1 0 -4.1C2.4 -4.1 4.9 0.1 3.6 2.1Z" fill="#ffffff"></path></g><g transform="translate(262 521)"><path d="M2.2 1.3C1.5 2.4 -1.2 2.4 -1.9 1.2C-2.7 0.1 -1.3 -2.2 0.1 -2.2C1.4 -2.1 2.9 0.2 2.2 1.3Z" fill="#ffffff"></path></g><g transform="translate(218 97)"><path d="M4 2.5C2.6 4.8 -3 4.8 -4.3 2.6C-5.7 0.3 -2.8 -4.3 -0.1 -4.3C2.7 -4.4 5.4 0.1 4 2.5Z" fill="#ffffff"></path></g><g transform="translate(746 336)"><path d="M3.1 1.8C2 3.7 -2.2 3.7 -3.3 1.8C-4.3 0 -2.2 -3.8 0 -3.8C2.1 -3.8 4.2 -0.1 3.1 1.8Z" fill="#ffffff"></path></g><g transform="translate(726 213)"><path d="M0.4 0.2C0.3 0.5 -0.2 0.5 -0.4 0.2C-0.5 0 -0.3 -0.5 0 -0.5C0.3 -0.5 0.5 0 0.4 0.2Z" fill="#ffffff"></path></g><g transform="translate(660 430)"><path d="M0.8 0.4C0.5 0.9 -0.5 0.9 -0.8 0.4C-1.1 0 -0.5 -1 0 -1C0.5 -1 1 -0.1 0.8 0.4Z" fill="#ffffff"></path></g><g transform="translate(72 480)"><path d="M2.2 1.2C1.5 2.5 -1.4 2.4 -2.1 1.2C-2.8 0 -1.4 -2.4 0 -2.4C1.4 -2.4 2.8 0 2.2 1.2Z" fill="#ffffff"></path></g><g transform="translate(450 481)"><path d="M2.3 1.3C1.5 2.7 -1.6 2.7 -2.3 1.3C-3.1 -0.1 -1.6 -2.8 0 -2.8C1.5 -2.8 3.1 -0.1 2.3 1.3Z" fill="#ffffff"></path></g><g transform="translate(312 335)"><path d="M3.8 2.2C2.5 4.3 -2.4 4.3 -3.7 2.1C-4.9 0 -2.5 -4.3 0 -4.2C2.5 -4.2 5 0 3.8 2.2Z" fill="#ffffff"></path></g><g transform="translate(673 299)"><path d="M2 1.1C1.3 2.3 -1.4 2.4 -2.1 1.2C-2.7 -0.1 -1.4 -2.5 0 -2.5C1.3 -2.5 2.7 -0.1 2 1.1Z" fill="#ffffff"></path></g><g transform="translate(949 430)"><path d="M0.4 0.3C0.3 0.5 -0.3 0.5 -0.4 0.2C-0.5 0 -0.3 -0.5 0 -0.5C0.3 -0.5 0.6 0 0.4 0.3Z" fill="#ffffff"></path></g><g transform="translate(426 12)"><path d="M3.5 2C2.4 3.9 -2.1 3.8 -3.2 1.9C-4.3 0.1 -2.2 -3.6 0.1 -3.6C2.3 -3.6 4.6 0.2 3.5 2Z" fill="#ffffff"></path></g><g transform="translate(508 440)"><path d="M2.8 1.6C1.9 3.3 -1.8 3.2 -2.8 1.6C-3.7 0 -1.9 -3.2 0 -3.2C1.9 -3.2 3.8 0 2.8 1.6Z" fill="#ffffff"></path></g><g transform="translate(475 65)"><path d="M2.8 1.6C1.8 3.2 -1.9 3.2 -2.8 1.7C-3.8 0.1 -1.9 -3.1 0 -3.2C1.9 -3.2 3.7 0 2.8 1.6Z" fill="#ffffff"></path></g><g transform="translate(950 278)"><path d="M1.9 1.1C1.2 2.3 -1.5 2.3 -2.1 1.2C-2.8 0 -1.4 -2.3 -0.1 -2.4C1.3 -2.4 2.6 -0.1 1.9 1.1Z" fill="#ffffff"></path></g><g transform="translate(484 301)"><path d="M4.2 2.4C2.7 5.1 -3.2 5.2 -4.6 2.6C-6.1 0 -3 -5.2 -0.1 -5.3C2.9 -5.4 5.7 -0.2 4.2 2.4Z" fill="#ffffff"></path></g><g transform="translate(875 327)"><path d="M1.7 1.1C1.2 2 -1.1 2 -1.7 1.1C-2.3 0.1 -1.1 -1.7 0 -1.7C1.2 -1.7 2.3 0.2 1.7 1.1Z" fill="#ffffff"></path></g><g transform="translate(921 426)"><path d="M4.6 2.5C3.2 5.1 -2.6 5 -4.1 2.3C-5.6 -0.3 -2.8 -5.4 0.1 -5.4C3 -5.3 6 0 4.6 2.5Z" fill="#ffffff"></path></g><g transform="translate(383 513)"><path d="M0.4 0.2C0.3 0.5 -0.3 0.4 -0.4 0.2C-0.5 0 -0.3 -0.5 0 -0.5C0.3 -0.5 0.5 0 0.4 0.2Z" fill="#ffffff"></path></g><g transform="translate(459 292)"><path d="M2.5 1.5C1.8 2.8 -1.4 2.7 -2.3 1.4C-3.1 0 -1.6 -2.6 0.1 -2.6C1.7 -2.6 3.3 0.1 2.5 1.5Z" fill="#ffffff"></path></g><g transform="translate(832 123)"><path d="M1.3 0.7C0.8 1.4 -0.8 1.4 -1.2 0.7C-1.7 0 -0.8 -1.4 0 -1.4C0.8 -1.4 1.7 0 1.3 0.7Z" fill="#ffffff"></path></g><g transform="translate(199 404)"><path d="M2.5 1.4C1.8 2.8 -1.4 2.7 -2.3 1.3C-3.1 -0.2 -1.5 -3 0.1 -3C1.7 -3 3.3 -0.1 2.5 1.4Z" fill="#ffffff"></path></g><g transform="translate(496 8)"><path d="M2 1.1C1.3 2.3 -1.3 2.3 -2 1.1C-2.7 -0.1 -1.3 -2.5 0 -2.5C1.3 -2.5 2.6 -0.1 2 1.1Z" fill="#ffffff"></path></g><g transform="translate(931 186)"><path d="M2.5 1.4C1.7 2.8 -1.5 2.7 -2.3 1.4C-3.1 0 -1.6 -2.8 0 -2.7C1.6 -2.7 3.2 0 2.5 1.4Z" fill="#ffffff"></path></g><g transform="translate(943 329)"><path d="M0.4 0.2C0.3 0.5 -0.2 0.5 -0.4 0.2C-0.5 0 -0.3 -0.5 0 -0.5C0.3 -0.5 0.6 0 0.4 0.2Z" fill="#ffffff"></path></g><g transform="translate(592 514)"><path d="M0.8 0.5C0.6 1 -0.6 1 -0.8 0.5C-1.1 0.1 -0.6 -0.9 0 -0.9C0.6 -0.9 1.1 0.1 0.8 0.5Z" fill="#ffffff"></path></g><g transform="translate(748 263)"><path d="M2.6 1.6C1.6 3.2 -2.2 3.3 -3.1 1.8C-4 0.2 -2 -3.1 -0.1 -3.1C1.8 -3.2 3.6 0 2.6 1.6Z" fill="#ffffff"></path></g><g transform="translate(50 343)"><path d="M2.1 1.2C1.4 2.4 -1.4 2.4 -2.1 1.2C-2.8 0 -1.4 -2.4 0 -2.4C1.4 -2.4 2.8 0 2.1 1.2Z" fill="#ffffff"></path></g><g transform="translate(289 16)"><path d="M1.7 1C1.1 1.9 -1.1 1.9 -1.6 1C-2.2 0.1 -1.1 -1.8 0 -1.7C1.1 -1.7 2.2 0.1 1.7 1Z" fill="#ffffff"></path></g><g transform="translate(860 28)"><path d="M1.7 1C1.2 1.9 -1 1.9 -1.6 1C-2.2 0 -1.1 -1.9 0 -1.8C1.1 -1.8 2.3 0.1 1.7 1Z" fill="#ffffff"></path></g><g transform="translate(502 49)"><path d="M2.5 1.5C1.6 2.9 -1.8 3 -2.6 1.6C-3.5 0.2 -1.7 -2.7 0 -2.7C1.7 -2.7 3.3 0.1 2.5 1.5Z" fill="#ffffff"></path></g><g transform="translate(94 239)"><path d="M3.4 2.1C2.2 3.9 -2.4 4 -3.5 2.1C-4.6 0.3 -2.3 -3.4 0 -3.5C2.3 -3.5 4.5 0.2 3.4 2.1Z" fill="#ffffff"></path></g><g transform="translate(759 512)"><path d="M1.7 1C1.2 1.9 -1 1.9 -1.5 0.9C-2.1 0 -1.1 -1.9 0 -1.9C1.1 -1.8 2.3 0.1 1.7 1Z" fill="#ffffff"></path></g><g transform="translate(59 39)"><path d="M4.6 2.6C3.1 5.3 -3.1 5.3 -4.6 2.6C-6.1 0 -3.1 -5.4 0 -5.4C3.1 -5.4 6.1 0 4.6 2.6Z" fill="#ffffff"></path></g><g transform="translate(466 379)"><path d="M1.2 0.7C0.8 1.4 -0.8 1.4 -1.2 0.7C-1.6 0 -0.8 -1.5 0 -1.5C0.8 -1.5 1.7 0 1.2 0.7Z" fill="#ffffff"></path></g><g transform="translate(613 359)"><path d="M0.4 0.2C0.3 0.5 -0.3 0.5 -0.4 0.2C-0.6 0 -0.3 -0.5 0 -0.5C0.3 -0.5 0.5 0 0.4 0.2Z" fill="#ffffff"></path></g><g transform="translate(573 143)"><path d="M4.2 2.4C2.7 5 -3.1 5.1 -4.5 2.5C-6 -0.1 -3 -5.4 -0.1 -5.4C2.9 -5.5 5.7 -0.3 4.2 2.4Z" fill="#ffffff"></path></g><g transform="translate(324 219)"><path d="M3.8 2.1C2.5 4.5 -2.7 4.5 -4 2.2C-5.3 -0.1 -2.6 -4.8 0 -4.8C2.6 -4.9 5.1 -0.2 3.8 2.1Z" fill="#ffffff"></path></g><g transform="translate(894 392)"><path d="M1.3 0.7C0.9 1.5 -0.8 1.4 -1.2 0.7C-1.6 0 -0.8 -1.4 0 -1.4C0.8 -1.4 1.7 0 1.3 0.7Z" fill="#ffffff"></path></g><g transform="translate(716 465)"><path d="M4.5 2.5C3.2 4.8 -2.2 4.6 -3.6 2.2C-5.1 -0.2 -2.5 -4.8 0.2 -4.7C2.9 -4.6 5.7 0.2 4.5 2.5Z" fill="#ffffff"></path></g><g transform="translate(290 188)"><path d="M2.5 1.4C1.7 2.9 -1.6 2.8 -2.4 1.4C-3.3 -0.1 -1.6 -3 0 -3C1.7 -3 3.3 -0.1 2.5 1.4Z" fill="#ffffff"></path></g><g transform="translate(25 129)"><path d="M3.6 2.1C2.4 4.2 -2.5 4.2 -3.7 2.1C-4.9 0 -2.5 -4.2 0 -4.2C2.4 -4.3 4.9 0 3.6 2.1Z" fill="#ffffff"></path></g><g transform="translate(415 99)"><path d="M3.8 2.3C2.5 4.4 -2.7 4.5 -3.9 2.3C-5.2 0.2 -2.6 -4.2 0 -4.2C2.5 -4.2 5.1 0.1 3.8 2.3Z" fill="#ffffff"></path></g><g transform="translate(456 339)"><path d="M2.7 1.6C1.7 3.2 -2.1 3.3 -3 1.7C-3.9 0.1 -1.9 -3.2 -0.1 -3.2C1.8 -3.2 3.7 0 2.7 1.6Z" fill="#ffffff"></path></g><g transform="translate(246 254)"><path d="M2.6 1.4C1.8 2.8 -1.4 2.7 -2.2 1.3C-3 -0.2 -1.5 -3 0.1 -3C1.7 -2.9 3.4 0 2.6 1.4Z" fill="#ffffff"></path></g><g transform="translate(520 209)"><path d="M4.4 2.4C3 5 -2.8 4.9 -4.2 2.3C-5.6 -0.3 -2.8 -5.5 0 -5.5C2.9 -5.5 5.8 -0.2 4.4 2.4Z" fill="#ffffff"></path></g><g transform="translate(565 458)"><path d="M1.9 1C1.2 2.2 -1.3 2.2 -1.9 1C-2.6 -0.1 -1.3 -2.5 0 -2.5C1.3 -2.5 2.5 -0.2 1.9 1Z" fill="#ffffff"></path></g><g transform="translate(30 93)"><path d="M1.2 0.7C0.8 1.4 -0.9 1.4 -1.3 0.8C-1.7 0.1 -0.9 -1.4 0 -1.4C0.8 -1.4 1.6 0 1.2 0.7Z" fill="#ffffff"></path></g><g transform="translate(128 101)"><path d="M1.7 1C1.2 1.9 -1.1 1.9 -1.6 0.9C-2.2 0 -1.1 -1.9 0 -1.9C1.1 -1.9 2.2 0 1.7 1Z" fill="#ffffff"></path></g><g transform="translate(143 163)"><path d="M2.3 1.3C1.5 2.6 -1.5 2.6 -2.3 1.3C-3.1 0 -1.5 -2.7 0 -2.7C1.5 -2.7 3 0 2.3 1.3Z" fill="#ffffff"></path></g><g transform="translate(792 93)"><path d="M3.5 2C2.4 3.9 -2.1 3.8 -3.2 1.9C-4.3 -0.1 -2.2 -4 0.1 -4C2.3 -3.9 4.6 0 3.5 2Z" fill="#ffffff"></path></g><g transform="translate(953 378)"><path d="M2.8 1.6C1.9 3.3 -1.9 3.3 -2.8 1.6C-3.8 0 -1.9 -3.4 0 -3.4C1.9 -3.4 3.8 -0.1 2.8 1.6Z" fill="#ffffff"></path></g><g transform="translate(219 234)"><path d="M0.8 0.5C0.6 1 -0.5 1 -0.8 0.5C-1.1 0 -0.6 -1 0 -1C0.6 -1 1.1 0 0.8 0.5Z" fill="#ffffff"></path></g><g transform="translate(481 29)"><path d="M3.8 2.3C2.5 4.4 -2.6 4.4 -3.9 2.3C-5.1 0.2 -2.6 -4 0 -4C2.5 -4 5.1 0.2 3.8 2.3Z" fill="#ffffff"></path></g><g transform="translate(749 123)"><path d="M4 2.2C2.9 4.3 -2.1 4.2 -3.4 2C-4.7 -0.2 -2.3 -4.3 0.1 -4.3C2.6 -4.2 5.2 0.1 4 2.2Z" fill="#ffffff"></path></g><g transform="translate(108 532)"><path d="M1.1 0.7C0.7 1.4 -0.9 1.4 -1.3 0.7C-1.7 0.1 -0.9 -1.4 0 -1.4C0.8 -1.4 1.6 0 1.1 0.7Z" fill="#ffffff"></path></g><g transform="translate(54 274)"><path d="M0.8 0.5C0.6 1 -0.5 1 -0.8 0.5C-1.1 0 -0.6 -0.9 0 -0.9C0.6 -0.9 1.1 0 0.8 0.5Z" fill="#ffffff"></path></g><g transform="translate(449 49)"><path d="M3.1 1.8C2 3.7 -2.4 3.8 -3.4 1.9C-4.5 0.1 -2.2 -3.7 -0.1 -3.8C2.1 -3.8 4.2 -0.1 3.1 1.8Z" fill="#ffffff"></path></g><g transform="translate(433 531)"><path d="M0.4 0.2C0.3 0.5 -0.3 0.5 -0.4 0.2C-0.5 0 -0.3 -0.5 0 -0.5C0.3 -0.5 0.6 0 0.4 0.2Z" fill="#ffffff"></path></g><g transform="translate(239 212)"><path d="M1.2 0.7C0.8 1.4 -0.8 1.4 -1.2 0.7C-1.7 0 -0.8 -1.4 0 -1.4C0.8 -1.4 1.6 0 1.2 0.7Z" fill="#ffffff"></path></g><g transform="translate(193 467)"><path d="M0.8 0.5C0.6 1 -0.5 0.9 -0.8 0.5C-1.1 0 -0.5 -1 0 -1C0.6 -1 1.1 0 0.8 0.5Z" fill="#ffffff"></path></g><g transform="translate(890 267)"><path d="M1.3 0.8C0.9 1.5 -0.8 1.5 -1.2 0.8C-1.7 0.1 -0.8 -1.3 0 -1.3C0.9 -1.3 1.7 0.1 1.3 0.8Z" fill="#ffffff"></path></g><g transform="translate(918 114)"><path d="M4.1 2.4C2.7 4.8 -2.8 4.8 -4.2 2.4C-5.6 0 -2.8 -4.8 0 -4.8C2.7 -4.8 5.5 0 4.1 2.4Z" fill="#ffffff"></path></g><g transform="translate(909 76)"><path d="M1.6 0.9C1.1 1.8 -1 1.8 -1.6 0.9C-2.1 0 -1 -1.9 0 -1.9C1.1 -1.9 2.1 0 1.6 0.9Z" fill="#ffffff"></path></g><g transform="translate(453 167)"><path d="M0.9 0.5C0.6 1 -0.6 1 -0.9 0.5C-1.1 0 -0.6 -0.9 0 -0.9C0.6 -0.9 1.1 0 0.9 0.5Z" fill="#ffffff"></path></g><g transform="translate(243 463)"><path d="M0.4 0.3C0.3 0.5 -0.2 0.5 -0.4 0.2C-0.5 0 -0.3 -0.4 0 -0.4C0.3 -0.4 0.6 0 0.4 0.3Z" fill="#ffffff"></path></g><g transform="translate(953 116)"><path d="M0.9 0.5C0.6 1 -0.5 0.9 -0.8 0.5C-1.1 0 -0.5 -0.9 0 -0.9C0.6 -0.9 1.1 0 0.9 0.5Z" fill="#ffffff"></path></g><g transform="translate(284 213)"><path d="M3.7 2.3C2.3 4.6 -3.2 4.8 -4.5 2.5C-5.8 0.3 -2.9 -4.4 -0.2 -4.5C2.6 -4.6 5.1 -0.1 3.7 2.3Z" fill="#ffffff"></path></g><g transform="translate(518 341)"><path d="M0.8 0.5C0.5 1 -0.6 1 -0.8 0.5C-1.1 0.1 -0.6 -0.9 0 -0.9C0.5 -0.9 1.1 0 0.8 0.5Z" fill="#ffffff"></path></g><g transform="translate(520 523)"><path d="M1.9 1.1C1.2 2.3 -1.5 2.4 -2.2 1.2C-2.8 0 -1.4 -2.5 -0.1 -2.5C1.3 -2.5 2.6 -0.1 1.9 1.1Z" fill="#ffffff"></path></g><g transform="translate(320 439)"><path d="M0.9 0.5C0.6 1 -0.4 0.9 -0.7 0.5C-1 0 -0.5 -0.9 0 -0.9C0.6 -0.9 1.2 0.1 0.9 0.5Z" fill="#ffffff"></path></g><g transform="translate(369 476)"><path d="M3.7 2.3C2.3 4.6 -3.1 4.7 -4.4 2.5C-5.6 0.2 -2.8 -4.4 -0.1 -4.5C2.6 -4.6 5.1 -0.1 3.7 2.3Z" fill="#ffffff"></path></g><g transform="translate(813 372)"><path d="M3.2 1.9C2.1 3.7 -2.2 3.7 -3.2 1.9C-4.3 0.1 -2.2 -3.5 0 -3.5C2.1 -3.5 4.3 0.1 3.2 1.9Z" fill="#ffffff"></path></g><g transform="translate(457 130)"><path d="M4.6 2.7C3.2 5.2 -2.8 5.2 -4.4 2.6C-5.9 0 -2.9 -5.1 0.1 -5.1C3 -5.1 6.1 0.1 4.6 2.7Z" fill="#ffffff"></path></g><g transform="translate(883 497)"><path d="M2.6 1.5C1.6 3.2 -2.1 3.3 -3 1.7C-3.9 0.1 -1.9 -3.2 -0.1 -3.2C1.8 -3.3 3.6 -0.1 2.6 1.5Z" fill="#ffffff"></path></g><g transform="translate(828 244)"><path d="M1.7 0.9C1.1 1.9 -1 1.8 -1.6 0.9C-2.1 -0.1 -1 -2 0 -1.9C1.1 -1.9 2.2 0 1.7 0.9Z" fill="#ffffff"></path></g><g transform="translate(440 369)"><path d="M0.4 0.2C0.2 0.5 -0.3 0.5 -0.4 0.2C-0.6 0 -0.3 -0.5 0 -0.5C0.3 -0.5 0.5 0 0.4 0.2Z" fill="#ffffff"></path></g><g transform="translate(848 146)"><path d="M4.7 2.7C3.2 5.1 -2.6 5 -4.1 2.5C-5.7 -0.1 -2.8 -5 0.1 -4.9C3 -4.9 6.1 0.2 4.7 2.7Z" fill="#ffffff"></path></g><g transform="translate(940 211)"><path d="M3.8 2C2.6 4.2 -2.2 4.1 -3.4 1.9C-4.7 -0.3 -2.3 -4.6 0.1 -4.6C2.5 -4.6 4.9 -0.1 3.8 2Z" fill="#ffffff"></path></g><g transform="translate(750 394)"><path d="M1.6 0.9C1.1 1.9 -1.1 1.9 -1.6 0.9C-2.2 0 -1.1 -1.9 0 -1.9C1.1 -1.9 2.2 0 1.6 0.9Z" fill="#ffffff"></path></g><g transform="translate(497 148)"><path d="M2.3 1.3C1.5 2.7 -1.6 2.7 -2.4 1.3C-3.2 0 -1.6 -2.9 0 -2.9C1.6 -2.9 3.1 -0.1 2.3 1.3Z" fill="#ffffff"></path></g><g transform="translate(775 293)"><path d="M2.6 1.6C1.6 3.2 -2.2 3.3 -3.1 1.7C-4 0.1 -2 -3.2 -0.1 -3.2C1.8 -3.3 3.6 -0.1 2.6 1.6Z" fill="#ffffff"></path></g><g transform="translate(332 284)"><path d="M0.4 0.2C0.2 0.5 -0.3 0.5 -0.4 0.2C-0.6 0 -0.3 -0.5 0 -0.5C0.3 -0.5 0.5 0 0.4 0.2Z" fill="#ffffff"></path></g><g transform="translate(581 101)"><path d="M1.1 0.7C0.7 1.4 -0.9 1.4 -1.3 0.7C-1.7 0 -0.8 -1.4 0 -1.5C0.8 -1.5 1.6 -0.1 1.1 0.7Z" fill="#ffffff"></path></g><g transform="translate(158 284)"><path d="M0.8 0.5C0.5 1 -0.6 1 -0.9 0.5C-1.1 0.1 -0.6 -0.9 0 -0.9C0.5 -0.9 1.1 0 0.8 0.5Z" fill="#ffffff"></path></g><g transform="translate(156 225)"><path d="M2.2 1.3C1.5 2.5 -1.4 2.5 -2.1 1.3C-2.8 0.2 -1.4 -2.1 0 -2.1C1.4 -2.1 2.9 0.2 2.2 1.3Z" fill="#ffffff"></path></g><g transform="translate(114 444)"><path d="M3.9 2.3C2.6 4.6 -2.7 4.6 -4 2.3C-5.3 0.1 -2.7 -4.5 0 -4.5C2.6 -4.5 5.3 0 3.9 2.3Z" fill="#ffffff"></path></g><g transform="translate(304 130)"><path d="M3.2 1.9C2.1 3.8 -2.2 3.8 -3.3 1.9C-4.4 0 -2.2 -3.8 0 -3.9C2.2 -3.9 4.3 -0.1 3.2 1.9Z" fill="#ffffff"></path></g><g transform="translate(602 431)"><path d="M4.1 2.4C2.7 4.8 -2.9 4.9 -4.3 2.5C-5.7 0.1 -2.8 -4.7 0 -4.7C2.8 -4.7 5.5 0 4.1 2.4Z" fill="#ffffff"></path></g><g transform="translate(586 408)"><path d="M4.3 2.4C2.8 4.9 -2.8 4.9 -4.3 2.4C-5.7 -0.1 -2.8 -5.2 0 -5.2C2.8 -5.2 5.7 -0.1 4.3 2.4Z" fill="#ffffff"></path></g><g transform="translate(590 249)"><path d="M0.7 0.4C0.5 0.9 -0.6 0.9 -0.9 0.5C-1.1 0 -0.6 -0.9 0 -0.9C0.5 -0.9 1 0 0.7 0.4Z" fill="#ffffff"></path></g><g transform="translate(340 418)"><path d="M4.4 2.6C3 5.1 -2.9 5.1 -4.4 2.6C-5.8 0.2 -2.9 -4.8 0 -4.7C2.9 -4.7 5.9 0.2 4.4 2.6Z" fill="#ffffff"></path></g><g transform="translate(894 37)"><path d="M4 2.5C2.6 4.8 -3 4.8 -4.3 2.6C-5.7 0.3 -2.8 -4.2 -0.1 -4.3C2.7 -4.3 5.4 0.2 4 2.5Z" fill="#ffffff"></path></g><g transform="translate(621 111)"><path d="M0.4 0.2C0.3 0.5 -0.3 0.5 -0.4 0.2C-0.5 0 -0.3 -0.5 0 -0.5C0.3 -0.5 0.6 0 0.4 0.2Z" fill="#ffffff"></path></g><g transform="translate(30 417)"><path d="M4.7 2.7C3.2 5.3 -2.8 5.2 -4.4 2.6C-5.9 0 -3 -5.2 0.1 -5.1C3.1 -5.1 6.2 0.1 4.7 2.7Z" fill="#ffffff"></path></g><g transform="translate(699 83)"><path d="M1.6 0.9C1.1 1.9 -1.1 1.9 -1.6 0.9C-2.2 0 -1.1 -1.9 0 -1.9C1.1 -1.9 2.1 0 1.6 0.9Z" fill="#ffffff"></path></g><g transform="translate(309 38)"><path d="M4.2 2.4C2.9 4.6 -2.4 4.5 -3.7 2.2C-5.1 -0.1 -2.5 -4.6 0.1 -4.6C2.7 -4.5 5.4 0.1 4.2 2.4Z" fill="#ffffff"></path></g><g transform="translate(121 222)"><path d="M0.7 0.4C0.5 0.9 -0.6 1 -0.9 0.5C-1.1 0 -0.6 -1 0 -1C0.5 -1 1 -0.1 0.7 0.4Z" fill="#ffffff"></path></g><g transform="translate(402 367)"><path d="M2.3 1.3C1.5 2.7 -1.7 2.7 -2.4 1.3C-3.2 -0.1 -1.6 -2.9 0 -2.9C1.5 -2.9 3.1 -0.1 2.3 1.3Z" fill="#ffffff"></path></g><g transform="translate(486 361)"><path d="M1.6 1C1.1 1.9 -1.1 1.9 -1.6 1C-2.2 0.1 -1.1 -1.8 0 -1.8C1.1 -1.8 2.2 0.1 1.6 1Z" fill="#ffffff"></path></g><g transform="translate(838 496)"><path d="M1.9 1.1C1.2 2.2 -1.3 2.2 -1.9 1.1C-2.6 0 -1.3 -2.2 0 -2.2C1.3 -2.2 2.5 0 1.9 1.1Z" fill="#ffffff"></path></g><g transform="translate(701 368)"><path d="M4.6 2.7C3 5.4 -3.2 5.4 -4.8 2.8C-6.3 0.2 -3.1 -5 0 -5C3.1 -5.1 6.1 0.1 4.6 2.7Z" fill="#ffffff"></path></g><g transform="translate(913 6)"><path d="M4.3 2.5C2.7 5.2 -3.4 5.4 -4.9 2.7C-6.3 0 -3.2 -5.5 -0.1 -5.5C3 -5.6 5.9 -0.2 4.3 2.5Z" fill="#ffffff"></path></g><g transform="translate(890 134)"><path d="M0.4 0.2C0.3 0.5 -0.3 0.5 -0.4 0.2C-0.5 0 -0.3 -0.5 0 -0.5C0.3 -0.5 0.6 0 0.4 0.2Z" fill="#ffffff"></path></g><g transform="translate(288 367)"><path d="M4 2.3C2.7 4.6 -2.6 4.6 -3.9 2.2C-5.3 -0.1 -2.6 -4.7 0 -4.7C2.7 -4.7 5.3 -0.1 4 2.3Z" fill="#ffffff"></path></g><g transform="translate(99 40)"><path d="M1.3 0.8C0.9 1.5 -0.8 1.4 -1.2 0.7C-1.6 0 -0.8 -1.3 0 -1.3C0.9 -1.3 1.7 0.1 1.3 0.8Z" fill="#ffffff"></path></g><g transform="translate(437 425)"><path d="M1.9 1.1C1.2 2.2 -1.4 2.3 -2 1.1C-2.6 0 -1.3 -2.3 0 -2.3C1.3 -2.3 2.6 0 1.9 1.1Z" fill="#ffffff"></path></g><g transform="translate(607 324)"><path d="M2.6 1.6C1.6 3.2 -2.2 3.3 -3.1 1.8C-4 0.2 -2 -3.1 -0.1 -3.2C1.8 -3.2 3.6 0 2.6 1.6Z" fill="#ffffff"></path></g><g transform="translate(400 187)"><path d="M0.8 0.5C0.5 0.9 -0.6 1 -0.9 0.5C-1.1 0 -0.6 -1 0 -1C0.5 -1 1.1 0 0.8 0.5Z" fill="#ffffff"></path></g><g transform="translate(753 79)"><path d="M2.9 1.7C1.8 3.6 -2.5 3.8 -3.5 1.9C-4.5 0 -2.3 -4 -0.1 -4.1C2 -4.1 4 -0.3 2.9 1.7Z" fill="#ffffff"></path></g><g transform="translate(165 475)"><path d="M2.7 1.5C1.8 3.3 -2 3.3 -2.9 1.6C-3.9 -0.1 -1.9 -3.5 0 -3.6C1.8 -3.6 3.7 -0.2 2.7 1.5Z" fill="#ffffff"></path></g><g transform="translate(410 405)"><path d="M3.6 2.1C2.5 4.1 -2.3 4.1 -3.5 2.1C-4.7 0 -2.3 -4 0 -4C2.4 -3.9 4.8 0.1 3.6 2.1Z" fill="#ffffff"></path></g><g transform="translate(35 387)"><path d="M0.4 0.2C0.2 0.5 -0.3 0.5 -0.4 0.2C-0.6 0 -0.3 -0.5 0 -0.5C0.3 -0.5 0.5 0 0.4 0.2Z" fill="#ffffff"></path></g><g transform="translate(16 14)"><path d="M0.8 0.5C0.5 0.9 -0.6 0.9 -0.8 0.5C-1.1 0 -0.5 -0.9 0 -0.9C0.5 -0.9 1 0 0.8 0.5Z" fill="#ffffff"></path></g><g transform="translate(849 420)"><path d="M0.8 0.5C0.5 1 -0.6 1 -0.9 0.5C-1.1 0 -0.6 -1 0 -1C0.6 -1 1.1 0 0.8 0.5Z" fill="#ffffff"></path></g><g transform="translate(2 144)"><path d="M3.7 2.3C2.3 4.6 -3.1 4.8 -4.4 2.6C-5.7 0.4 -2.9 -4.2 -0.1 -4.3C2.6 -4.4 5.1 0 3.7 2.3Z" fill="#ffffff"></path></g><g transform="translate(175 188)"><path d="M2.3 1.3C1.5 2.7 -1.7 2.7 -2.4 1.3C-3.2 0 -1.6 -2.9 0 -2.9C1.5 -2.9 3.1 -0.1 2.3 1.3Z" fill="#ffffff"></path></g><g transform="translate(219 528)"><path d="M2.2 1.3C1.4 2.7 -1.8 2.8 -2.6 1.4C-3.3 -0.1 -1.7 -3 -0.1 -3.1C1.5 -3.1 3.1 -0.2 2.2 1.3Z" fill="#ffffff"></path></g><g transform="translate(725 109)"><path d="M0.8 0.5C0.5 0.9 -0.5 0.9 -0.8 0.5C-1.1 0 -0.5 -0.9 0 -0.9C0.5 -0.9 1.1 0 0.8 0.5Z" fill="#ffffff"></path></g><g transform="translate(774 472)"><path d="M1.7 1C1.2 1.9 -1 1.8 -1.5 0.9C-2.1 0 -1 -1.8 0 -1.8C1.1 -1.7 2.2 0.1 1.7 1Z" fill="#ffffff"></path></g><g transform="translate(91 498)"><path d="M2.1 1.2C1.4 2.4 -1.4 2.4 -2.1 1.2C-2.8 0 -1.4 -2.4 0 -2.4C1.4 -2.4 2.8 0 2.1 1.2Z" fill="#ffffff"></path></g><g transform="translate(793 125)"><path d="M1.3 0.8C0.9 1.5 -0.8 1.5 -1.2 0.8C-1.7 0.1 -0.8 -1.3 0 -1.3C0.9 -1.3 1.7 0.1 1.3 0.8Z" fill="#ffffff"></path></g><g transform="translate(603 25)"><path d="M4.6 2.7C3.1 5.3 -2.9 5.2 -4.5 2.6C-6 0 -3 -5.1 0 -5.1C3.1 -5 6.1 0.1 4.6 2.7Z" fill="#ffffff"></path></g><g transform="translate(809 266)"><path d="M1.1 0.7C0.7 1.4 -0.9 1.4 -1.3 0.7C-1.7 0.1 -0.8 -1.3 0 -1.3C0.8 -1.4 1.5 0 1.1 0.7Z" fill="#ffffff"></path></g><g transform="translate(284 430)"><path d="M2.8 1.6C1.9 3.3 -1.9 3.3 -2.9 1.7C-3.8 0 -1.9 -3.3 0 -3.3C1.9 -3.3 3.8 0 2.8 1.6Z" fill="#ffffff"></path></g><g transform="translate(948 476)"><path d="M3.3 1.8C2.2 3.7 -2 3.6 -3 1.7C-4.1 -0.1 -2.1 -3.9 0 -3.8C2.1 -3.8 4.3 0 3.3 1.8Z" fill="#ffffff"></path></g><g transform="translate(149 72)"><path d="M1.5 0.9C0.9 1.8 -1.2 1.9 -1.7 1C-2.3 0.1 -1.1 -1.8 -0.1 -1.8C1 -1.9 2 0 1.5 0.9Z" fill="#ffffff"></path></g><g transform="translate(18 55)"><path d="M3.9 2.3C2.6 4.4 -2.4 4.3 -3.6 2.2C-4.9 0.1 -2.5 -4.1 0 -4C2.5 -4 5.1 0.2 3.9 2.3Z" fill="#ffffff"></path></g><g transform="translate(879 446)"><path d="M4.1 2.4C2.6 5.1 -3.4 5.2 -4.8 2.6C-6.2 0 -3.1 -5.4 -0.1 -5.5C2.8 -5.6 5.7 -0.3 4.1 2.4Z" fill="#ffffff"></path></g><g transform="translate(723 176)"><path d="M1.7 1C1.2 1.9 -1 1.8 -1.5 0.9C-2.1 -0.1 -1 -2 0 -1.9C1.1 -1.9 2.2 0 1.7 1Z" fill="#ffffff"></path></g><g transform="translate(536 10)"><path d="M4.3 2.5C2.9 4.9 -2.6 4.8 -4.1 2.4C-5.5 0 -2.7 -4.7 0.1 -4.7C2.8 -4.7 5.7 0.1 4.3 2.5Z" fill="#ffffff"></path></g><g transform="translate(901 516)"><path d="M4.3 2.4C3 4.8 -2.4 4.6 -3.8 2.2C-5.2 -0.2 -2.6 -4.9 0.1 -4.8C2.8 -4.8 5.6 0.1 4.3 2.4Z" fill="#ffffff"></path></g><g transform="translate(860 514)"><path d="M1.7 1C1.1 1.9 -1 1.9 -1.6 0.9C-2.1 0 -1.1 -1.8 0 -1.8C1.1 -1.8 2.2 0.1 1.7 1Z" fill="#ffffff"></path></g><g transform="translate(135 196)"><path d="M0.8 0.5C0.5 0.9 -0.5 0.9 -0.8 0.5C-1.1 0 -0.5 -1 0 -1C0.5 -1 1.1 0 0.8 0.5Z" fill="#ffffff"></path></g><g transform="translate(889 168)"><path d="M0.8 0.5C0.5 0.9 -0.6 1 -0.9 0.5C-1.1 0 -0.6 -0.9 0 -0.9C0.5 -0.9 1.1 0 0.8 0.5Z" fill="#ffffff"></path></g><g transform="translate(85 411)"><path d="M1.2 0.7C0.8 1.4 -0.8 1.4 -1.2 0.7C-1.6 0 -0.8 -1.4 0 -1.4C0.8 -1.4 1.6 0 1.2 0.7Z" fill="#ffffff"></path></g><g transform="translate(337 53)"><path d="M3.4 2.1C2.3 4 -2.3 4 -3.5 2.1C-4.6 0.3 -2.3 -3.5 0 -3.5C2.3 -3.5 4.6 0.3 3.4 2.1Z" fill="#ffffff"></path></g><g transform="translate(177 309)"><path d="M1.6 0.9C1 1.8 -1.1 1.8 -1.6 0.9C-2.1 -0.1 -1.1 -2 0 -2C1 -2 2.1 -0.1 1.6 0.9Z" fill="#ffffff"></path></g><g transform="translate(191 278)"><path d="M3.5 2C2.4 4.1 -2.4 4.1 -3.6 2C-4.8 -0.1 -2.4 -4.4 0 -4.4C2.4 -4.4 4.7 -0.1 3.5 2Z" fill="#ffffff"></path></g><g transform="translate(213 137)"><path d="M0.8 0.5C0.6 0.9 -0.5 0.9 -0.8 0.4C-1.1 0 -0.5 -1 0 -1C0.5 -1 1.1 0 0.8 0.5Z" fill="#ffffff"></path></g><g transform="translate(650 456)"><path d="M2.9 1.7C2 3.3 -1.9 3.3 -2.8 1.7C-3.8 0 -1.9 -3.3 0 -3.3C1.9 -3.3 3.9 0 2.9 1.7Z" fill="#ffffff"></path></g><g transform="translate(230 164)"><path d="M3.7 2.2C2.4 4.3 -2.5 4.3 -3.8 2.3C-5 0.2 -2.5 -3.9 0 -3.9C2.5 -3.9 4.9 0.2 3.7 2.2Z" fill="#ffffff"></path></g><g transform="translate(371 213)"><path d="M1.5 0.9C1 1.8 -1.2 1.9 -1.7 0.9C-2.2 0 -1.1 -2 0 -2C1 -2 2.1 -0.1 1.5 0.9Z" fill="#ffffff"></path></g><g transform="translate(77 85)"><path d="M2 1.2C1.3 2.4 -1.4 2.4 -2.1 1.2C-2.8 0.1 -1.4 -2.3 0 -2.3C1.3 -2.3 2.7 0 2 1.2Z" fill="#ffffff"></path></g><g transform="translate(350 519)"><path d="M2.6 1.4C1.8 2.9 -1.4 2.8 -2.3 1.3C-3.1 -0.1 -1.6 -3 0.1 -3C1.7 -2.9 3.4 0 2.6 1.4Z" fill="#ffffff"></path></g><g transform="translate(697 287)"><path d="M3.5 1.9C2.5 3.9 -1.9 3.8 -3.1 1.8C-4.2 -0.2 -2.1 -4.1 0.1 -4C2.3 -4 4.6 0 3.5 1.9Z" fill="#ffffff"></path></g><g transform="translate(762 19)"><path d="M0.7 0.4C0.5 0.9 -0.6 0.9 -0.9 0.5C-1.1 0 -0.6 -1 0 -1C0.5 -1 1 -0.1 0.7 0.4Z" fill="#ffffff"></path></g><g transform="translate(483 238)"><path d="M3.1 1.8C2.1 3.4 -1.7 3.3 -2.7 1.6C-3.7 0 -1.8 -3.1 0.1 -3.1C2 -3 4 0.2 3.1 1.8Z" fill="#ffffff"></path></g><g transform="translate(533 120)"><path d="M2.1 1.3C1.4 2.5 -1.4 2.5 -2.2 1.3C-2.9 0.1 -1.4 -2.4 0 -2.4C1.4 -2.4 2.9 0 2.1 1.3Z" fill="#ffffff"></path></g><g transform="translate(445 222)"><path d="M4.4 2.6C3 5 -2.8 5 -4.3 2.5C-5.8 0.1 -2.9 -4.9 0 -4.9C2.9 -4.8 5.9 0.1 4.4 2.6Z" fill="#ffffff"></path></g><g transform="translate(691 398)"><path d="M2.9 1.7C2 3.3 -1.7 3.2 -2.7 1.6C-3.7 0 -1.8 -3.1 0.1 -3.1C1.9 -3 3.9 0.2 2.9 1.7Z" fill="#ffffff"></path></g><g transform="translate(562 188)"><path d="M1.9 1.1C1.2 2.3 -1.6 2.4 -2.2 1.2C-2.9 0 -1.4 -2.4 -0.1 -2.5C1.3 -2.5 2.6 -0.1 1.9 1.1Z" fill="#ffffff"></path></g><g transform="translate(552 254)"><path d="M1.6 0.9C1 1.9 -1.1 1.9 -1.7 1C-2.2 0 -1.1 -1.9 0 -1.9C1.1 -1.9 2.1 0 1.6 0.9Z" fill="#ffffff"></path></g><g transform="translate(176 426)"><path d="M1.2 0.7C0.8 1.4 -0.8 1.4 -1.2 0.7C-1.7 0.1 -0.8 -1.3 0 -1.3C0.8 -1.3 1.6 0.1 1.2 0.7Z" fill="#ffffff"></path></g></g></svg>