<svg id="visual" viewBox="0 0 640 900" width="640" height="900" xmlns="http://www.w3.org/2000/svg" xmlns:xlink="http://www.w3.org/1999/xlink" version="1.1"><g><g transform="translate(231 297)"><path d="M6.6 3.5C5.6 5.5 -0.1 4.4 -2 1.9C-3.9 -0.7 -1.9 -4.8 0.9 -4.3C3.8 -3.7 7.6 1.4 6.6 3.5Z" fill="#ffffff"></path></g><g transform="translate(169 622)"><path d="M1.3 1.1C0.2 2.6 -3.1 3.1 -3.6 1.9C-4.2 0.7 -2.1 -2.3 -0.5 -2.6C1.2 -2.9 2.4 -0.4 1.3 1.1Z" fill="#ffffff"></path></g><g transform="translate(353 834)"><path d="M0.6 0.2C0.5 0.5 -0.1 0.5 -0.3 0.1C-0.5 -0.3 -0.2 -1.1 0.1 -1.1C0.3 -1 0.7 -0.2 0.6 0.2Z" fill="#ffffff"></path></g><g transform="translate(66 415)"><path d="M2.2 1.5C1.4 2.5 -1.5 2.6 -2.3 1.5C-3 0.4 -1.5 -1.7 0 -1.7C1.5 -1.8 2.9 0.4 2.2 1.5Z" fill="#ffffff"></path></g><g transform="translate(149 764)"><path d="M4.3 3C3.2 4.4 -1.7 4.1 -3.1 2.6C-4.4 1.1 -2.2 -1.6 0.2 -1.4C2.7 -1.3 5.4 1.7 4.3 3Z" fill="#ffffff"></path></g><g transform="translate(248 529)"><path d="M1.4 0.5C1.1 1.4 -0.4 1.3 -0.9 0.3C-1.3 -0.6 -0.7 -2.3 0.1 -2.2C0.9 -2.2 1.8 -0.3 1.4 0.5Z" fill="#ffffff"></path></g><g transform="translate(541 554)"><path d="M4.2 2.5C3.1 4.3 -1.6 4 -2.9 2.1C-4.2 0.2 -2.1 -3.3 0.3 -3.1C2.6 -3 5.3 0.8 4.2 2.5Z" fill="#ffffff"></path></g><g transform="translate(344 467)"><path d="M0.4 0.3C0.4 0.4 0 0.3 -0.2 0.2C-0.3 0 -0.1 -0.2 0.1 -0.2C0.3 -0.1 0.5 0.1 0.4 0.3Z" fill="#ffffff"></path></g><g transform="translate(40 325)"><path d="M2 1.5C1.2 2.6 -2 2.8 -2.7 1.7C-3.4 0.6 -1.7 -1.6 -0.1 -1.7C1.4 -1.8 2.9 0.3 2 1.5Z" fill="#ffffff"></path></g><g transform="translate(57 843)"><path d="M0.1 0.1C0 0.3 -0.4 0.4 -0.5 0.2C-0.6 0 -0.3 -0.4 -0.1 -0.5C0.1 -0.5 0.3 -0.1 0.1 0.1Z" fill="#ffffff"></path></g><g transform="translate(442 314)"><path d="M1 0.6C0.8 0.8 0 0.7 -0.3 0.4C-0.6 0.1 -0.3 -0.4 0.1 -0.3C0.6 -0.2 1.1 0.4 1 0.6Z" fill="#ffffff"></path></g><g transform="translate(635 514)"><path d="M1.4 1.2C0.8 1.9 -1.5 2 -2 1.4C-2.5 0.8 -1.2 -0.6 -0.1 -0.7C1 -0.8 2 0.5 1.4 1.2Z" fill="#ffffff"></path></g><g transform="translate(443 557)"><path d="M0.3 0.1C0.2 0.3 -0.1 0.3 -0.2 0.1C-0.3 0 -0.2 -0.4 0 -0.4C0.2 -0.3 0.4 0 0.3 0.1Z" fill="#ffffff"></path></g><g transform="translate(417 41)"><path d="M2 0.9C1.2 2.7 -2.1 2.9 -2.8 1.2C-3.5 -0.5 -1.8 -4 -0.1 -4.1C1.5 -4.2 2.9 -0.8 2 0.9Z" fill="#ffffff"></path></g><g transform="translate(229 336)"><path d="M2.2 1.2C1.2 3.1 -2.5 3.4 -3.4 1.6C-4.2 -0.2 -2.1 -4.1 -0.2 -4.2C1.6 -4.4 3.3 -0.8 2.2 1.2Z" fill="#ffffff"></path></g><g transform="translate(556 764)"><path d="M0.8 0.6C0.3 1.4 -1.4 1.6 -1.8 0.9C-2.1 0.3 -1.1 -1.3 -0.2 -1.4C0.7 -1.6 1.4 -0.2 0.8 0.6Z" fill="#ffffff"></path></g><g transform="translate(503 524)"><path d="M1.1 0.5C0.9 1.1 -0.3 1 -0.7 0.3C-1 -0.4 -0.5 -1.6 0.1 -1.5C0.7 -1.5 1.4 -0.1 1.1 0.5Z" fill="#ffffff"></path></g><g transform="translate(123 568)"><path d="M2.8 1.4C2.2 2.6 -0.6 2.3 -1.5 0.9C-2.3 -0.5 -1.2 -3 0.3 -2.9C1.7 -2.7 3.4 0.1 2.8 1.4Z" fill="#ffffff"></path></g><g transform="translate(131 728)"><path d="M0.4 0.4C0 0.9 -1.3 1.2 -1.5 0.8C-1.6 0.4 -0.8 -0.6 -0.2 -0.7C0.4 -0.9 0.8 -0.1 0.4 0.4Z" fill="#ffffff"></path></g><g transform="translate(266 749)"><path d="M2.8 1C2 3 -1.3 2.8 -2.2 0.8C-3.1 -1.3 -1.6 -5.4 0.1 -5.3C1.8 -5.2 3.6 -1 2.8 1Z" fill="#ffffff"></path></g><g transform="translate(387 895)"><path d="M4.3 2.1C3.4 4 -0.9 3.5 -2.2 1.4C-3.5 -0.8 -1.8 -4.6 0.4 -4.4C2.6 -4.2 5.2 0.2 4.3 2.1Z" fill="#ffffff"></path></g><g transform="translate(138 670)"><path d="M5 3.7C3.3 5.9 -3.6 5.9 -5.2 3.8C-6.9 1.6 -3.5 -2.8 0 -2.8C3.4 -2.8 6.7 1.5 5 3.7Z" fill="#ffffff"></path></g><g transform="translate(74 107)"><path d="M3.1 1.3C2.5 2.8 -0.5 2.4 -1.5 0.7C-2.4 -1 -1.2 -4 0.3 -3.9C1.8 -3.7 3.7 -0.2 3.1 1.3Z" fill="#ffffff"></path></g><g transform="translate(154 849)"><path d="M2.2 1.5C1.2 2.9 -2.2 3.1 -3 1.8C-3.8 0.5 -1.9 -2.3 -0.2 -2.4C1.6 -2.5 3.1 0.1 2.2 1.5Z" fill="#ffffff"></path></g><g transform="translate(495 695)"><path d="M2.4 1.3C2.1 2 0.1 1.5 -0.6 0.7C-1.3 -0.2 -0.6 -1.5 0.4 -1.3C1.4 -1.1 2.8 0.7 2.4 1.3Z" fill="#ffffff"></path></g><g transform="translate(22 67)"><path d="M1.8 1.2C1.3 1.9 -0.9 1.8 -1.4 1.1C-2 0.4 -1 -1 0.1 -1C1.2 -0.9 2.3 0.5 1.8 1.2Z" fill="#ffffff"></path></g><g transform="translate(186 410)"><path d="M0.9 0.3C0.4 1.4 -1.3 1.5 -1.6 0.6C-2 -0.4 -1 -2.4 -0.1 -2.5C0.7 -2.6 1.4 -0.7 0.9 0.3Z" fill="#ffffff"></path></g><g transform="translate(506 252)"><path d="M2.1 0.9C1.2 2.9 -2.2 3 -3 1.1C-3.7 -0.8 -1.9 -4.7 -0.2 -4.8C1.5 -4.9 3.1 -1.1 2.1 0.9Z" fill="#ffffff"></path></g><g transform="translate(89 510)"><path d="M0.3 0.2C0.2 0.3 -0.2 0.3 -0.3 0.2C-0.4 0.1 -0.2 -0.2 0 -0.2C0.2 -0.2 0.4 0 0.3 0.2Z" fill="#ffffff"></path></g><g transform="translate(352 678)"><path d="M2.7 1.4C2 2.8 -1 2.6 -1.9 1.1C-2.7 -0.4 -1.4 -3.1 0.2 -3C1.7 -2.9 3.4 0 2.7 1.4Z" fill="#ffffff"></path></g><g transform="translate(530 505)"><path d="M2.3 1.8C1.4 2.8 -1.9 2.9 -2.7 2C-3.5 1 -1.7 -1 -0.1 -1C1.6 -1.1 3.1 0.8 2.3 1.8Z" fill="#ffffff"></path></g><g transform="translate(576 422)"><path d="M0.6 0.8C0 1.5 -2 1.9 -2.3 1.4C-2.6 0.8 -1.3 -0.6 -0.3 -0.8C0.6 -1 1.3 0.1 0.6 0.8Z" fill="#ffffff"></path></g><g transform="translate(16 195)"><path d="M1.8 0.9C1.3 1.9 -0.8 1.8 -1.4 0.7C-1.9 -0.4 -1 -2.4 0.1 -2.3C1.2 -2.3 2.3 -0.1 1.8 0.9Z" fill="#ffffff"></path></g><g transform="translate(541 108)"><path d="M1.1 0.7C0.7 1.2 -0.7 1.2 -1.1 0.7C-1.4 0.3 -0.7 -0.7 0 -0.7C0.7 -0.7 1.4 0.3 1.1 0.7Z" fill="#ffffff"></path></g><g transform="translate(618 823)"><path d="M2.8 1.6C1.7 3.6 -2.5 3.7 -3.5 1.8C-4.5 -0.1 -2.3 -4.1 -0.1 -4.2C2 -4.3 4 -0.4 2.8 1.6Z" fill="#ffffff"></path></g><g transform="translate(575 158)"><path d="M0.8 0.6C0.6 0.9 -0.4 0.8 -0.7 0.5C-0.9 0.2 -0.5 -0.4 0 -0.4C0.5 -0.4 1.1 0.3 0.8 0.6Z" fill="#ffffff"></path></g><g transform="translate(300 528)"><path d="M2.2 1C1.8 1.9 -0.2 1.6 -0.9 0.5C-1.5 -0.6 -0.8 -2.5 0.3 -2.3C1.3 -2.2 2.5 0 2.2 1Z" fill="#ffffff"></path></g><g transform="translate(78 447)"><path d="M1.5 1.4C0.2 3 -3.6 3.6 -4.3 2.4C-4.9 1.1 -2.5 -2.1 -0.6 -2.4C1.4 -2.7 2.7 -0.2 1.5 1.4Z" fill="#ffffff"></path></g><g transform="translate(75 341)"><path d="M1.7 1.3C0.3 3.3 -4 4 -4.7 2.3C-5.5 0.6 -2.7 -3.5 -0.6 -3.9C1.5 -4.2 3 -0.8 1.7 1.3Z" fill="#ffffff"></path></g><g transform="translate(35 624)"><path d="M2.4 1.1C1.8 2.5 -1.1 2.4 -1.9 0.9C-2.6 -0.6 -1.3 -3.4 0.1 -3.3C1.5 -3.3 3.1 -0.3 2.4 1.1Z" fill="#ffffff"></path></g><g transform="translate(424 882)"><path d="M3.2 1.6C2.5 2.9 -0.6 2.5 -1.5 1C-2.4 -0.4 -1.2 -3 0.3 -2.8C1.9 -2.6 3.8 0.3 3.2 1.6Z" fill="#ffffff"></path></g><g transform="translate(118 465)"><path d="M0.8 0.3C0.6 0.7 -0.1 0.5 -0.3 0.1C-0.5 -0.3 -0.3 -1 0.1 -0.9C0.4 -0.9 0.9 -0.1 0.8 0.3Z" fill="#ffffff"></path></g><g transform="translate(278 193)"><path d="M2.9 2C1.5 4.1 -3.4 4.5 -4.5 2.5C-5.6 0.6 -2.8 -3.7 -0.3 -3.9C2.2 -4.1 4.3 -0.2 2.9 2Z" fill="#ffffff"></path></g><g transform="translate(319 702)"><path d="M1.9 0.9C1.5 1.8 -0.5 1.6 -1 0.6C-1.6 -0.4 -0.8 -2.1 0.2 -2C1.2 -1.9 2.3 0.1 1.9 0.9Z" fill="#ffffff"></path></g><g transform="translate(522 206)"><path d="M1.5 0.9C1.2 1.5 -0.5 1.4 -1 0.7C-1.4 0 -0.7 -1.3 0.1 -1.2C0.9 -1.1 1.9 0.2 1.5 0.9Z" fill="#ffffff"></path></g><g transform="translate(434 225)"><path d="M1.1 0.5C0 2.7 -3.6 3.4 -4.2 1.5C-4.7 -0.4 -2.4 -4.9 -0.6 -5.3C1.2 -5.6 2.3 -1.8 1.1 0.5Z" fill="#ffffff"></path></g><g transform="translate(197 843)"><path d="M0.6 0.3C0.4 0.7 -0.4 0.7 -0.6 0.3C-0.8 -0.1 -0.4 -0.8 0 -0.8C0.4 -0.8 0.8 -0.1 0.6 0.3Z" fill="#ffffff"></path></g><g transform="translate(443 346)"><path d="M1.1 0.7C0.7 1.4 -0.9 1.4 -1.3 0.7C-1.7 0 -0.8 -1.3 0 -1.4C0.8 -1.4 1.5 0 1.1 0.7Z" fill="#ffffff"></path></g><g transform="translate(428 180)"><path d="M0.9 0.3C0.3 1.5 -1.6 1.8 -2 0.7C-2.3 -0.4 -1.2 -2.8 -0.2 -2.9C0.7 -3.1 1.5 -0.9 0.9 0.3Z" fill="#ffffff"></path></g><g transform="translate(111 237)"><path d="M5.1 2.5C4.4 4.1 0.1 3.3 -1.4 1.2C-2.8 -0.8 -1.4 -4.1 0.7 -3.6C2.9 -3.2 5.8 0.9 5.1 2.5Z" fill="#ffffff"></path></g><g transform="translate(385 488)"><path d="M4.3 3C2.9 4.9 -2.7 4.8 -4.1 2.9C-5.6 1 -2.8 -2.7 0 -2.7C2.8 -2.7 5.7 1.1 4.3 3Z" fill="#ffffff"></path></g><g transform="translate(202 642)"><path d="M1.4 1.8C-0.1 3.5 -4.6 4.4 -5.4 3.1C-6.1 1.9 -3 -1.5 -0.8 -1.9C1.5 -2.4 2.9 0.1 1.4 1.8Z" fill="#ffffff"></path></g><g transform="translate(272 673)"><path d="M2.4 0.8C2 2 -0.1 1.6 -0.7 0.2C-1.4 -1.2 -0.7 -3.6 0.3 -3.4C1.4 -3.2 2.7 -0.4 2.4 0.8Z" fill="#ffffff"></path></g><g transform="translate(327 809)"><path d="M1.2 1.1C0.4 2.1 -2.2 2.4 -2.7 1.6C-3.2 0.7 -1.6 -1.3 -0.3 -1.4C1 -1.6 2 0.1 1.2 1.1Z" fill="#ffffff"></path></g><g transform="translate(570 632)"><path d="M2.2 1.2C1.8 2 -0.4 1.8 -1.1 0.8C-1.8 -0.1 -0.9 -1.8 0.2 -1.6C1.3 -1.5 2.7 0.4 2.2 1.2Z" fill="#ffffff"></path></g><g transform="translate(433 103)"><path d="M2.3 1.3C1.9 1.9 -0.1 1.6 -0.8 0.7C-1.4 -0.1 -0.7 -1.5 0.3 -1.3C1.3 -1.1 2.6 0.6 2.3 1.3Z" fill="#ffffff"></path></g><g transform="translate(632 585)"><path d="M2.6 1.4C2.2 2.1 0.1 1.6 -0.6 0.7C-1.3 -0.2 -0.7 -1.6 0.4 -1.4C1.5 -1.1 2.9 0.7 2.6 1.4Z" fill="#ffffff"></path></g><g transform="translate(364 355)"><path d="M5.5 2.5C4.7 4.4 0.2 3.4 -1.3 1.1C-2.9 -1.3 -1.4 -5 0.8 -4.6C3.1 -4.1 6.2 0.6 5.5 2.5Z" fill="#ffffff"></path></g><g transform="translate(132 404)"><path d="M1.7 1.1C0.7 2.7 -2.6 3.1 -3.3 1.7C-4 0.3 -2 -2.9 -0.3 -3.1C1.4 -3.3 2.7 -0.5 1.7 1.1Z" fill="#ffffff"></path></g><g transform="translate(560 224)"><path d="M2.7 1.6C1.7 3.3 -2.2 3.4 -3.1 1.7C-4 0 -2 -3.4 -0.1 -3.4C1.8 -3.5 3.7 -0.1 2.7 1.6Z" fill="#ffffff"></path></g><g transform="translate(420 460)"><path d="M3.7 2.3C2.9 3.5 -0.9 3.1 -2 1.7C-3.1 0.4 -1.6 -2 0.3 -1.8C2.3 -1.6 4.5 1.1 3.7 2.3Z" fill="#ffffff"></path></g><g transform="translate(98 809)"><path d="M2.9 2.5C1.4 4.2 -3.7 4.6 -4.7 3.1C-5.8 1.7 -2.9 -1.7 -0.4 -1.9C2.2 -2.1 4.3 0.8 2.9 2.5Z" fill="#ffffff"></path></g><g transform="translate(41 2)"><path d="M0.7 0.6C0.4 1 -0.9 1.2 -1.2 0.7C-1.5 0.3 -0.7 -0.7 -0.1 -0.8C0.5 -0.8 1.1 0.1 0.7 0.6Z" fill="#ffffff"></path></g><g transform="translate(456 454)"><path d="M1 0.7C0.5 1.3 -1.1 1.4 -1.4 0.8C-1.8 0.2 -0.9 -1.2 -0.1 -1.2C0.7 -1.3 1.4 0 1 0.7Z" fill="#ffffff"></path></g><g transform="translate(446 774)"><path d="M1 1C0.3 1.7 -1.9 2 -2.3 1.4C-2.7 0.8 -1.3 -0.8 -0.3 -1C0.8 -1.1 1.7 0.2 1 1Z" fill="#ffffff"></path></g><g transform="translate(85 151)"><path d="M0.4 0.1C0.2 0.7 -0.7 0.8 -0.9 0.2C-1.1 -0.4 -0.5 -1.7 -0.1 -1.7C0.3 -1.8 0.7 -0.6 0.4 0.1Z" fill="#ffffff"></path></g><g transform="translate(359 529)"><path d="M0.4 0.3C0.2 0.7 -0.7 0.8 -0.8 0.5C-1 0.2 -0.5 -0.5 -0.1 -0.6C0.4 -0.6 0.7 0 0.4 0.3Z" fill="#ffffff"></path></g><g transform="translate(9 713)"><path d="M1.6 0.9C1 1.8 -1 1.8 -1.5 0.9C-2 0.1 -1 -1.6 0 -1.6C1 -1.6 2.1 0.1 1.6 0.9Z" fill="#ffffff"></path></g><g transform="translate(210 224)"><path d="M3.4 2.2C2.5 3.5 -1.4 3.3 -2.5 1.9C-3.5 0.5 -1.8 -2.1 0.2 -2C2.1 -1.9 4.3 0.9 3.4 2.2Z" fill="#ffffff"></path></g><g transform="translate(19 302)"><path d="M2 1.3C1.3 2.3 -1.3 2.3 -2 1.3C-2.6 0.4 -1.3 -1.4 0 -1.4C1.3 -1.4 2.6 0.4 2 1.3Z" fill="#ffffff"></path></g><g transform="translate(159 132)"><path d="M3.4 2.6C2 4.3 -3.1 4.5 -4.3 2.9C-5.5 1.3 -2.7 -2.2 -0.2 -2.3C2.4 -2.4 4.7 0.9 3.4 2.6Z" fill="#ffffff"></path></g><g transform="translate(312 388)"><path d="M0.3 0.2C0 0.6 -0.8 0.8 -1 0.5C-1.1 0.2 -0.6 -0.6 -0.1 -0.7C0.3 -0.8 0.6 -0.2 0.3 0.2Z" fill="#ffffff"></path></g><g transform="translate(510 7)"><path d="M1.2 0.5C1 1.2 -0.3 1 -0.7 0.3C-1 -0.3 -0.5 -1.6 0.1 -1.5C0.7 -1.5 1.5 -0.1 1.2 0.5Z" fill="#ffffff"></path></g><g transform="translate(13 468)"><path d="M1.7 1.2C1 2.2 -1.7 2.3 -2.3 1.4C-2.9 0.5 -1.4 -1.4 -0.1 -1.5C1.2 -1.5 2.4 0.3 1.7 1.2Z" fill="#ffffff"></path></g><g transform="translate(492 333)"><path d="M0.6 0.2C0.2 1 -1.2 1.2 -1.4 0.5C-1.6 -0.2 -0.8 -1.8 -0.2 -1.9C0.5 -1.9 1 -0.5 0.6 0.2Z" fill="#ffffff"></path></g><g transform="translate(80 215)"><path d="M0.8 0.5C0 1.8 -2.3 2.3 -2.7 1.2C-3.1 0.1 -1.6 -2.6 -0.4 -2.8C0.8 -3 1.6 -0.8 0.8 0.5Z" fill="#ffffff"></path></g><g transform="translate(464 39)"><path d="M2.9 0.8C1.9 3.3 -1.9 3.3 -2.8 0.8C-3.8 -1.7 -1.9 -6.7 0 -6.7C1.9 -6.6 3.8 -1.7 2.9 0.8Z" fill="#ffffff"></path></g><g transform="translate(629 775)"><path d="M3.2 1C2.5 3 -0.8 2.7 -1.8 0.5C-2.7 -1.6 -1.4 -5.6 0.3 -5.4C1.9 -5.3 3.9 -1 3.2 1Z" fill="#ffffff"></path></g><g transform="translate(554 475)"><path d="M1 0.7C0.6 1.3 -1.1 1.4 -1.4 0.8C-1.8 0.2 -0.9 -1.2 -0.1 -1.2C0.7 -1.3 1.4 0 1 0.7Z" fill="#ffffff"></path></g><g transform="translate(202 759)"><path d="M1.5 0.6C1.3 1.2 0 0.9 -0.4 0.3C-0.8 -0.4 -0.4 -1.5 0.2 -1.4C0.8 -1.3 1.7 0.1 1.5 0.6Z" fill="#ffffff"></path></g><g transform="translate(333 238)"><path d="M4.2 2C3.1 4.2 -1.5 3.9 -2.8 1.5C-4.1 -0.8 -2.1 -5.3 0.3 -5.1C2.6 -4.9 5.2 -0.2 4.2 2Z" fill="#ffffff"></path></g><g transform="translate(105 377)"><path d="M1.6 1.1C0.5 2.8 -3 3.2 -3.6 1.8C-4.3 0.4 -2.1 -3 -0.4 -3.2C1.3 -3.4 2.6 -0.6 1.6 1.1Z" fill="#ffffff"></path></g><g transform="translate(435 151)"><path d="M0.7 0.7C0.2 1.2 -1.3 1.4 -1.6 1C-1.9 0.5 -1 -0.7 -0.2 -0.8C0.6 -0.9 1.2 0.1 0.7 0.7Z" fill="#ffffff"></path></g><g transform="translate(201 445)"><path d="M2.6 1.3C2.1 2.3 -0.4 2 -1.1 0.8C-1.9 -0.3 -1 -2.3 0.3 -2.1C1.5 -1.9 3.1 0.4 2.6 1.3Z" fill="#ffffff"></path></g><g transform="translate(17 576)"><path d="M0.5 0.3C0.1 1 -1.2 1.2 -1.4 0.6C-1.6 0.1 -0.8 -1.2 -0.2 -1.3C0.4 -1.4 0.9 -0.3 0.5 0.3Z" fill="#ffffff"></path></g><g transform="translate(156 476)"><path d="M0.3 0.2C0.2 0.3 -0.2 0.3 -0.3 0.2C-0.4 0.1 -0.2 -0.2 0 -0.3C0.2 -0.3 0.4 0 0.3 0.2Z" fill="#ffffff"></path></g><g transform="translate(121 79)"><path d="M2 1.4C0.9 3.1 -3 3.5 -3.7 2C-4.5 0.4 -2.3 -3.1 -0.3 -3.3C1.6 -3.5 3.1 -0.4 2 1.4Z" fill="#ffffff"></path></g><g transform="translate(372 390)"><path d="M5.2 2.6C3.8 5.4 -2.2 5 -3.8 2.1C-5.4 -0.8 -2.7 -6.2 0.3 -6.1C3.3 -5.9 6.6 -0.1 5.2 2.6Z" fill="#ffffff"></path></g><g transform="translate(118 495)"><path d="M2.4 1.5C1.7 2.4 -1 2.3 -1.7 1.3C-2.5 0.3 -1.2 -1.5 0.1 -1.4C1.5 -1.3 3 0.6 2.4 1.5Z" fill="#ffffff"></path></g><g transform="translate(598 615)"><path d="M2.1 1.5C1.5 2.4 -1.3 2.4 -2 1.4C-2.7 0.5 -1.4 -1.4 0 -1.4C1.4 -1.4 2.8 0.5 2.1 1.5Z" fill="#ffffff"></path></g><g transform="translate(486 847)"><path d="M1.6 0.6C0.6 2.6 -2.7 3 -3.3 1.2C-4 -0.6 -2 -4.7 -0.3 -4.9C1.3 -5.1 2.6 -1.4 1.6 0.6Z" fill="#ffffff"></path></g><g transform="translate(277 71)"><path d="M0.6 0.3C0.4 0.6 -0.2 0.5 -0.4 0.2C-0.5 0 -0.3 -0.5 0 -0.5C0.4 -0.5 0.7 0.1 0.6 0.3Z" fill="#ffffff"></path></g><g transform="translate(541 672)"><path d="M3.1 1.5C2.1 3.5 -2 3.5 -3 1.5C-4 -0.6 -2 -4.7 0 -4.7C2.1 -4.7 4.1 -0.5 3.1 1.5Z" fill="#ffffff"></path></g><g transform="translate(397 285)"><path d="M0.7 0.5C0.3 1.3 -1.3 1.5 -1.6 0.8C-1.9 0.1 -1 -1.4 -0.2 -1.5C0.6 -1.6 1.2 -0.3 0.7 0.5Z" fill="#ffffff"></path></g><g transform="translate(584 124)"><path d="M1.4 1.1C0.8 1.7 -1.2 1.8 -1.7 1.2C-2.2 0.6 -1.1 -0.7 -0.1 -0.7C1 -0.7 1.9 0.5 1.4 1.1Z" fill="#ffffff"></path></g><g transform="translate(342 43)"><path d="M0.7 0.2C0.5 0.7 -0.3 0.7 -0.5 0.2C-0.7 -0.3 -0.4 -1.3 0 -1.3C0.4 -1.3 0.8 -0.3 0.7 0.2Z" fill="#ffffff"></path></g><g transform="translate(312 312)"><path d="M4.2 1.4C3.4 3.8 -0.7 3.3 -1.9 0.6C-3.2 -2 -1.6 -6.8 0.5 -6.5C2.5 -6.3 5 -1 4.2 1.4Z" fill="#ffffff"></path></g><g transform="translate(398 118)"><path d="M3.9 2.2C3.2 3.4 -0.5 2.9 -1.6 1.4C-2.8 0 -1.4 -2.5 0.4 -2.2C2.3 -2 4.5 1 3.9 2.2Z" fill="#ffffff"></path></g><g transform="translate(517 806)"><path d="M1.6 1.3C0.7 2.5 -2.4 2.9 -3.1 1.8C-3.7 0.7 -1.9 -1.9 -0.3 -2C1.3 -2.2 2.5 0 1.6 1.3Z" fill="#ffffff"></path></g><g transform="translate(276 309)"><path d="M0.4 0.3C0.3 0.4 -0.1 0.4 -0.3 0.2C-0.4 0 -0.2 -0.3 0 -0.3C0.3 -0.2 0.5 0.1 0.4 0.3Z" fill="#ffffff"></path></g><g transform="translate(176 161)"><path d="M3.2 1.7C2.8 2.6 0.2 2 -0.7 0.9C-1.6 -0.3 -0.8 -2 0.5 -1.7C1.8 -1.4 3.6 0.9 3.2 1.7Z" fill="#ffffff"></path></g><g transform="translate(363 610)"><path d="M1 0.6C0.8 1 -0.4 1 -0.7 0.5C-1 0 -0.5 -1 0.1 -0.9C0.6 -0.9 1.3 0.1 1 0.6Z" fill="#ffffff"></path></g><g transform="translate(501 131)"><path d="M2 0.8C1 2.9 -2.5 3.2 -3.3 1.2C-4 -0.8 -2 -5.1 -0.2 -5.2C1.5 -5.4 3.1 -1.4 2 0.8Z" fill="#ffffff"></path></g><g transform="translate(461 605)"><path d="M3.4 1.7C2.3 3.8 -2.1 3.8 -3.2 1.7C-4.3 -0.4 -2.2 -4.6 0 -4.6C2.2 -4.6 4.5 -0.4 3.4 1.7Z" fill="#ffffff"></path></g><g transform="translate(479 892)"><path d="M1.8 0.3C1.2 2.1 -1.3 2.1 -1.9 0.4C-2.5 -1.4 -1.3 -5 0 -5C1.2 -5 2.4 -1.5 1.8 0.3Z" fill="#ffffff"></path></g><g transform="translate(635 652)"><path d="M2.2 1C1.8 1.8 0 1.5 -0.7 0.5C-1.3 -0.5 -0.6 -2 0.3 -1.9C1.2 -1.7 2.5 0.2 2.2 1Z" fill="#ffffff"></path></g><g transform="translate(143 258)"><path d="M0.9 0.5C0.8 0.8 0 0.7 -0.3 0.3C-0.6 0 -0.3 -0.6 0.1 -0.5C0.5 -0.5 1.1 0.2 0.9 0.5Z" fill="#ffffff"></path></g><g transform="translate(255 840)"><path d="M5 2.6C4.4 3.9 0.5 3 -0.9 1.2C-2.3 -0.6 -1.2 -3.1 0.8 -2.7C2.8 -2.2 5.6 1.3 5 2.6Z" fill="#ffffff"></path></g><g transform="translate(175 802)"><path d="M2.2 0.4C1.7 2.2 -0.7 2 -1.4 0.1C-2.1 -1.8 -1 -5.3 0.2 -5.2C1.4 -5.1 2.7 -1.4 2.2 0.4Z" fill="#ffffff"></path></g><g transform="translate(425 529)"><path d="M0.8 0.6C0.1 1.6 -1.9 1.9 -2.3 1.1C-2.6 0.3 -1.3 -1.7 -0.3 -1.8C0.7 -2 1.4 -0.4 0.8 0.6Z" fill="#ffffff"></path></g><g transform="translate(443 683)"><path d="M1 0.2C0.4 1.7 -1.7 1.9 -2.1 0.6C-2.5 -0.8 -1.3 -3.7 -0.2 -3.9C0.8 -4 1.6 -1.3 1 0.2Z" fill="#ffffff"></path></g><g transform="translate(234 387)"><path d="M0.4 0.2C0 0.9 -1.3 1.2 -1.5 0.6C-1.7 0 -0.8 -1.4 -0.2 -1.6C0.4 -1.7 0.8 -0.5 0.4 0.2Z" fill="#ffffff"></path></g><g transform="translate(33 788)"><path d="M5 3.2C3.9 4.8 -1.4 4.3 -2.9 2.5C-4.4 0.7 -2.2 -2.4 0.4 -2.1C3 -1.9 6.1 1.7 5 3.2Z" fill="#ffffff"></path></g><g transform="translate(40 818)"><path d="M1.9 1.1C1.5 1.7 -0.4 1.5 -1 0.8C-1.5 0.1 -0.8 -1.1 0.2 -1C1.1 -0.9 2.2 0.5 1.9 1.1Z" fill="#ffffff"></path></g><g transform="translate(39 696)"><path d="M2.1 1.2C0.9 3.4 -3.2 3.8 -4.1 1.9C-4.9 0 -2.5 -4.4 -0.4 -4.6C1.7 -4.8 3.4 -1 2.1 1.2Z" fill="#ffffff"></path></g><g transform="translate(527 141)"><path d="M0.7 0.2C0.5 0.6 -0.2 0.5 -0.4 0.1C-0.6 -0.3 -0.3 -1.1 0.1 -1C0.4 -1 0.8 -0.2 0.7 0.2Z" fill="#ffffff"></path></g><g transform="translate(492 427)"><path d="M1.1 0.7C0.7 1.3 -0.9 1.4 -1.3 0.7C-1.6 0.1 -0.8 -1.3 0 -1.3C0.7 -1.3 1.5 0 1.1 0.7Z" fill="#ffffff"></path></g><g transform="translate(477 505)"><path d="M3.1 1.3C2.4 3.2 -1.2 2.9 -2.1 1C-3.1 -1 -1.6 -4.7 0.2 -4.6C2 -4.4 3.9 -0.5 3.1 1.3Z" fill="#ffffff"></path></g><g transform="translate(525 64)"><path d="M4.1 1.8C3.6 3.3 0.2 2.5 -0.9 0.7C-2.1 -1.2 -1 -4.2 0.6 -3.9C2.3 -3.5 4.6 0.3 4.1 1.8Z" fill="#ffffff"></path></g><g transform="translate(506 37)"><path d="M0.8 0.3C0.6 0.8 -0.4 0.8 -0.6 0.2C-0.9 -0.3 -0.4 -1.4 0 -1.4C0.5 -1.4 1 -0.2 0.8 0.3Z" fill="#ffffff"></path></g><g transform="translate(293 11)"><path d="M4.2 2.1C3.5 3.6 -0.3 2.9 -1.5 1.1C-2.7 -0.7 -1.3 -3.7 0.5 -3.3C2.4 -3 4.8 0.6 4.2 2.1Z" fill="#ffffff"></path></g><g transform="translate(564 10)"><path d="M0.8 0.6C0.4 1.1 -0.9 1.2 -1.2 0.7C-1.5 0.2 -0.8 -0.9 -0.1 -0.9C0.6 -1 1.2 0 0.8 0.6Z" fill="#ffffff"></path></g><g transform="translate(333 572)"><path d="M1.6 1.1C0.8 2.1 -1.7 2.3 -2.3 1.3C-2.9 0.4 -1.4 -1.7 -0.2 -1.8C1.1 -1.9 2.3 0 1.6 1.1Z" fill="#ffffff"></path></g><g transform="translate(267 703)"><path d="M0.2 0.1C0.1 0.2 -0.1 0.2 -0.2 0.1C-0.3 -0.1 -0.1 -0.5 0 -0.5C0.1 -0.5 0.3 -0.1 0.2 0.1Z" fill="#ffffff"></path></g><g transform="translate(176 875)"><path d="M1.3 0.8C1.1 1.1 0 0.9 -0.4 0.5C-0.8 0.1 -0.4 -0.5 0.2 -0.4C0.8 -0.3 1.5 0.5 1.3 0.8Z" fill="#ffffff"></path></g><g transform="translate(636 872)"><path d="M1.4 1C0.6 2.2 -2.1 2.5 -2.6 1.4C-3.2 0.3 -1.6 -2.1 -0.2 -2.2C1.1 -2.4 2.2 -0.2 1.4 1Z" fill="#ffffff"></path></g><g transform="translate(367 778)"><path d="M1.1 0.5C0.7 1.4 -0.9 1.4 -1.3 0.6C-1.7 -0.3 -0.8 -2 0 -2C0.8 -2 1.6 -0.3 1.1 0.5Z" fill="#ffffff"></path></g><g transform="translate(476 538)"><path d="M0.9 0.5C0.4 1.2 -1 1.3 -1.4 0.7C-1.7 0 -0.8 -1.4 -0.1 -1.5C0.6 -1.5 1.3 -0.2 0.9 0.5Z" fill="#ffffff"></path></g><g transform="translate(469 299)"><path d="M0.8 0.5C0.1 1.5 -1.8 1.8 -2.2 1C-2.5 0.1 -1.3 -1.9 -0.3 -2.1C0.7 -2.2 1.4 -0.5 0.8 0.5Z" fill="#ffffff"></path></g><g transform="translate(101 57)"><path d="M2.9 1.9C2 3.2 -1.6 3.1 -2.6 1.8C-3.5 0.5 -1.7 -2 0.1 -1.9C1.9 -1.9 3.7 0.7 2.9 1.9Z" fill="#ffffff"></path></g><g transform="translate(77 767)"><path d="M3.5 2.2C2.2 4.4 -3 4.6 -4.2 2.4C-5.5 0.3 -2.7 -4.2 -0.1 -4.3C2.5 -4.3 4.9 0 3.5 2.2Z" fill="#ffffff"></path></g><g transform="translate(608 330)"><path d="M2.9 1.7C2.2 2.9 -1 2.7 -1.9 1.3C-2.8 0 -1.4 -2.4 0.2 -2.3C1.8 -2.2 3.6 0.5 2.9 1.7Z" fill="#ffffff"></path></g><g transform="translate(480 91)"><path d="M0.5 0.4C0.2 0.7 -0.6 0.8 -0.8 0.5C-1 0.2 -0.5 -0.5 -0.1 -0.5C0.4 -0.5 0.7 0 0.5 0.4Z" fill="#ffffff"></path></g><g transform="translate(335 745)"><path d="M1.5 1.2C0.5 2.7 -2.8 3.1 -3.5 1.9C-4.1 0.6 -2.1 -2.3 -0.4 -2.5C1.3 -2.7 2.6 -0.2 1.5 1.2Z" fill="#ffffff"></path></g><g transform="translate(171 276)"><path d="M2.4 1.2C1.6 2.8 -1.6 2.8 -2.4 1.2C-3.2 -0.3 -1.6 -3.4 0 -3.4C1.6 -3.4 3.2 -0.3 2.4 1.2Z" fill="#ffffff"></path></g><g transform="translate(94 627)"><path d="M2 1C0.8 3.3 -3.3 3.7 -4.1 1.7C-4.9 -0.4 -2.4 -5 -0.4 -5.2C1.6 -5.5 3.2 -1.3 2 1Z" fill="#ffffff"></path></g><g transform="translate(465 747)"><path d="M0.7 0.3C0.5 0.6 -0.1 0.5 -0.3 0.2C-0.5 -0.2 -0.3 -0.8 0.1 -0.8C0.4 -0.8 0.8 0 0.7 0.3Z" fill="#ffffff"></path></g><g transform="translate(631 138)"><path d="M1.1 0.7C0.5 1.8 -1.8 2.1 -2.2 1.1C-2.7 0.1 -1.3 -2.2 -0.2 -2.3C0.9 -2.4 1.8 -0.4 1.1 0.7Z" fill="#ffffff"></path></g><g transform="translate(164 525)"><path d="M2.4 1.3C1.8 2.3 -0.7 2.1 -1.4 1C-2.1 -0.2 -1.1 -2.1 0.2 -2C1.4 -1.9 2.9 0.3 2.4 1.3Z" fill="#ffffff"></path></g><g transform="translate(443 637)"><path d="M1.1 1C0.5 1.8 -1.7 2 -2.1 1.4C-2.6 0.8 -1.3 -0.7 -0.2 -0.8C0.9 -1 1.8 0.3 1.1 1Z" fill="#ffffff"></path></g><g transform="translate(482 386)"><path d="M1.5 1.1C1 1.8 -1.1 1.8 -1.6 1.1C-2.1 0.4 -1.1 -1.1 0 -1.1C1 -1.1 2.1 0.3 1.5 1.1Z" fill="#ffffff"></path></g><g transform="translate(524 608)"><path d="M2.1 1.2C1.7 1.9 -0.3 1.6 -0.9 0.8C-1.6 0.1 -0.8 -1.2 0.2 -1C1.2 -0.9 2.4 0.6 2.1 1.2Z" fill="#ffffff"></path></g><g transform="translate(264 362)"><path d="M0.7 0.3C0.4 0.8 -0.5 0.9 -0.8 0.3C-1 -0.3 -0.5 -1.4 0 -1.5C0.5 -1.5 1 -0.3 0.7 0.3Z" fill="#ffffff"></path></g><g transform="translate(405 209)"><path d="M3.8 1.9C2.9 3.7 -1.1 3.4 -2.3 1.4C-3.5 -0.5 -1.7 -4 0.3 -3.9C2.3 -3.7 4.7 0.2 3.8 1.9Z" fill="#ffffff"></path></g><g transform="translate(292 109)"><path d="M2.1 1C0.6 3.8 -4.2 4.5 -5.1 2.1C-6 -0.4 -3 -5.9 -0.6 -6.3C1.8 -6.6 3.6 -1.8 2.1 1Z" fill="#ffffff"></path></g><g transform="translate(350 154)"><path d="M5.5 2.6C4.4 5 -1.1 4.4 -2.7 1.7C-4.3 -1 -2.2 -5.8 0.6 -5.4C3.3 -5.1 6.5 0.3 5.5 2.6Z" fill="#ffffff"></path></g><g transform="translate(144 315)"><path d="M1.4 0.6C1.1 1.4 -0.5 1.3 -0.9 0.4C-1.3 -0.4 -0.7 -2 0.1 -1.9C0.9 -1.8 1.7 -0.2 1.4 0.6Z" fill="#ffffff"></path></g><g transform="translate(217 181)"><path d="M0.7 0.4C0.4 0.8 -0.5 0.8 -0.7 0.4C-0.9 0.1 -0.5 -0.7 0 -0.7C0.4 -0.7 0.9 0.1 0.7 0.4Z" fill="#ffffff"></path></g><g transform="translate(109 655)"><path d="M3 1.7C2.4 2.9 -0.8 2.6 -1.7 1.2C-2.6 -0.1 -1.3 -2.5 0.3 -2.3C1.8 -2.2 3.7 0.5 3 1.7Z" fill="#ffffff"></path></g><g transform="translate(284 432)"><path d="M2 1.2C0.7 3.2 -3.3 3.7 -4.1 1.9C-4.8 0.1 -2.4 -4 -0.4 -4.3C1.6 -4.5 3.2 -0.9 2 1.2Z" fill="#ffffff"></path></g><g transform="translate(252 653)"><path d="M2.3 1.4C1.3 3.1 -2.3 3.3 -3.1 1.7C-4 0.1 -2 -3.3 -0.2 -3.4C1.7 -3.4 3.3 -0.3 2.3 1.4Z" fill="#ffffff"></path></g><g transform="translate(596 179)"><path d="M3.1 1.7C2.4 2.9 -0.7 2.6 -1.7 1.2C-2.6 -0.2 -1.3 -2.7 0.3 -2.6C1.9 -2.4 3.7 0.4 3.1 1.7Z" fill="#ffffff"></path></g><g transform="translate(247 7)"><path d="M1.4 0.5C0.1 3.1 -3.8 3.8 -4.5 1.5C-5.2 -0.7 -2.6 -5.8 -0.6 -6.2C1.4 -6.5 2.7 -2.1 1.4 0.5Z" fill="#ffffff"></path></g><g transform="translate(215 868)"><path d="M4.5 2.8C3.5 4.4 -1.2 3.9 -2.6 2.1C-4 0.3 -2 -2.8 0.4 -2.6C2.8 -2.4 5.6 1.2 4.5 2.8Z" fill="#ffffff"></path></g><g transform="translate(11 427)"><path d="M2.8 1.6C2.3 2.5 -0.4 2.1 -1.2 1.1C-2 0 -1 -1.7 0.3 -1.5C1.7 -1.4 3.3 0.8 2.8 1.6Z" fill="#ffffff"></path></g><g transform="translate(478 778)"><path d="M1.5 0.9C-0.2 3.7 -5 4.7 -5.8 2.4C-6.6 0 -3.3 -5.6 -0.9 -6.1C1.6 -6.6 3.1 -2 1.5 0.9Z" fill="#ffffff"></path></g><g transform="translate(36 96)"><path d="M0.8 0.6C0.5 1 -0.6 1 -0.9 0.6C-1.2 0.3 -0.6 -0.5 0 -0.5C0.6 -0.5 1.1 0.2 0.8 0.6Z" fill="#ffffff"></path></g><g transform="translate(578 820)"><path d="M1.7 1.1C1.2 1.8 -0.9 1.7 -1.4 1C-1.9 0.2 -1 -1.3 0.1 -1.2C1.1 -1.2 2.1 0.3 1.7 1.1Z" fill="#ffffff"></path></g><g transform="translate(96 720)"><path d="M2.6 2.3C1 4.3 -4.4 4.9 -5.4 3.3C-6.5 1.7 -3.2 -2.1 -0.6 -2.5C2.1 -2.8 4.2 0.4 2.6 2.3Z" fill="#ffffff"></path></g><g transform="translate(8 754)"><path d="M1 0.6C0.6 1.3 -0.9 1.3 -1.3 0.7C-1.6 0 -0.8 -1.4 -0.1 -1.4C0.7 -1.4 1.4 -0.1 1 0.6Z" fill="#ffffff"></path></g><g transform="translate(198 518)"><path d="M3.3 1.5C2.8 2.6 0.2 2 -0.8 0.6C-1.7 -0.8 -0.8 -3.1 0.5 -2.9C1.8 -2.6 3.7 0.3 3.3 1.5Z" fill="#ffffff"></path></g><g transform="translate(101 419)"><path d="M2.2 0.7C1.7 2.2 -0.8 2.1 -1.5 0.4C-2.2 -1.2 -1.1 -4.3 0.1 -4.2C1.4 -4.1 2.8 -0.9 2.2 0.7Z" fill="#ffffff"></path></g><g transform="translate(486 223)"><path d="M1.2 1.1C-0.3 3.2 -4.5 4.1 -5.1 2.5C-5.8 0.9 -2.9 -3.3 -0.8 -3.7C1.3 -4.2 2.6 -1 1.2 1.1Z" fill="#ffffff"></path></g><g transform="translate(385 90)"><path d="M0.7 0.4C0.4 1.1 -1 1.2 -1.2 0.6C-1.5 -0.1 -0.8 -1.5 -0.1 -1.6C0.6 -1.6 1.1 -0.3 0.7 0.4Z" fill="#ffffff"></path></g><g transform="translate(337 279)"><path d="M2.6 1.8C1.6 3.1 -2 3.1 -2.8 1.9C-3.7 0.6 -1.8 -1.9 -0.1 -1.9C1.7 -2 3.5 0.5 2.6 1.8Z" fill="#ffffff"></path></g><g transform="translate(321 424)"><path d="M0.5 0.6C0.1 1 -1.1 1.2 -1.4 0.9C-1.6 0.5 -0.8 -0.3 -0.2 -0.4C0.5 -0.5 0.9 0.1 0.5 0.6Z" fill="#ffffff"></path></g><g transform="translate(638 100)"><path d="M0.5 0.3C0.3 0.5 -0.2 0.4 -0.3 0.2C-0.4 0.1 -0.2 -0.2 0 -0.2C0.3 -0.2 0.6 0.1 0.5 0.3Z" fill="#ffffff"></path></g><g transform="translate(316 192)"><path d="M1.6 1.1C1.1 1.7 -0.8 1.7 -1.4 1C-1.9 0.3 -0.9 -1 0 -1C1 -1 2.1 0.4 1.6 1.1Z" fill="#ffffff"></path></g><g transform="translate(290 768)"><path d="M0.4 0.2C0.2 0.4 -0.3 0.4 -0.4 0.2C-0.5 0 -0.3 -0.5 0 -0.5C0.2 -0.5 0.5 0 0.4 0.2Z" fill="#ffffff"></path></g><g transform="translate(109 540)"><path d="M1.5 1.4C0.1 3.4 -4.4 4.3 -5.1 2.6C-5.9 1 -2.9 -3.1 -0.7 -3.5C1.5 -4 3 -0.7 1.5 1.4Z" fill="#ffffff"></path></g><g transform="translate(328 857)"><path d="M0.6 0.3C0.3 0.8 -0.6 0.8 -0.8 0.4C-1 0 -0.5 -0.9 0 -0.9C0.4 -0.9 0.8 -0.1 0.6 0.3Z" fill="#ffffff"></path></g><g transform="translate(627 2)"><path d="M0.7 0.5C0.5 0.9 -0.6 0.9 -0.9 0.5C-1.1 0 -0.6 -0.9 0 -0.9C0.5 -0.9 1 0 0.7 0.5Z" fill="#ffffff"></path></g><g transform="translate(144 822)"><path d="M2.2 1.8C1.4 2.7 -1.8 2.8 -2.5 1.9C-3.3 1.1 -1.6 -0.7 -0.1 -0.8C1.5 -0.8 3 0.9 2.2 1.8Z" fill="#ffffff"></path></g><g transform="translate(618 67)"><path d="M5 2.3C4.3 4.1 0 3.3 -1.4 1C-2.8 -1.2 -1.4 -4.8 0.7 -4.4C2.8 -4 5.7 0.5 5 2.3Z" fill="#ffffff"></path></g><g transform="translate(253 559)"><path d="M1.5 0.6C0.6 2.4 -2.3 2.7 -2.9 1.1C-3.5 -0.6 -1.7 -4.2 -0.3 -4.4C1.2 -4.5 2.4 -1.2 1.5 0.6Z" fill="#ffffff"></path></g><g transform="translate(86 838)"><path d="M2.1 1.4C1.4 2.3 -1.3 2.3 -1.9 1.3C-2.6 0.3 -1.3 -1.7 0 -1.6C1.4 -1.6 2.7 0.4 2.1 1.4Z" fill="#ffffff"></path></g><g transform="translate(145 203)"><path d="M3.6 1.8C2.7 3.7 -1.5 3.5 -2.6 1.4C-3.8 -0.6 -1.9 -4.4 0.2 -4.3C2.3 -4.2 4.5 -0.1 3.6 1.8Z" fill="#ffffff"></path></g><g transform="translate(197 332)"><path d="M1.9 0.9C1.6 1.7 -0.3 1.4 -0.8 0.5C-1.4 -0.5 -0.7 -2.1 0.2 -2C1.1 -1.9 2.2 0 1.9 0.9Z" fill="#ffffff"></path></g><g transform="translate(350 305)"><path d="M2.3 1C1.6 2.6 -1.4 2.6 -2.1 0.9C-2.9 -0.7 -1.5 -4 0 -4C1.5 -4 3.1 -0.7 2.3 1Z" fill="#ffffff"></path></g><g transform="translate(635 338)"><path d="M2.2 1C1.7 2.1 -0.6 1.9 -1.3 0.6C-2 -0.6 -1 -3 0.2 -2.9C1.4 -2.8 2.7 -0.2 2.2 1Z" fill="#ffffff"></path></g><g transform="translate(536 710)"><path d="M2.2 2.2C0.7 4 -4.4 4.8 -5.4 3.3C-6.3 1.8 -3.2 -1.9 -0.6 -2.2C1.9 -2.6 3.8 0.4 2.2 2.2Z" fill="#ffffff"></path></g><g transform="translate(91 882)"><path d="M0.5 0.2C0.4 0.4 -0.1 0.4 -0.2 0.2C-0.4 -0.1 -0.2 -0.5 0 -0.4C0.3 -0.4 0.6 0 0.5 0.2Z" fill="#ffffff"></path></g><g transform="translate(294 578)"><path d="M2.1 1.3C1.4 2.5 -1.5 2.6 -2.3 1.4C-3 0.2 -1.5 -2.2 0 -2.2C1.4 -2.2 2.9 0.1 2.1 1.3Z" fill="#ffffff"></path></g><g transform="translate(110 111)"><path d="M3.1 1.8C1.7 4.2 -3.3 4.5 -4.4 2.3C-5.5 0.1 -2.8 -4.7 -0.3 -4.8C2.2 -5 4.5 -0.5 3.1 1.8Z" fill="#ffffff"></path></g><g transform="translate(28 153)"><path d="M4.4 2.1C3.5 4 -0.8 3.4 -2.1 1.3C-3.4 -0.9 -1.7 -4.7 0.5 -4.4C2.6 -4.1 5.2 0.2 4.4 2.1Z" fill="#ffffff"></path></g><g transform="translate(112 763)"><path d="M0.5 0.3C0.3 0.5 -0.2 0.4 -0.3 0.2C-0.5 0 -0.2 -0.4 0 -0.4C0.3 -0.4 0.6 0.1 0.5 0.3Z" fill="#ffffff"></path></g><g transform="translate(520 476)"><path d="M0.9 0.7C0.5 1.2 -0.9 1.3 -1.2 0.8C-1.5 0.3 -0.8 -0.7 -0.1 -0.8C0.6 -0.8 1.3 0.1 0.9 0.7Z" fill="#ffffff"></path></g><g transform="translate(428 261)"><path d="M0.3 0.2C0.1 0.6 -0.7 0.7 -0.8 0.3C-1 -0.1 -0.5 -1 -0.1 -1C0.3 -1.1 0.6 -0.3 0.3 0.2Z" fill="#ffffff"></path></g><g transform="translate(123 792)"><path d="M0.3 0.3C0.2 0.4 -0.3 0.4 -0.4 0.3C-0.5 0.1 -0.3 -0.2 0 -0.2C0.2 -0.2 0.5 0.1 0.3 0.3Z" fill="#ffffff"></path></g><g transform="translate(412 678)"><path d="M3.1 1.6C2.4 2.9 -0.8 2.6 -1.7 1.1C-2.6 -0.4 -1.3 -3 0.3 -2.8C1.9 -2.7 3.7 0.3 3.1 1.6Z" fill="#ffffff"></path></g><g transform="translate(225 465)"><path d="M1.5 0.6C0.8 1.9 -1.4 2 -1.9 0.8C-2.5 -0.5 -1.2 -3.1 -0.1 -3.1C1 -3.2 2.1 -0.7 1.5 0.6Z" fill="#ffffff"></path></g><g transform="translate(160 566)"><path d="M0.8 0.3C0.4 1.1 -0.9 1.2 -1.2 0.4C-1.5 -0.4 -0.8 -2 -0.1 -2.1C0.6 -2.1 1.2 -0.5 0.8 0.3Z" fill="#ffffff"></path></g><g transform="translate(213 803)"><path d="M0.5 0.2C0.4 0.4 0 0.3 -0.2 0.1C-0.3 -0.1 -0.2 -0.5 0.1 -0.5C0.3 -0.5 0.5 0 0.5 0.2Z" fill="#ffffff"></path></g><g transform="translate(329 112)"><path d="M0.6 0.2C0.4 0.7 -0.4 0.7 -0.6 0.2C-0.8 -0.3 -0.4 -1.3 0 -1.3C0.4 -1.3 0.8 -0.3 0.6 0.2Z" fill="#ffffff"></path></g><g transform="translate(428 9)"><path d="M1.5 0.9C0.4 2.9 -3.2 3.4 -3.9 1.7C-4.6 0 -2.3 -4 -0.5 -4.3C1.3 -4.6 2.7 -1.1 1.5 0.9Z" fill="#ffffff"></path></g><g transform="translate(100 182)"><path d="M0.7 0.5C0.2 1.2 -1.2 1.3 -1.5 0.8C-1.8 0.2 -0.9 -1.2 -0.2 -1.2C0.6 -1.3 1.1 -0.2 0.7 0.5Z" fill="#ffffff"></path></g><g transform="translate(5 601)"><path d="M2.1 0.9C1.3 2.7 -1.8 2.7 -2.5 1C-3.3 -0.7 -1.6 -4.3 -0.1 -4.4C1.5 -4.4 3 -0.9 2.1 0.9Z" fill="#ffffff"></path></g><g transform="translate(36 872)"><path d="M3.1 2C2.2 3.3 -1.6 3.2 -2.6 1.8C-3.5 0.4 -1.8 -2.4 0.1 -2.3C2 -2.2 4 0.6 3.1 2Z" fill="#ffffff"></path></g><g transform="translate(390 541)"><path d="M0.3 0.2C0.1 0.4 -0.4 0.4 -0.5 0.2C-0.6 0 -0.3 -0.4 0 -0.4C0.2 -0.5 0.4 -0.1 0.3 0.2Z" fill="#ffffff"></path></g><g transform="translate(51 282)"><path d="M1.7 1C0.6 2.9 -3 3.4 -3.7 1.7C-4.5 0.1 -2.2 -3.7 -0.4 -4C1.4 -4.2 2.8 -0.9 1.7 1Z" fill="#ffffff"></path></g><g transform="translate(375 431)"><path d="M1.8 1.1C1.1 2.2 -1.4 2.2 -2 1.2C-2.6 0.1 -1.3 -2.1 -0.1 -2.1C1.2 -2.1 2.4 0 1.8 1.1Z" fill="#ffffff"></path></g><g transform="translate(406 732)"><path d="M0.4 0.2C0.2 0.5 -0.5 0.6 -0.6 0.2C-0.8 -0.1 -0.4 -0.9 0 -0.9C0.3 -0.9 0.6 -0.2 0.4 0.2Z" fill="#ffffff"></path></g><g transform="translate(594 769)"><path d="M0.7 0.3C-0.1 1.7 -2.3 2.1 -2.6 1C-3 -0.2 -1.5 -3 -0.4 -3.2C0.7 -3.4 1.4 -1.1 0.7 0.3Z" fill="#ffffff"></path></g><g transform="translate(338 376)"><path d="M4.6 3.2C3.2 5.1 -2.6 5 -4.1 3.1C-5.6 1.1 -2.8 -2.6 0.1 -2.5C3 -2.5 6 1.4 4.6 3.2Z" fill="#ffffff"></path></g><g transform="translate(136 439)"><path d="M4.6 3.2C2.9 5.7 -3.8 5.8 -5.3 3.4C-6.9 1.1 -3.5 -3.9 -0.1 -4C3.2 -4 6.3 0.7 4.6 3.2Z" fill="#ffffff"></path></g><g transform="translate(55 58)"><path d="M3.3 2.1C2.2 3.9 -2.3 3.9 -3.5 2.1C-4.6 0.4 -2.3 -3.3 0 -3.3C2.2 -3.3 4.5 0.3 3.3 2.1Z" fill="#ffffff"></path></g><g transform="translate(573 382)"><path d="M0.3 0.2C0 0.5 -0.6 0.6 -0.7 0.4C-0.8 0.2 -0.4 -0.3 -0.1 -0.4C0.2 -0.5 0.5 0 0.3 0.2Z" fill="#ffffff"></path></g><g transform="translate(196 363)"><path d="M1.3 0.4C0.1 2.9 -3.6 3.5 -4.3 1.4C-4.9 -0.7 -2.4 -5.5 -0.6 -5.9C1.3 -6.2 2.5 -2 1.3 0.4Z" fill="#ffffff"></path></g><g transform="translate(236 715)"><path d="M0.4 0.3C0.1 0.7 -0.8 0.9 -0.9 0.5C-1.1 0.2 -0.6 -0.6 -0.1 -0.7C0.4 -0.8 0.7 -0.1 0.4 0.3Z" fill="#ffffff"></path></g><g transform="translate(567 42)"><path d="M1.2 0.5C0.3 2.2 -2.4 2.6 -2.9 1.1C-3.4 -0.3 -1.7 -3.6 -0.4 -3.8C1 -4 2 -1.1 1.2 0.5Z" fill="#ffffff"></path></g><g transform="translate(583 847)"><path d="M1 0.8C0.4 1.6 -1.5 1.8 -1.9 1.2C-2.3 0.5 -1.2 -0.9 -0.2 -1C0.8 -1.2 1.6 0.1 1 0.8Z" fill="#ffffff"></path></g><g transform="translate(268 267)"><path d="M1.3 0.8C0.9 1.4 -0.8 1.4 -1.2 0.8C-1.6 0.2 -0.8 -1 0 -1C0.8 -1 1.7 0.2 1.3 0.8Z" fill="#ffffff"></path></g><g transform="translate(578 274)"><path d="M3.7 1.8C2.8 3.6 -1.2 3.3 -2.3 1.3C-3.4 -0.7 -1.7 -4.4 0.3 -4.3C2.3 -4.1 4.6 -0.1 3.7 1.8Z" fill="#ffffff"></path></g><g transform="translate(383 60)"><path d="M0.8 0.5C0.5 1 -0.6 1 -0.9 0.5C-1.2 0 -0.6 -1 0 -1C0.6 -1 1.1 0 0.8 0.5Z" fill="#ffffff"></path></g><g transform="translate(36 524)"><path d="M1.2 0.3C0.3 2.3 -2.5 2.7 -3.1 0.9C-3.6 -0.8 -1.8 -4.7 -0.4 -4.9C1.1 -5.2 2.1 -1.7 1.2 0.3Z" fill="#ffffff"></path></g><g transform="translate(633 199)"><path d="M1.6 1.6C0.1 3.5 -4.5 4.3 -5.2 2.9C-6 1.5 -3 -2.3 -0.7 -2.7C1.5 -3.1 3.1 -0.2 1.6 1.6Z" fill="#ffffff"></path></g><g transform="translate(552 734)"><path d="M3.3 2C2 4.4 -3.2 4.6 -4.4 2.3C-5.6 0 -2.8 -4.8 -0.2 -4.9C2.4 -5 4.7 -0.4 3.3 2Z" fill="#ffffff"></path></g><g transform="translate(99 25)"><path d="M2.1 1.2C1.6 2.1 -0.7 1.9 -1.4 0.9C-2 -0.2 -1 -2.1 0.2 -2C1.3 -1.9 2.7 0.2 2.1 1.2Z" fill="#ffffff"></path></g><g transform="translate(169 649)"><path d="M1.8 0.8C1.2 2.1 -1.2 2.1 -1.8 0.8C-2.4 -0.6 -1.2 -3.2 0 -3.2C1.2 -3.2 2.4 -0.6 1.8 0.8Z" fill="#ffffff"></path></g><g transform="translate(256 597)"><path d="M1.5 0.7C1 1.9 -1.2 1.9 -1.7 0.8C-2.3 -0.3 -1.1 -2.6 0 -2.6C1 -2.6 2.1 -0.4 1.5 0.7Z" fill="#ffffff"></path></g><g transform="translate(426 612)"><path d="M2.9 2.2C2 3.2 -1.6 3.1 -2.5 2C-3.4 1 -1.7 -1.1 0.1 -1C1.9 -1 3.8 1.1 2.9 2.2Z" fill="#ffffff"></path></g><g transform="translate(508 378)"><path d="M0.4 0.2C0.3 0.4 -0.1 0.3 -0.2 0.1C-0.3 -0.1 -0.2 -0.5 0 -0.4C0.2 -0.4 0.5 0 0.4 0.2Z" fill="#ffffff"></path></g><g transform="translate(238 428)"><path d="M1.8 0.8C1.4 1.6 -0.3 1.4 -0.8 0.5C-1.3 -0.4 -0.7 -2 0.2 -1.8C1.1 -1.7 2.1 0 1.8 0.8Z" fill="#ffffff"></path></g><g transform="translate(65 650)"><path d="M1.5 1.1C0.6 2.6 -2.6 2.9 -3.2 1.7C-3.8 0.5 -1.9 -2.3 -0.3 -2.5C1.2 -2.7 2.5 -0.3 1.5 1.1Z" fill="#ffffff"></path></g><g transform="translate(288 482)"><path d="M2.1 1C1.3 2.6 -1.7 2.7 -2.5 1.2C-3.2 -0.4 -1.6 -3.5 -0.1 -3.5C1.4 -3.6 2.9 -0.5 2.1 1Z" fill="#ffffff"></path></g><g transform="translate(582 678)"><path d="M2.2 1.4C1.3 2.8 -2 2.9 -2.7 1.6C-3.5 0.3 -1.7 -2.3 -0.1 -2.4C1.5 -2.5 3.1 0.1 2.2 1.4Z" fill="#ffffff"></path></g><g transform="translate(131 365)"><path d="M0.3 0.2C0.2 0.4 -0.2 0.4 -0.3 0.2C-0.4 0 -0.2 -0.3 0 -0.3C0.2 -0.3 0.4 0 0.3 0.2Z" fill="#ffffff"></path></g><g transform="translate(548 881)"><path d="M4.8 3.5C3.1 5.6 -3.3 5.6 -4.9 3.5C-6.5 1.4 -3.3 -2.9 0 -2.9C3.2 -2.9 6.4 1.3 4.8 3.5Z" fill="#ffffff"></path></g><g transform="translate(178 233)"><path d="M4.4 1.9C3.7 3.8 -0.3 3.2 -1.6 0.9C-2.9 -1.3 -1.5 -5.2 0.6 -4.9C2.6 -4.5 5.2 0 4.4 1.9Z" fill="#ffffff"></path></g><g transform="translate(461 157)"><path d="M3.5 1.6C2.6 3.7 -1.6 3.5 -2.7 1.3C-3.9 -0.9 -1.9 -5 0.2 -4.9C2.2 -4.9 4.5 -0.5 3.5 1.6Z" fill="#ffffff"></path></g><g transform="translate(369 562)"><path d="M3 2C2.4 2.8 -0.7 2.5 -1.6 1.5C-2.5 0.5 -1.2 -1.2 0.3 -1C1.8 -0.9 3.6 1.1 3 2Z" fill="#ffffff"></path></g><g transform="translate(521 436)"><path d="M3.4 2.3C2.5 3.7 -1.7 3.5 -2.8 2.1C-3.9 0.6 -1.9 -2.1 0.1 -2C2.2 -2 4.4 0.9 3.4 2.3Z" fill="#ffffff"></path></g><g transform="translate(166 720)"><path d="M3.1 2.2C1.9 3.9 -2.7 4.1 -3.8 2.5C-4.9 0.8 -2.5 -2.6 -0.1 -2.7C2.2 -2.8 4.4 0.5 3.1 2.2Z" fill="#ffffff"></path></g><g transform="translate(168 448)"><path d="M0.6 0.3C0.5 0.6 -0.2 0.6 -0.4 0.3C-0.6 -0.1 -0.3 -0.7 0 -0.7C0.4 -0.6 0.8 0 0.6 0.3Z" fill="#ffffff"></path></g><g transform="translate(199 127)"><path d="M4.8 2.2C4.1 4 -0.1 3.2 -1.4 1C-2.8 -1.2 -1.4 -4.8 0.7 -4.4C2.8 -4 5.5 0.4 4.8 2.2Z" fill="#ffffff"></path></g><g transform="translate(510 743)"><path d="M1.1 0.6C0.4 1.7 -1.7 2 -2.1 0.9C-2.6 -0.1 -1.3 -2.5 -0.2 -2.6C0.9 -2.7 1.7 -0.6 1.1 0.6Z" fill="#ffffff"></path></g><g transform="translate(102 291)"><path d="M2 0.9C1.6 1.8 -0.4 1.6 -1 0.6C-1.6 -0.5 -0.8 -2.3 0.2 -2.2C1.2 -2.1 2.4 0 2 0.9Z" fill="#ffffff"></path></g><g transform="translate(130 636)"><path d="M1.5 0.3C0.9 1.7 -1.1 1.8 -1.6 0.4C-2.1 -1 -1 -3.9 0 -3.9C1 -3.9 2 -1.1 1.5 0.3Z" fill="#ffffff"></path></g><g transform="translate(558 316)"><path d="M1.1 0.5C0.6 1.4 -1.1 1.5 -1.5 0.7C-1.9 -0.2 -0.9 -2 -0.1 -2.1C0.8 -2.1 1.5 -0.4 1.1 0.5Z" fill="#ffffff"></path></g><g transform="translate(280 337)"><path d="M1.5 0.8C1.1 1.5 -0.6 1.4 -1.1 0.6C-1.6 -0.1 -0.8 -1.6 0.1 -1.6C0.9 -1.5 1.9 0 1.5 0.8Z" fill="#ffffff"></path></g><g transform="translate(427 849)"><path d="M3.6 2.2C2.8 3.5 -1 3.1 -2.1 1.7C-3.2 0.3 -1.6 -2.2 0.3 -2C2.2 -1.8 4.4 1 3.6 2.2Z" fill="#ffffff"></path></g><g transform="translate(478 816)"><path d="M4.3 2.3C3.5 3.8 -0.6 3.2 -1.8 1.5C-3.1 -0.3 -1.5 -3.3 0.5 -3C2.5 -2.7 5.1 0.8 4.3 2.3Z" fill="#ffffff"></path></g><g transform="translate(198 603)"><path d="M0.9 0.7C-0.5 2.9 -4.3 3.8 -4.9 2.1C-5.4 0.4 -2.7 -3.8 -0.8 -4.3C1.1 -4.7 2.3 -1.4 0.9 0.7Z" fill="#ffffff"></path></g><g transform="translate(539 265)"><path d="M2.8 1.3C2.2 2.6 -0.6 2.3 -1.4 0.8C-2.2 -0.7 -1.1 -3.3 0.3 -3.2C1.7 -3 3.4 -0.1 2.8 1.3Z" fill="#ffffff"></path></g><g transform="translate(353 124)"><path d="M2.5 1C1.9 2.4 -0.7 2.1 -1.4 0.6C-2.2 -0.9 -1.1 -3.8 0.2 -3.7C1.5 -3.6 3 -0.5 2.5 1Z" fill="#ffffff"></path></g><g transform="translate(237 54)"><path d="M1.1 0.6C0.8 1.2 -0.6 1.2 -1 0.6C-1.3 0 -0.7 -1.2 0 -1.2C0.7 -1.2 1.4 0 1.1 0.6Z" fill="#ffffff"></path></g><g transform="translate(348 183)"><path d="M1.3 1C0.9 1.5 -0.8 1.5 -1.2 0.9C-1.7 0.4 -0.8 -0.6 0 -0.6C0.9 -0.6 1.8 0.5 1.3 1Z" fill="#ffffff"></path></g><g transform="translate(409 325)"><path d="M0.3 0.1C0.1 0.6 -0.7 0.7 -0.8 0.3C-0.9 -0.1 -0.5 -0.9 -0.1 -1C0.3 -1.1 0.5 -0.3 0.3 0.1Z" fill="#ffffff"></path></g><g transform="translate(157 4)"><path d="M0.2 0.1C0.1 0.3 -0.3 0.3 -0.3 0.1C-0.4 -0.1 -0.2 -0.5 0 -0.5C0.1 -0.5 0.3 -0.2 0.2 0.1Z" fill="#ffffff"></path></g><g transform="translate(401 600)"><path d="M1.8 1.2C1.5 1.7 -0.4 1.5 -0.9 0.9C-1.5 0.3 -0.7 -0.6 0.2 -0.5C1.1 -0.4 2.2 0.8 1.8 1.2Z" fill="#ffffff"></path></g><g transform="translate(573 520)"><path d="M1.6 0.7C1.1 1.7 -0.9 1.7 -1.4 0.6C-1.9 -0.4 -1 -2.5 0 -2.5C1 -2.5 2 -0.4 1.6 0.7Z" fill="#ffffff"></path></g><g transform="translate(192 709)"><path d="M1.7 0.8C1 2.2 -1.6 2.3 -2.2 0.9C-2.8 -0.5 -1.4 -3.4 -0.1 -3.4C1.2 -3.5 2.4 -0.7 1.7 0.8Z" fill="#ffffff"></path></g><g transform="translate(366 707)"><path d="M1.8 0.9C1.5 1.6 -0.3 1.4 -0.9 0.6C-1.4 -0.2 -0.7 -1.6 0.2 -1.5C1.1 -1.4 2.2 0.2 1.8 0.9Z" fill="#ffffff"></path></g><g transform="translate(617 468)"><path d="M1.8 1.7C0.3 3.7 -4.4 4.5 -5.3 2.9C-6.1 1.4 -3.1 -2.6 -0.7 -3C1.7 -3.4 3.3 -0.3 1.8 1.7Z" fill="#ffffff"></path></g><g transform="translate(554 848)"><path d="M0.7 0.5C0.4 1.1 -0.9 1.2 -1.2 0.7C-1.5 0.2 -0.8 -0.9 -0.1 -1C0.6 -1 1.1 0 0.7 0.5Z" fill="#ffffff"></path></g><g transform="translate(280 393)"><path d="M1 0.2C0.4 1.6 -1.6 1.9 -2 0.6C-2.4 -0.8 -1.2 -3.6 -0.2 -3.7C0.8 -3.9 1.6 -1.2 1 0.2Z" fill="#ffffff"></path></g><g transform="translate(29 386)"><path d="M0.8 0.5C0.4 1.1 -0.9 1.2 -1.2 0.6C-1.5 0.1 -0.7 -1.1 -0.1 -1.1C0.6 -1.2 1.1 -0.1 0.8 0.5Z" fill="#ffffff"></path></g><g transform="translate(494 571)"><path d="M1.8 0.8C1.4 1.6 -0.2 1.3 -0.7 0.4C-1.2 -0.5 -0.6 -2.1 0.2 -2C1 -1.9 2.1 -0.1 1.8 0.8Z" fill="#ffffff"></path></g><g transform="translate(385 246)"><path d="M2.7 1.5C2.2 2.5 -0.6 2.2 -1.4 1C-2.2 -0.2 -1.1 -2.3 0.3 -2.1C1.6 -2 3.3 0.4 2.7 1.5Z" fill="#ffffff"></path></g><g transform="translate(213 8)"><path d="M0.7 0.5C0.5 0.8 -0.5 0.8 -0.7 0.5C-1 0.1 -0.5 -0.6 0 -0.6C0.5 -0.6 1 0.1 0.7 0.5Z" fill="#ffffff"></path></g><g transform="translate(204 547)"><path d="M3.2 2C1.8 4.3 -3.3 4.6 -4.5 2.4C-5.6 0.3 -2.8 -4.3 -0.3 -4.5C2.3 -4.6 4.6 -0.3 3.2 2Z" fill="#ffffff"></path></g><g transform="translate(468 190)"><path d="M1.1 0.7C0.8 1.1 -0.4 1 -0.7 0.6C-1.1 0.2 -0.5 -0.6 0.1 -0.6C0.7 -0.5 1.4 0.3 1.1 0.7Z" fill="#ffffff"></path></g><g transform="translate(612 115)"><path d="M1.3 0.7C1.1 1.2 -0.3 1.1 -0.7 0.5C-1.1 -0.2 -0.5 -1.3 0.1 -1.2C0.8 -1.1 1.6 0.1 1.3 0.7Z" fill="#ffffff"></path></g><g transform="translate(25 663)"><path d="M0.5 0.5C0.3 0.8 -0.7 0.9 -0.9 0.6C-1.1 0.3 -0.6 -0.3 -0.1 -0.3C0.4 -0.4 0.8 0.2 0.5 0.5Z" fill="#ffffff"></path></g><g transform="translate(227 589)"><path d="M0.4 0.3C0.3 0.4 -0.1 0.4 -0.3 0.2C-0.4 0.1 -0.2 -0.2 0 -0.2C0.2 -0.2 0.5 0.1 0.4 0.3Z" fill="#ffffff"></path></g><g transform="translate(183 64)"><path d="M0.7 0.4C0.4 0.9 -0.7 1 -0.9 0.4C-1.2 -0.1 -0.6 -1.1 0 -1.2C0.5 -1.2 1 -0.2 0.7 0.4Z" fill="#ffffff"></path></g><g transform="translate(540 184)"><path d="M1.7 1C1.2 1.9 -1 1.9 -1.6 0.9C-2.2 0 -1.1 -1.9 0 -1.9C1.1 -1.9 2.2 0 1.7 1Z" fill="#ffffff"></path></g><g transform="translate(376 860)"><path d="M1.6 1.7C0.3 3.3 -4 4 -4.7 2.8C-5.5 1.6 -2.7 -1.6 -0.6 -1.9C1.5 -2.3 3 0.2 1.6 1.7Z" fill="#ffffff"></path></g><g transform="translate(260 233)"><path d="M0.7 0.3C0.4 0.9 -0.8 1 -1 0.4C-1.3 -0.2 -0.6 -1.5 -0.1 -1.5C0.5 -1.6 1 -0.4 0.7 0.3Z" fill="#ffffff"></path></g><g transform="translate(230 622)"><path d="M2.3 1.8C1.2 3.2 -2.7 3.5 -3.6 2.2C-4.4 0.9 -2.2 -2 -0.3 -2.2C1.7 -2.3 3.4 0.3 2.3 1.8Z" fill="#ffffff"></path></g><g transform="translate(365 650)"><path d="M2.9 2C1.6 3.9 -3.1 4.2 -4.1 2.4C-5.2 0.6 -2.6 -3.3 -0.2 -3.5C2.1 -3.6 4.2 0 2.9 2Z" fill="#ffffff"></path></g><g transform="translate(306 278)"><path d="M1.6 1C0.2 3.3 -4.1 4.1 -4.8 2.2C-5.6 0.2 -2.8 -4.3 -0.6 -4.7C1.5 -5.1 3 -1.2 1.6 1Z" fill="#ffffff"></path></g><g transform="translate(440 421)"><path d="M2.6 1.8C1.6 3.2 -2.2 3.3 -3.1 2C-4 0.7 -2 -2.1 -0.1 -2.1C1.8 -2.2 3.6 0.4 2.6 1.8Z" fill="#ffffff"></path></g><g transform="translate(434 73)"><path d="M1.3 0.6C0.7 1.7 -1.4 1.9 -1.9 0.8C-2.3 -0.3 -1.2 -2.6 -0.1 -2.7C0.9 -2.7 1.9 -0.6 1.3 0.6Z" fill="#ffffff"></path></g><g transform="translate(235 121)"><path d="M1.7 1C1.3 1.6 -0.5 1.5 -1.1 0.8C-1.6 0.1 -0.8 -1.3 0.1 -1.2C1 -1.1 2.1 0.3 1.7 1Z" fill="#ffffff"></path></g><g transform="translate(149 51)"><path d="M3.4 1.8C2.1 4.3 -3 4.4 -4.1 2.1C-5.3 -0.3 -2.7 -5.1 -0.2 -5.2C2.4 -5.3 4.7 -0.6 3.4 1.8Z" fill="#ffffff"></path></g><g transform="translate(612 265)"><path d="M5.2 3.8C3.5 5.9 -3.3 5.9 -5 3.8C-6.7 1.7 -3.4 -2.5 0 -2.5C3.4 -2.5 6.9 1.7 5.2 3.8Z" fill="#ffffff"></path></g><g transform="translate(274 806)"><path d="M2.6 2C1.3 3.8 -3.3 4.2 -4.3 2.6C-5.3 1 -2.6 -2.6 -0.3 -2.8C2 -2.9 4 0.2 2.6 2Z" fill="#ffffff"></path></g><g transform="translate(41 759)"><path d="M2 1C1.6 2 -0.6 1.8 -1.2 0.7C-1.9 -0.4 -0.9 -2.3 0.2 -2.2C1.3 -2.2 2.5 0 2 1Z" fill="#ffffff"></path></g><g transform="translate(624 732)"><path d="M0.5 0.2C0.3 0.6 -0.4 0.7 -0.6 0.3C-0.8 -0.1 -0.4 -0.9 0 -0.9C0.4 -0.9 0.7 -0.2 0.5 0.2Z" fill="#ffffff"></path></g><g transform="translate(420 796)"><path d="M3.2 1.8C2.2 3.6 -1.9 3.6 -3 1.7C-4.1 -0.1 -2 -3.7 0 -3.7C2.1 -3.7 4.3 0 3.2 1.8Z" fill="#ffffff"></path></g><g transform="translate(352 71)"><path d="M1.2 0.8C0.5 1.8 -1.8 2.1 -2.2 1.2C-2.7 0.3 -1.4 -1.7 -0.2 -1.8C0.9 -2 1.8 -0.2 1.2 0.8Z" fill="#ffffff"></path></g><g transform="translate(210 37)"><path d="M5.2 3.3C4.3 4.6 -0.7 3.9 -2.2 2.3C-3.8 0.6 -1.9 -2.1 0.6 -1.7C3.1 -1.4 6.2 2 5.2 3.3Z" fill="#ffffff"></path></g><g transform="translate(327 604)"><path d="M5.7 2.5C4.8 4.9 -0.3 4 -2 1.2C-3.7 -1.6 -1.8 -6.4 0.7 -5.9C3.3 -5.5 6.6 0.1 5.7 2.5Z" fill="#ffffff"></path></g><g transform="translate(395 514)"><path d="M1.4 0.6C1 1.4 -0.5 1.3 -0.9 0.4C-1.4 -0.5 -0.7 -2.2 0.1 -2.1C0.9 -2.1 1.7 -0.3 1.4 0.6Z" fill="#ffffff"></path></g><g transform="translate(215 96)"><path d="M1 0.9C0.5 1.5 -1.4 1.7 -1.7 1.1C-2.1 0.6 -1.1 -0.6 -0.1 -0.7C0.8 -0.8 1.5 0.3 1 0.9Z" fill="#ffffff"></path></g><g transform="translate(246 88)"><path d="M1.4 0.7C0.2 2.9 -3.5 3.6 -4.2 1.6C-4.8 -0.4 -2.4 -4.9 -0.5 -5.2C1.3 -5.5 2.6 -1.6 1.4 0.7Z" fill="#ffffff"></path></g><g transform="translate(407 565)"><path d="M0.5 0.4C0.3 0.7 -0.6 0.7 -0.7 0.5C-0.9 0.2 -0.5 -0.4 0 -0.4C0.4 -0.5 0.7 0.1 0.5 0.4Z" fill="#ffffff"></path></g><g transform="translate(607 41)"><path d="M2 1.1C1.4 2.2 -1.1 2.1 -1.8 1C-2.4 -0.1 -1.2 -2.2 0 -2.2C1.3 -2.2 2.6 0 2 1.1Z" fill="#ffffff"></path></g><g transform="translate(444 374)"><path d="M1.6 0.8C1.2 1.6 -0.5 1.4 -1 0.6C-1.5 -0.1 -0.7 -1.6 0.1 -1.5C1 -1.4 2 0.1 1.6 0.8Z" fill="#ffffff"></path></g><g transform="translate(593 92)"><path d="M3.3 2.5C1.9 4.4 -3.3 4.7 -4.5 2.9C-5.7 1.1 -2.9 -2.7 -0.2 -2.9C2.4 -3 4.8 0.6 3.3 2.5Z" fill="#ffffff"></path></g><g transform="translate(372 15)"><path d="M1 0.4C0.8 0.9 -0.1 0.8 -0.4 0.2C-0.7 -0.4 -0.4 -1.5 0.1 -1.4C0.6 -1.4 1.2 -0.2 1 0.4Z" fill="#ffffff"></path></g><g transform="translate(393 630)"><path d="M3.4 2C2.7 3.1 -0.6 2.7 -1.6 1.4C-2.6 0.1 -1.3 -2.1 0.4 -1.9C2 -1.7 4 0.9 3.4 2Z" fill="#ffffff"></path></g><g transform="translate(617 538)"><path d="M2.4 1.8C1.4 3 -2.2 3.2 -3 2.1C-3.9 0.9 -1.9 -1.5 -0.1 -1.6C1.7 -1.7 3.3 0.6 2.4 1.8Z" fill="#ffffff"></path></g><g transform="translate(132 595)"><path d="M3.1 1.2C2.6 2.6 -0.1 2.1 -1 0.4C-1.9 -1.2 -0.9 -4.1 0.4 -3.8C1.8 -3.6 3.6 -0.3 3.1 1.2Z" fill="#ffffff"></path></g><g transform="translate(480 61)"><path d="M0.5 0.3C0.3 0.5 -0.3 0.5 -0.4 0.3C-0.6 0.1 -0.3 -0.4 0 -0.4C0.3 -0.4 0.6 0.1 0.5 0.3Z" fill="#ffffff"></path></g><g transform="translate(546 418)"><path d="M1.3 0.9C0.3 2.4 -2.7 2.9 -3.3 1.6C-3.9 0.3 -1.9 -2.8 -0.4 -3.1C1.1 -3.3 2.3 -0.7 1.3 0.9Z" fill="#ffffff"></path></g><g transform="translate(9 328)"><path d="M0.7 0.3C0.5 0.7 -0.2 0.6 -0.5 0.2C-0.7 -0.3 -0.3 -1.1 0.1 -1.1C0.4 -1.1 0.9 -0.2 0.7 0.3Z" fill="#ffffff"></path></g><g transform="translate(111 853)"><path d="M0.8 0.4C0.3 1.3 -1.3 1.5 -1.6 0.7C-2 -0.1 -1 -2 -0.2 -2.1C0.7 -2.2 1.3 -0.5 0.8 0.4Z" fill="#ffffff"></path></g><g transform="translate(5 237)"><path d="M0.8 0.5C0.7 0.8 -0.2 0.7 -0.5 0.3C-0.7 0 -0.4 -0.7 0.1 -0.6C0.5 -0.6 1 0.1 0.8 0.5Z" fill="#ffffff"></path></g><g transform="translate(5 35)"><path d="M2.9 1.6C2.3 2.6 -0.5 2.2 -1.3 1C-2.2 -0.1 -1.1 -2.2 0.3 -2C1.7 -1.8 3.4 0.6 2.9 1.6Z" fill="#ffffff"></path></g><g transform="translate(107 347)"><path d="M0.2 0C0.2 0.2 -0.1 0.2 -0.2 0C-0.3 -0.2 -0.1 -0.6 0 -0.6C0.1 -0.6 0.3 -0.2 0.2 0Z" fill="#ffffff"></path></g><g transform="translate(204 288)"><path d="M0.9 0.4C0.8 0.7 0 0.6 -0.2 0.2C-0.5 -0.2 -0.2 -0.9 0.1 -0.8C0.5 -0.7 1 0.1 0.9 0.4Z" fill="#ffffff"></path></g><g transform="translate(441 719)"><path d="M0.9 0.4C0.7 0.8 -0.1 0.7 -0.4 0.2C-0.6 -0.2 -0.3 -0.9 0.1 -0.8C0.5 -0.8 1 0 0.9 0.4Z" fill="#ffffff"></path></g><g transform="translate(52 122)"><path d="M1.5 0.6C0.8 2.1 -1.8 2.3 -2.3 0.9C-2.9 -0.5 -1.4 -3.4 -0.2 -3.5C1.1 -3.6 2.2 -0.8 1.5 0.6Z" fill="#ffffff"></path></g><g transform="translate(204 489)"><path d="M5.1 3.4C4 4.8 -1.3 4.3 -2.8 2.6C-4.3 1 -2.2 -1.8 0.5 -1.6C3.1 -1.3 6.2 2 5.1 3.4Z" fill="#ffffff"></path></g><g transform="translate(55 583)"><path d="M3.8 2C2.4 4.6 -3 4.8 -4.3 2.2C-5.6 -0.3 -2.8 -5.5 -0.1 -5.6C2.6 -5.7 5.2 -0.6 3.8 2Z" fill="#ffffff"></path></g><g transform="translate(536 343)"><path d="M0.2 0.1C0.1 0.3 -0.2 0.3 -0.2 0.2C-0.3 0 -0.2 -0.2 0 -0.2C0.2 -0.2 0.3 0 0.2 0.1Z" fill="#ffffff"></path></g><g transform="translate(444 503)"><path d="M0.3 0.2C0.1 0.5 -0.6 0.6 -0.7 0.4C-0.8 0.1 -0.4 -0.5 -0.1 -0.6C0.2 -0.6 0.5 -0.1 0.3 0.2Z" fill="#ffffff"></path></g><g transform="translate(478 269)"><path d="M2.5 1.5C1.8 2.5 -1 2.4 -1.8 1.3C-2.6 0.1 -1.3 -2 0.1 -1.9C1.6 -1.8 3.1 0.5 2.5 1.5Z" fill="#ffffff"></path></g><g transform="translate(261 157)"><path d="M4.3 2.3C3.7 3.5 0.1 2.8 -1.1 1.2C-2.4 -0.4 -1.2 -2.9 0.6 -2.5C2.5 -2.2 4.9 1 4.3 2.3Z" fill="#ffffff"></path></g><g transform="translate(5 828)"><path d="M2.9 1.2C2.2 2.9 -1 2.7 -1.9 0.9C-2.8 -0.9 -1.4 -4.3 0.2 -4.2C1.8 -4.1 3.6 -0.5 2.9 1.2Z" fill="#ffffff"></path></g><g transform="translate(292 858)"><path d="M0.3 0.2C-0.1 0.9 -1.3 1.2 -1.5 0.6C-1.7 0.1 -0.8 -1.3 -0.2 -1.4C0.4 -1.6 0.7 -0.5 0.3 0.2Z" fill="#ffffff"></path></g><g transform="translate(274 130)"><path d="M2.4 1.3C1.3 3.3 -2.6 3.5 -3.5 1.7C-4.4 -0.1 -2.2 -4 -0.2 -4.2C1.7 -4.3 3.5 -0.6 2.4 1.3Z" fill="#ffffff"></path></g><g transform="translate(483 648)"><path d="M0.9 0.4C0.8 0.8 -0.1 0.7 -0.4 0.2C-0.6 -0.3 -0.3 -1.1 0.1 -1C0.6 -0.9 1.1 0 0.9 0.4Z" fill="#ffffff"></path></g><g transform="translate(93 685)"><path d="M1 1.2C-0.4 2.9 -4.3 3.8 -4.9 2.5C-5.4 1.2 -2.7 -2.3 -0.8 -2.7C1.2 -3.2 2.3 -0.6 1 1.2Z" fill="#ffffff"></path></g><g transform="translate(637 438)"><path d="M3 2C2.3 3 -1.1 2.8 -2 1.7C-3 0.6 -1.5 -1.4 0.2 -1.3C1.9 -1.2 3.8 1 3 2Z" fill="#ffffff"></path></g><g transform="translate(61 798)"><path d="M1 0.5C0.8 1 -0.4 0.9 -0.7 0.4C-1 -0.1 -0.5 -1.1 0.1 -1C0.6 -1 1.2 0.1 1 0.5Z" fill="#ffffff"></path></g><g transform="translate(341 211)"><path d="M4 2.3C2.7 4.6 -2.6 4.6 -3.9 2.3C-5.3 0 -2.6 -4.6 0 -4.6C2.7 -4.6 5.4 0 4 2.3Z" fill="#ffffff"></path></g><g transform="translate(276 617)"><path d="M0.9 0.4C0.5 1.1 -0.8 1.1 -1.1 0.5C-1.4 -0.2 -0.7 -1.6 0 -1.6C0.6 -1.7 1.2 -0.3 0.9 0.4Z" fill="#ffffff"></path></g><g transform="translate(313 339)"><path d="M4.3 1.8C3.6 3.8 -0.5 3.2 -1.8 0.9C-3.1 -1.4 -1.5 -5.4 0.5 -5.1C2.5 -4.8 5.1 -0.2 4.3 1.8Z" fill="#ffffff"></path></g><g transform="translate(215 685)"><path d="M1.2 0.6C1.1 1 0 0.8 -0.3 0.3C-0.7 -0.2 -0.3 -1 0.2 -0.9C0.7 -0.8 1.4 0.2 1.2 0.6Z" fill="#ffffff"></path></g><g transform="translate(156 387)"><path d="M0.6 0.3C0.2 1 -1 1.1 -1.2 0.5C-1.5 0 -0.7 -1.3 -0.1 -1.4C0.5 -1.5 0.9 -0.4 0.6 0.3Z" fill="#ffffff"></path></g><g transform="translate(376 328)"><path d="M0.1 0.1C0 0.3 -0.3 0.3 -0.4 0.2C-0.4 0 -0.2 -0.4 -0.1 -0.4C0.1 -0.4 0.2 -0.1 0.1 0.1Z" fill="#ffffff"></path></g><g transform="translate(544 381)"><path d="M3.2 2C2 3.9 -2.5 4 -3.6 2.1C-4.8 0.2 -2.4 -3.6 -0.1 -3.7C2.2 -3.7 4.4 0 3.2 2Z" fill="#ffffff"></path></g><g transform="translate(332 518)"><path d="M1.6 1.1C0.6 2.7 -2.7 3.1 -3.4 1.7C-4 0.3 -2 -2.9 -0.3 -3.1C1.3 -3.3 2.7 -0.5 1.6 1.1Z" fill="#ffffff"></path></g><g transform="translate(624 692)"><path d="M3.6 2.2C2.5 3.9 -1.9 3.7 -3 2C-4.2 0.4 -2.1 -2.9 0.1 -2.8C2.3 -2.8 4.6 0.6 3.6 2.2Z" fill="#ffffff"></path></g><g transform="translate(580 721)"><path d="M2.2 1.7C0.6 4 -4.4 4.7 -5.3 2.8C-6.3 0.8 -3.1 -3.8 -0.6 -4.1C1.9 -4.5 3.7 -0.6 2.2 1.7Z" fill="#ffffff"></path></g><g transform="translate(331 888)"><path d="M2.1 1.4C1.6 2.1 -0.8 2 -1.4 1.2C-2.1 0.3 -1 -1.1 0.1 -1C1.3 -1 2.7 0.7 2.1 1.4Z" fill="#ffffff"></path></g><g transform="translate(525 305)"><path d="M4.2 3.1C2.9 4.8 -2.6 4.7 -4 3C-5.4 1.3 -2.7 -2.1 0.1 -2.1C2.8 -2 5.6 1.4 4.2 3.1Z" fill="#ffffff"></path></g><g transform="translate(325 667)"><path d="M1.3 1C0.6 1.9 -1.7 2.1 -2.2 1.4C-2.7 0.6 -1.3 -1.1 -0.2 -1.3C1 -1.4 2 0.2 1.3 1Z" fill="#ffffff"></path></g><g transform="translate(173 311)"><path d="M3 2C2.3 3.1 -1.2 2.9 -2.2 1.7C-3.1 0.5 -1.6 -1.7 0.2 -1.6C1.9 -1.5 3.8 0.9 3 2Z" fill="#ffffff"></path></g><g transform="translate(20 494)"><path d="M2.3 1.3C1.9 2.1 -0.3 1.7 -0.9 0.8C-1.6 -0.1 -0.8 -1.7 0.3 -1.6C1.4 -1.4 2.7 0.5 2.3 1.3Z" fill="#ffffff"></path></g><g transform="translate(210 252)"><path d="M4.9 2.4C3.9 4.5 -0.9 3.9 -2.3 1.6C-3.8 -0.7 -1.9 -4.7 0.5 -4.4C2.9 -4.1 5.8 0.4 4.9 2.4Z" fill="#ffffff"></path></g><g transform="translate(146 161)"><path d="M0.2 0.1C0.1 0.2 -0.2 0.3 -0.2 0.1C-0.3 0 -0.2 -0.3 0 -0.3C0.1 -0.3 0.3 0 0.2 0.1Z" fill="#ffffff"></path></g><g transform="translate(325 21)"><path d="M3.6 1.7C2.5 4 -2.1 3.9 -3.2 1.6C-4.4 -0.7 -2.2 -5.2 0.1 -5.2C2.3 -5.2 4.7 -0.6 3.6 1.7Z" fill="#ffffff"></path></g><g transform="translate(238 258)"><path d="M1 0.6C0.6 1.4 -1 1.4 -1.4 0.7C-1.7 0 -0.9 -1.6 -0.1 -1.6C0.7 -1.6 1.5 -0.2 1 0.6Z" fill="#ffffff"></path></g><g transform="translate(619 407)"><path d="M1.9 0.9C1.4 1.8 -0.6 1.6 -1.1 0.7C-1.7 -0.3 -0.8 -2.1 0.1 -2C1.1 -1.9 2.3 0 1.9 0.9Z" fill="#ffffff"></path></g><g transform="translate(401 390)"><path d="M1.6 1.2C0.2 3.2 -3.9 4 -4.7 2.3C-5.4 0.7 -2.7 -3.3 -0.6 -3.7C1.5 -4.1 2.9 -0.8 1.6 1.2Z" fill="#ffffff"></path></g><g transform="translate(14 893)"><path d="M0.9 0.3C0.7 1 -0.4 0.9 -0.7 0.2C-1 -0.4 -0.5 -1.7 0.1 -1.6C0.6 -1.6 1.2 -0.3 0.9 0.3Z" fill="#ffffff"></path></g><g transform="translate(604 223)"><path d="M1.1 0.3C0.8 1.2 -0.5 1.1 -0.8 0.2C-1.2 -0.7 -0.6 -2.5 0.1 -2.5C0.7 -2.4 1.4 -0.6 1.1 0.3Z" fill="#ffffff"></path></g><g transform="translate(449 897)"><path d="M1.4 0.8C0.9 1.7 -1.2 1.8 -1.6 0.9C-2.1 0 -1.1 -1.8 0 -1.8C1 -1.8 2 -0.1 1.4 0.8Z" fill="#ffffff"></path></g><g transform="translate(58 177)"><path d="M4 2C3.6 3.1 0.5 2.3 -0.6 0.8C-1.8 -0.7 -0.9 -2.9 0.7 -2.5C2.2 -2.1 4.5 0.9 4 2Z" fill="#ffffff"></path></g><g transform="translate(625 375)"><path d="M0.9 0.8C0 2.2 -2.9 2.7 -3.3 1.6C-3.8 0.6 -1.9 -2.1 -0.5 -2.4C0.9 -2.7 1.8 -0.5 0.9 0.8Z" fill="#ffffff"></path></g><g transform="translate(287 166)"><path d="M2.3 2C1.3 3 -2.3 3.2 -3.1 2.2C-3.9 1.3 -2 -0.9 -0.2 -1C1.6 -1.1 3.3 0.9 2.3 2Z" fill="#ffffff"></path></g><g transform="translate(306 733)"><path d="M4.6 2.5C3.8 4 -0.4 3.3 -1.8 1.5C-3.1 -0.3 -1.6 -3.2 0.6 -2.9C2.7 -2.6 5.4 1.1 4.6 2.5Z" fill="#ffffff"></path></g><g transform="translate(136 886)"><path d="M2.4 1.5C1.4 3.1 -2.2 3.2 -3.1 1.8C-3.9 0.3 -2 -2.7 -0.1 -2.8C1.7 -2.9 3.3 0 2.4 1.5Z" fill="#ffffff"></path></g><g transform="translate(507 883)"><path d="M1 0.9C0.3 1.9 -2.2 2.3 -2.6 1.5C-3.1 0.6 -1.5 -1.4 -0.3 -1.6C0.9 -1.8 1.8 -0.1 1 0.9Z" fill="#ffffff"></path></g><g transform="translate(290 648)"><path d="M1.1 0.7C0.7 1.3 -0.9 1.3 -1.2 0.7C-1.6 0.1 -0.8 -1.2 0 -1.2C0.7 -1.2 1.5 0 1.1 0.7Z" fill="#ffffff"></path></g><g transform="translate(390 813)"><path d="M0.5 0.2C0.4 0.4 0 0.3 -0.1 0.1C-0.2 -0.1 -0.1 -0.4 0.1 -0.4C0.3 -0.3 0.5 0.1 0.5 0.2Z" fill="#ffffff"></path></g><g transform="translate(273 40)"><path d="M3.3 1.7C2 4.2 -3 4.4 -4.1 2C-5.3 -0.4 -2.6 -5.3 -0.2 -5.4C2.3 -5.5 4.6 -0.7 3.3 1.7Z" fill="#ffffff"></path></g><g transform="translate(587 449)"><path d="M2.6 2.2C1.5 3.5 -2.6 3.7 -3.6 2.5C-4.5 1.4 -2.3 -1.2 -0.2 -1.3C1.9 -1.4 3.8 0.9 2.6 2.2Z" fill="#ffffff"></path></g><g transform="translate(635 240)"><path d="M3.2 2C2.4 3.2 -1.2 3 -2.2 1.7C-3.2 0.4 -1.6 -2 0.2 -1.9C2 -1.8 4 0.8 3.2 2Z" fill="#ffffff"></path></g><g transform="translate(54 247)"><path d="M0.3 0.1C0.2 0.3 -0.1 0.2 -0.1 0.1C-0.2 0 -0.1 -0.3 0 -0.3C0.2 -0.3 0.4 0 0.3 0.1Z" fill="#ffffff"></path></g><g transform="translate(379 150)"><path d="M3.3 2.1C2.5 3.4 -1.3 3.2 -2.4 1.7C-3.4 0.3 -1.7 -2.4 0.2 -2.3C2.1 -2.2 4.2 0.7 3.3 2.1Z" fill="#ffffff"></path></g><g transform="translate(72 555)"><path d="M4.6 1.8C4 3.7 0.2 2.9 -1.1 0.6C-2.4 -1.6 -1.2 -5.3 0.7 -4.9C2.6 -4.5 5.2 0 4.6 1.8Z" fill="#ffffff"></path></g><g transform="translate(597 579)"><path d="M0.7 0.2C0.4 1 -0.8 1.1 -1 0.3C-1.3 -0.4 -0.7 -1.9 -0.1 -2C0.5 -2 1 -0.6 0.7 0.2Z" fill="#ffffff"></path></g><g transform="translate(310 453)"><path d="M3.7 2.1C2.5 4.3 -2.4 4.2 -3.6 2.1C-4.8 -0.1 -2.4 -4.4 0 -4.4C2.5 -4.4 5 -0.1 3.7 2.1Z" fill="#ffffff"></path></g><g transform="translate(319 160)"><path d="M3.6 2.3C2.5 3.9 -1.9 3.8 -3.1 2.2C-4.2 0.5 -2.1 -2.6 0.1 -2.5C2.3 -2.5 4.6 0.8 3.6 2.3Z" fill="#ffffff"></path></g><g transform="translate(600 878)"><path d="M1.1 0.4C0.8 1.2 -0.6 1.2 -1 0.4C-1.4 -0.5 -0.7 -2.1 0 -2.1C0.7 -2.1 1.5 -0.4 1.1 0.4Z" fill="#ffffff"></path></g><g transform="translate(436 287)"><path d="M3.6 1.5C3 3.1 -0.3 2.5 -1.3 0.8C-2.3 -1 -1.2 -4.1 0.5 -3.8C2.1 -3.6 4.1 0 3.6 1.5Z" fill="#ffffff"></path></g><g transform="translate(196 200)"><path d="M1 0.9C0.5 1.4 -1.3 1.6 -1.6 1.1C-2 0.6 -1 -0.6 -0.1 -0.6C0.7 -0.7 1.5 0.3 1 0.9Z" fill="#ffffff"></path></g><g transform="translate(558 578)"><path d="M0.8 0.6C0.2 1.5 -1.7 1.8 -2.1 1C-2.4 0.3 -1.2 -1.5 -0.3 -1.7C0.7 -1.8 1.4 -0.3 0.8 0.6Z" fill="#ffffff"></path></g><g transform="translate(293 690)"><path d="M2.8 1.7C2.1 2.8 -1 2.6 -1.9 1.4C-2.7 0.2 -1.4 -1.9 0.2 -1.8C1.7 -1.7 3.5 0.7 2.8 1.7Z" fill="#ffffff"></path></g><g transform="translate(416 359)"><path d="M3 1.2C2.4 2.8 -0.6 2.4 -1.5 0.7C-2.4 -1.1 -1.2 -4.3 0.3 -4.1C1.8 -4 3.6 -0.4 3 1.2Z" fill="#ffffff"></path></g><g transform="translate(2 532)"><path d="M0.8 0.7C0.4 1.2 -1.1 1.3 -1.4 0.9C-1.7 0.6 -0.8 -0.3 -0.1 -0.4C0.6 -0.5 1.2 0.3 0.8 0.7Z" fill="#ffffff"></path></g><g transform="translate(65 312)"><path d="M2.5 1.4C1.1 3.9 -3.7 4.4 -4.7 2.2C-5.6 0 -2.8 -4.9 -0.4 -5.2C2 -5.4 3.9 -1 2.5 1.4Z" fill="#ffffff"></path></g><g transform="translate(414 489)"><path d="M0.3 0.2C0.2 0.4 -0.3 0.4 -0.4 0.2C-0.5 0.1 -0.2 -0.2 0 -0.2C0.2 -0.2 0.4 0.1 0.3 0.2Z" fill="#ffffff"></path></g><g transform="translate(48 488)"><path d="M4.8 2.5C4 4.2 -0.4 3.5 -1.8 1.4C-3.2 -0.6 -1.6 -4 0.6 -3.7C2.8 -3.3 5.6 0.8 4.8 2.5Z" fill="#ffffff"></path></g><g transform="translate(405 431)"><path d="M1.7 0.6C0.9 2.4 -1.9 2.6 -2.6 0.9C-3.2 -0.8 -1.6 -4.4 -0.2 -4.5C1.3 -4.6 2.5 -1.2 1.7 0.6Z" fill="#ffffff"></path></g><g transform="translate(229 152)"><path d="M1.8 1.1C1.4 1.7 -0.4 1.5 -0.9 0.8C-1.5 0.2 -0.7 -0.9 0.2 -0.8C1.1 -0.7 2.2 0.6 1.8 1.1Z" fill="#ffffff"></path></g><g transform="translate(298 225)"><path d="M0.3 0.2C0 0.5 -0.6 0.7 -0.8 0.4C-0.9 0.1 -0.4 -0.7 -0.1 -0.7C0.2 -0.8 0.5 -0.2 0.3 0.2Z" fill="#ffffff"></path></g><g transform="translate(398 181)"><path d="M1.1 0.4C0.7 1.4 -1 1.5 -1.4 0.5C-1.8 -0.5 -0.9 -2.5 -0.1 -2.5C0.8 -2.5 1.6 -0.6 1.1 0.4Z" fill="#ffffff"></path></g><g transform="translate(376 460)"><path d="M2.4 2C1.4 3.1 -2.3 3.3 -3.1 2.2C-4 1.2 -2 -1 -0.2 -1.1C1.7 -1.2 3.4 0.9 2.4 2Z" fill="#ffffff"></path></g><g transform="translate(76 267)"><path d="M0.2 0.1C0.1 0.3 -0.3 0.3 -0.3 0.2C-0.4 0 -0.2 -0.4 0 -0.4C0.2 -0.4 0.3 -0.1 0.2 0.1Z" fill="#ffffff"></path></g><g transform="translate(303 135)"><path d="M0.5 0.2C0.3 0.6 -0.4 0.7 -0.6 0.3C-0.8 -0.1 -0.4 -0.9 0 -0.9C0.4 -0.9 0.7 -0.2 0.5 0.2Z" fill="#ffffff"></path></g><g transform="translate(473 720)"><path d="M4.3 3C3.1 4.6 -2.2 4.5 -3.5 2.7C-4.9 1 -2.5 -2.3 0.2 -2.2C2.8 -2.1 5.6 1.3 4.3 3Z" fill="#ffffff"></path></g><g transform="translate(140 102)"><path d="M0.8 0.4C0.3 1.3 -1.3 1.5 -1.6 0.7C-1.9 -0.1 -1 -1.9 -0.2 -2C0.6 -2.1 1.3 -0.5 0.8 0.4Z" fill="#ffffff"></path></g><g transform="translate(70 22)"><path d="M2.1 1.2C1.7 2 -0.5 1.8 -1.2 0.8C-1.8 -0.1 -0.9 -1.8 0.2 -1.7C1.3 -1.6 2.6 0.3 2.1 1.2Z" fill="#ffffff"></path></g><g transform="translate(382 677)"><path d="M1.2 0.9C0.8 1.3 -0.7 1.3 -1.1 0.8C-1.5 0.4 -0.7 -0.5 0 -0.5C0.8 -0.5 1.6 0.4 1.2 0.9Z" fill="#ffffff"></path></g><g transform="translate(52 725)"><path d="M0.3 0.2C0.2 0.4 -0.2 0.3 -0.3 0.2C-0.4 0.1 -0.2 -0.2 0 -0.2C0.2 -0.2 0.4 0.1 0.3 0.2Z" fill="#ffffff"></path></g><g transform="translate(584 484)"><path d="M4.5 2.4C3.7 3.8 -0.3 3.2 -1.6 1.4C-2.9 -0.3 -1.5 -3.2 0.6 -2.8C2.6 -2.5 5.2 1 4.5 2.4Z" fill="#ffffff"></path></g><g transform="translate(253 491)"><path d="M0.5 0.2C0.4 0.4 -0.1 0.4 -0.3 0.2C-0.4 -0.1 -0.2 -0.5 0 -0.5C0.3 -0.5 0.6 0 0.5 0.2Z" fill="#ffffff"></path></g><g transform="translate(80 483)"><path d="M1.9 1.1C1.6 1.6 0 1.3 -0.6 0.6C-1.1 0 -0.6 -1 0.3 -0.9C1.1 -0.7 2.2 0.6 1.9 1.1Z" fill="#ffffff"></path></g><g transform="translate(46 209)"><path d="M1.1 0.5C0.7 1.4 -1 1.5 -1.3 0.6C-1.7 -0.3 -0.9 -2.1 0 -2.1C0.8 -2.2 1.6 -0.4 1.1 0.5Z" fill="#ffffff"></path></g><g transform="translate(234 780)"><path d="M0.7 0.4C0.5 0.6 -0.1 0.5 -0.3 0.2C-0.5 0 -0.2 -0.5 0.1 -0.4C0.4 -0.4 0.8 0.1 0.7 0.4Z" fill="#ffffff"></path></g><g transform="translate(629 290)"><path d="M2.1 0.8C1.5 2.3 -1.1 2.2 -1.8 0.7C-2.4 -0.8 -1.2 -3.7 0.1 -3.6C1.4 -3.6 2.7 -0.6 2.1 0.8Z" fill="#ffffff"></path></g><g transform="translate(10 273)"><path d="M0.9 0.4C0.5 1.1 -0.7 1.1 -1 0.5C-1.3 -0.1 -0.6 -1.4 0 -1.4C0.6 -1.4 1.2 -0.2 0.9 0.4Z" fill="#ffffff"></path></g><g transform="translate(631 618)"><path d="M0.4 0.4C0 0.8 -1.1 1.1 -1.3 0.7C-1.5 0.4 -0.7 -0.5 -0.2 -0.6C0.4 -0.7 0.7 0 0.4 0.4Z" fill="#ffffff"></path></g><g transform="translate(157 694)"><path d="M3.6 2.5C2.4 4.1 -2.4 4.1 -3.6 2.5C-4.8 0.8 -2.4 -2.5 0 -2.5C2.4 -2.5 4.8 0.8 3.6 2.5Z" fill="#ffffff"></path></g><g transform="translate(535 638)"><path d="M3 2.3C1.6 4.2 -3.5 4.5 -4.6 2.8C-5.7 1.1 -2.8 -2.7 -0.3 -2.9C2.2 -3.1 4.4 0.3 3 2.3Z" fill="#ffffff"></path></g><g transform="translate(141 231)"><path d="M0.6 0.4C0.3 0.8 -0.7 0.9 -0.9 0.5C-1.1 0 -0.6 -0.9 -0.1 -0.9C0.4 -0.9 0.9 -0.1 0.6 0.4Z" fill="#ffffff"></path></g><g transform="translate(295 827)"><path d="M3.3 1.7C2.4 3.4 -1.5 3.3 -2.5 1.5C-3.6 -0.3 -1.8 -3.7 0.1 -3.6C2.1 -3.5 4.2 0 3.3 1.7Z" fill="#ffffff"></path></g><g transform="translate(445 821)"><path d="M0.8 0.6C0.4 1.2 -1.1 1.3 -1.4 0.8C-1.6 0.4 -0.8 -0.7 -0.1 -0.8C0.6 -0.8 1.2 0.1 0.8 0.6Z" fill="#ffffff"></path></g><g transform="translate(401 773)"><path d="M3.8 2.2C2.9 3.7 -1.2 3.4 -2.3 1.7C-3.5 0 -1.7 -3.1 0.3 -2.9C2.3 -2.7 4.7 0.6 3.8 2.2Z" fill="#ffffff"></path></g><g transform="translate(340 776)"><path d="M0.4 0.2C0.1 0.7 -0.8 0.8 -1 0.4C-1.1 0 -0.6 -0.9 -0.1 -1C0.3 -1 0.7 -0.2 0.4 0.2Z" fill="#ffffff"></path></g><g transform="translate(212 418)"><path d="M0.3 0.2C0.2 0.4 -0.3 0.4 -0.4 0.2C-0.5 0 -0.2 -0.4 0 -0.4C0.2 -0.4 0.4 0 0.3 0.2Z" fill="#ffffff"></path></g><g transform="translate(318 635)"><path d="M0.8 0.4C0.6 0.8 -0.3 0.7 -0.5 0.3C-0.8 -0.2 -0.4 -1.1 0.1 -1C0.5 -1 1 -0.1 0.8 0.4Z" fill="#ffffff"></path></g><g transform="translate(243 688)"><path d="M3.3 2.7C2.1 4 -2.5 4.1 -3.7 2.8C-4.8 1.6 -2.4 -1.1 -0.1 -1.1C2.3 -1.1 4.5 1.4 3.3 2.7Z" fill="#ffffff"></path></g><g transform="translate(249 318)"><path d="M1.4 0.5C1.1 1.3 -0.4 1.2 -0.8 0.3C-1.2 -0.6 -0.6 -2.2 0.1 -2.2C0.9 -2.1 1.7 -0.3 1.4 0.5Z" fill="#ffffff"></path></g><g transform="translate(274 883)"><path d="M2.7 1.4C2.1 2.6 -0.8 2.4 -1.6 1C-2.4 -0.3 -1.2 -2.6 0.2 -2.5C1.7 -2.4 3.3 0.3 2.7 1.4Z" fill="#ffffff"></path></g><g transform="translate(508 669)"><path d="M0.5 0.3C0.1 1 -1.2 1.2 -1.4 0.6C-1.6 0 -0.8 -1.5 -0.2 -1.6C0.5 -1.7 0.9 -0.5 0.5 0.3Z" fill="#ffffff"></path></g><g transform="translate(601 293)"><path d="M1 0.5C0.8 0.9 -0.1 0.7 -0.4 0.3C-0.7 -0.1 -0.3 -0.9 0.1 -0.8C0.6 -0.7 1.2 0.1 1 0.5Z" fill="#ffffff"></path></g><g transform="translate(584 243)"><path d="M4.2 2.4C3.5 3.6 -0.2 2.9 -1.4 1.4C-2.6 -0.1 -1.3 -2.5 0.6 -2.2C2.4 -1.8 4.8 1.2 4.2 2.4Z" fill="#ffffff"></path></g><g transform="translate(248 184)"><path d="M2.4 1.2C1.9 2.2 -0.4 1.9 -1.2 0.7C-1.9 -0.4 -0.9 -2.5 0.2 -2.3C1.4 -2.2 2.8 0.1 2.4 1.2Z" fill="#ffffff"></path></g><g transform="translate(498 601)"><path d="M0.4 0.3C-0.1 0.9 -1.2 1.2 -1.4 0.7C-1.6 0.2 -0.8 -1 -0.2 -1.1C0.4 -1.2 0.8 -0.3 0.4 0.3Z" fill="#ffffff"></path></g><g transform="translate(40 453)"><path d="M0.8 0.5C0.5 0.9 -0.5 0.9 -0.7 0.5C-1 0.2 -0.5 -0.5 0 -0.5C0.5 -0.5 1.1 0.2 0.8 0.5Z" fill="#ffffff"></path></g><g transform="translate(58 382)"><path d="M1.8 1.1C1.3 2 -1 1.9 -1.6 1C-2.2 0 -1.1 -1.9 0.1 -1.9C1.2 -1.8 2.4 0.1 1.8 1.1Z" fill="#ffffff"></path></g><g transform="translate(608 667)"><path d="M3.4 2.8C2 4.3 -3 4.5 -4.2 3C-5.4 1.6 -2.7 -1.5 -0.2 -1.6C2.4 -1.7 4.7 1.2 3.4 2.8Z" fill="#ffffff"></path></g><g transform="translate(5 166)"><path d="M3 1.5C1.9 3.6 -2.3 3.7 -3.4 1.6C-4.4 -0.5 -2.2 -4.9 -0.1 -4.9C2.1 -4.9 4.1 -0.7 3 1.5Z" fill="#ffffff"></path></g><g transform="translate(636 36)"><path d="M3.4 2.1C2.3 3.8 -2.1 3.8 -3.2 2C-4.3 0.3 -2.1 -3.1 0 -3.1C2.2 -3 4.4 0.4 3.4 2.1Z" fill="#ffffff"></path></g><g transform="translate(545 793)"><path d="M1.1 0.7C0.3 2 -2.2 2.3 -2.6 1.2C-3.1 0.2 -1.5 -2.4 -0.3 -2.6C0.9 -2.7 1.9 -0.6 1.1 0.7Z" fill="#ffffff"></path></g><g transform="translate(587 553)"><path d="M0.5 0.3C0.4 0.5 -0.2 0.5 -0.4 0.3C-0.5 0 -0.3 -0.4 0 -0.4C0.3 -0.4 0.6 0.1 0.5 0.3Z" fill="#ffffff"></path></g><g transform="translate(452 246)"><path d="M1.3 0.9C0.4 2.3 -2.4 2.6 -3 1.5C-3.5 0.3 -1.8 -2.5 -0.3 -2.7C1.1 -2.9 2.2 -0.5 1.3 0.9Z" fill="#ffffff"></path></g><g transform="translate(119 696)"><path d="M2 1.2C1.3 2.4 -1.6 2.5 -2.3 1.3C-3 0.1 -1.5 -2.4 -0.1 -2.4C1.4 -2.4 2.8 0 2 1.2Z" fill="#ffffff"></path></g><g transform="translate(373 739)"><path d="M2.5 1.4C2.2 1.9 0.2 1.5 -0.5 0.8C-1.2 0.1 -0.6 -0.9 0.4 -0.7C1.4 -0.5 2.8 1 2.5 1.4Z" fill="#ffffff"></path></g><g transform="translate(518 403)"><path d="M2.7 2C1.8 3.2 -1.9 3.2 -2.8 2C-3.7 0.9 -1.9 -1.5 0 -1.5C1.8 -1.5 3.7 0.8 2.7 2Z" fill="#ffffff"></path></g><g transform="translate(35 30)"><path d="M0.8 0.4C0.6 0.8 -0.4 0.8 -0.6 0.3C-0.9 -0.2 -0.4 -1.1 0 -1.1C0.5 -1.1 1 -0.1 0.8 0.4Z" fill="#ffffff"></path></g><g transform="translate(59 893)"><path d="M1.9 0.9C1.5 1.7 -0.3 1.4 -0.8 0.5C-1.4 -0.3 -0.7 -1.9 0.2 -1.8C1.1 -1.7 2.2 0.1 1.9 0.9Z" fill="#ffffff"></path></g><g transform="translate(91 592)"><path d="M3.1 1.8C2.5 2.7 -0.3 2.3 -1.2 1.2C-2.1 0.2 -1.1 -1.5 0.4 -1.3C1.8 -1.1 3.6 1 3.1 1.8Z" fill="#ffffff"></path></g><g transform="translate(17 358)"><path d="M1.3 0.5C1 1.2 -0.4 1.1 -0.8 0.3C-1.2 -0.4 -0.6 -1.9 0.1 -1.9C0.8 -1.8 1.6 -0.2 1.3 0.5Z" fill="#ffffff"></path></g><g transform="translate(482 468)"><path d="M3.9 2.5C3.2 3.6 -0.7 3.1 -1.9 1.8C-3 0.6 -1.5 -1.5 0.4 -1.2C2.3 -1 4.7 1.5 3.9 2.5Z" fill="#ffffff"></path></g><g transform="translate(601 798)"><path d="M1.8 1.3C1.3 1.9 -0.8 1.8 -1.4 1.2C-2 0.6 -1 -0.6 0.1 -0.6C1.1 -0.5 2.3 0.7 1.8 1.3Z" fill="#ffffff"></path></g><g transform="translate(168 187)"><path d="M1 0.5C0.8 0.8 0 0.6 -0.2 0.3C-0.5 -0.1 -0.3 -0.6 0.1 -0.5C0.5 -0.4 1.1 0.3 1 0.5Z" fill="#ffffff"></path></g><g transform="translate(320 490)"><path d="M1.8 1C1.2 2.2 -1.4 2.2 -2 1.1C-2.6 -0.1 -1.3 -2.5 0 -2.5C1.2 -2.5 2.5 -0.2 1.8 1Z" fill="#ffffff"></path></g><g transform="translate(489 172)"><path d="M2.3 1.2C2 1.9 0 1.6 -0.7 0.7C-1.4 -0.2 -0.7 -1.6 0.3 -1.5C1.3 -1.3 2.7 0.5 2.3 1.2Z" fill="#ffffff"></path></g><g transform="translate(116 206)"><path d="M0.4 0.2C0.2 0.6 -0.5 0.7 -0.7 0.3C-0.8 0 -0.4 -0.8 0 -0.8C0.3 -0.9 0.6 -0.2 0.4 0.2Z" fill="#ffffff"></path></g><g transform="translate(219 899)"><path d="M2.9 1.1C2.4 2.6 -0.4 2.2 -1.2 0.5C-2.1 -1.1 -1 -3.9 0.3 -3.8C1.7 -3.6 3.4 -0.3 2.9 1.1Z" fill="#ffffff"></path></g><g transform="translate(476 358)"><path d="M0.7 0.5C-0.2 1.9 -2.8 2.5 -3.2 1.3C-3.5 0.2 -1.8 -2.7 -0.5 -3C0.8 -3.3 1.6 -1 0.7 0.5Z" fill="#ffffff"></path></g><g transform="translate(69 612)"><path d="M0.4 0.2C0.2 0.7 -0.6 0.8 -0.8 0.4C-1 0 -0.5 -0.8 -0.1 -0.9C0.3 -0.9 0.7 -0.2 0.4 0.2Z" fill="#ffffff"></path></g><g transform="translate(554 446)"><path d="M2.3 1.3C1.5 2.9 -1.9 2.9 -2.7 1.4C-3.5 -0.1 -1.7 -3.3 -0.1 -3.3C1.6 -3.4 3.2 -0.3 2.3 1.3Z" fill="#ffffff"></path></g><g transform="translate(460 120)"><path d="M2.5 1.3C1.9 2.6 -1 2.4 -1.8 1.1C-2.6 -0.3 -1.3 -2.8 0.1 -2.8C1.6 -2.7 3.2 0 2.5 1.3Z" fill="#ffffff"></path></g><g transform="translate(187 21)"><path d="M3.2 2.4C1.8 4.2 -3.3 4.5 -4.4 2.8C-5.6 1.1 -2.8 -2.5 -0.3 -2.7C2.3 -2.8 4.6 0.6 3.2 2.4Z" fill="#ffffff"></path></g><g transform="translate(509 777)"><path d="M2.7 1.1C1.9 2.8 -1.2 2.6 -2 0.9C-2.9 -0.8 -1.4 -4.1 0.1 -4C1.7 -3.9 3.4 -0.5 2.7 1.1Z" fill="#ffffff"></path></g><g transform="translate(130 282)"><path d="M0.9 0.7C0.1 1.9 -2.4 2.4 -2.9 1.4C-3.3 0.4 -1.6 -2 -0.4 -2.3C0.9 -2.5 1.7 -0.5 0.9 0.7Z" fill="#ffffff"></path></g><g transform="translate(9 124)"><path d="M0.2 0.1C0.1 0.3 -0.2 0.3 -0.3 0.1C-0.4 -0.1 -0.2 -0.5 0 -0.5C0.1 -0.5 0.3 -0.1 0.2 0.1Z" fill="#ffffff"></path></g><g transform="translate(583 355)"><path d="M4 2.6C2.6 4.7 -2.9 4.8 -4.3 2.7C-5.6 0.7 -2.8 -3.4 -0.1 -3.4C2.7 -3.5 5.4 0.6 4 2.6Z" fill="#ffffff"></path></g><g transform="translate(540 28)"><path d="M2.2 1.2C1.5 2.5 -1.3 2.4 -2.1 1.1C-2.8 -0.2 -1.4 -2.7 0 -2.7C1.4 -2.7 2.9 -0.1 2.2 1.2Z" fill="#ffffff"></path></g><g transform="translate(373 219)"><path d="M0.6 0.2C0.2 1.1 -1.2 1.3 -1.4 0.5C-1.7 -0.3 -0.9 -2 -0.2 -2.1C0.5 -2.2 1 -0.7 0.6 0.2Z" fill="#ffffff"></path></g><g transform="translate(262 455)"><path d="M2 0.9C1.4 2.1 -0.9 2 -1.5 0.7C-2.2 -0.5 -1.1 -2.9 0.1 -2.9C1.3 -2.8 2.5 -0.3 2 0.9Z" fill="#ffffff"></path></g><g transform="translate(634 167)"><path d="M1.8 1C1.3 1.9 -0.8 1.8 -1.4 0.9C-2 -0.1 -1 -1.9 0.1 -1.9C1.2 -1.8 2.3 0.1 1.8 1Z" fill="#ffffff"></path></g><g transform="translate(467 867)"><path d="M3.2 1.7C1.9 4.1 -2.9 4.3 -4 2C-5.1 -0.3 -2.6 -5.1 -0.2 -5.2C2.3 -5.3 4.5 -0.7 3.2 1.7Z" fill="#ffffff"></path></g><g transform="translate(313 74)"><path d="M1.2 1.5C0 2.8 -3.7 3.6 -4.3 2.5C-5 1.5 -2.5 -1.3 -0.6 -1.6C1.2 -2 2.5 0.1 1.2 1.5Z" fill="#ffffff"></path></g><g transform="translate(360 257)"><path d="M1.4 0.6C0.7 2.1 -1.8 2.3 -2.4 0.9C-2.9 -0.4 -1.4 -3.2 -0.2 -3.4C1.1 -3.5 2.1 -0.8 1.4 0.6Z" fill="#ffffff"></path></g><g transform="translate(474 5)"><path d="M2.2 1.3C1.6 2.3 -0.9 2.1 -1.6 1.1C-2.3 0 -1.2 -2 0.1 -2C1.4 -1.9 2.8 0.3 2.2 1.3Z" fill="#ffffff"></path></g><g transform="translate(348 1)"><path d="M1.7 0.8C1.1 2.1 -1.3 2.1 -1.9 0.8C-2.4 -0.4 -1.2 -3 0 -3C1.2 -3 2.3 -0.5 1.7 0.8Z" fill="#ffffff"></path></g><g transform="translate(560 697)"><path d="M1.5 0.9C1.2 1.5 -0.5 1.4 -1 0.7C-1.5 0 -0.7 -1.2 0.1 -1.1C1 -1.1 1.9 0.3 1.5 0.9Z" fill="#ffffff"></path></g><g transform="translate(225 834)"><path d="M0.3 0.2C0.1 0.6 -0.7 0.7 -0.8 0.4C-0.9 0.1 -0.5 -0.6 -0.1 -0.7C0.3 -0.7 0.6 -0.1 0.3 0.2Z" fill="#ffffff"></path></g><g transform="translate(608 500)"><path d="M0.9 0.5C0.7 1 -0.4 0.9 -0.7 0.4C-1 -0.1 -0.5 -1.1 0 -1.1C0.6 -1 1.2 0 0.9 0.5Z" fill="#ffffff"></path></g><g transform="translate(141 541)"><path d="M0.4 0.3C0.3 0.4 -0.2 0.4 -0.3 0.3C-0.5 0.1 -0.2 -0.1 0 -0.1C0.3 -0.1 0.5 0.2 0.4 0.3Z" fill="#ffffff"></path></g><g transform="translate(547 822)"><path d="M0.9 0.2C0.6 1 -0.5 0.9 -0.8 0.2C-1 -0.6 -0.5 -2 0 -2C0.6 -2 1.2 -0.5 0.9 0.2Z" fill="#ffffff"></path></g><g transform="translate(352 415)"><path d="M2.7 1.3C2.1 2.6 -0.8 2.4 -1.6 0.9C-2.4 -0.5 -1.2 -3.1 0.2 -2.9C1.7 -2.8 3.4 0 2.7 1.3Z" fill="#ffffff"></path></g><g transform="translate(610 434)"><path d="M5.6 3.4C4.7 4.9 -0.5 4.1 -2.1 2.2C-3.7 0.4 -1.9 -2.5 0.7 -2.1C3.3 -1.7 6.6 2 5.6 3.4Z" fill="#ffffff"></path></g><g transform="translate(64 528)"><path d="M2.2 1.1C1.1 3.2 -2.8 3.5 -3.6 1.6C-4.5 -0.3 -2.2 -4.6 -0.3 -4.7C1.7 -4.9 3.3 -1 2.2 1.1Z" fill="#ffffff"></path></g><g transform="translate(1 781)"><path d="M0.4 0.3C0.3 0.5 -0.3 0.5 -0.4 0.3C-0.6 0.2 -0.3 -0.1 0 -0.1C0.3 -0.1 0.6 0.2 0.4 0.3Z" fill="#ffffff"></path></g><g transform="translate(131 24)"><path d="M4.5 3C3 5.2 -3.1 5.3 -4.6 3.1C-6.1 0.9 -3.1 -3.5 0 -3.5C3 -3.6 6 0.8 4.5 3Z" fill="#ffffff"></path></g><g transform="translate(298 361)"><path d="M0.2 0.1C0.1 0.3 -0.2 0.3 -0.3 0.1C-0.3 0 -0.2 -0.2 0 -0.3C0.1 -0.3 0.3 0 0.2 0.1Z" fill="#ffffff"></path></g><g transform="translate(163 337)"><path d="M0.4 0.2C0.3 0.4 -0.1 0.4 -0.3 0.2C-0.4 0 -0.2 -0.4 0 -0.4C0.3 -0.4 0.5 0 0.4 0.2Z" fill="#ffffff"></path></g><g transform="translate(594 9)"><path d="M2.5 1.3C2.1 2 0 1.6 -0.7 0.6C-1.4 -0.3 -0.7 -1.9 0.4 -1.6C1.4 -1.4 2.8 0.5 2.5 1.3Z" fill="#ffffff"></path></g><g transform="translate(303 40)"><path d="M4.5 2.8C2.9 5.4 -3.4 5.4 -4.9 2.9C-6.4 0.4 -3.2 -4.8 -0.1 -4.9C3 -4.9 6.1 0.2 4.5 2.8Z" fill="#ffffff"></path></g><g transform="translate(558 78)"><path d="M0.4 0.3C0.3 0.5 -0.2 0.4 -0.3 0.2C-0.5 0 -0.2 -0.3 0 -0.3C0.3 -0.3 0.6 0.1 0.4 0.3Z" fill="#ffffff"></path></g><g transform="translate(232 751)"><path d="M2.5 0.9C1.5 3.3 -2.4 3.5 -3.3 1.1C-4.2 -1.2 -2.1 -6 -0.2 -6.1C1.8 -6.2 3.6 -1.6 2.5 0.9Z" fill="#ffffff"></path></g><g transform="translate(183 97)"><path d="M2.6 1.7C2 2.6 -0.9 2.4 -1.7 1.4C-2.5 0.5 -1.3 -1.2 0.2 -1.1C1.6 -1 3.2 0.9 2.6 1.7Z" fill="#ffffff"></path></g><g transform="translate(577 893)"><path d="M2.2 1.2C1.6 2.3 -1 2.2 -1.7 1.1C-2.4 -0.1 -1.2 -2.2 0.1 -2.1C1.4 -2 2.8 0.2 2.2 1.2Z" fill="#ffffff"></path></g><g transform="translate(588 61)"><path d="M2.8 1.2C1.8 3.2 -1.9 3.2 -2.8 1.2C-3.7 -0.9 -1.9 -5 0 -5C1.8 -5 3.7 -0.9 2.8 1.2Z" fill="#ffffff"></path></g><g transform="translate(416 647)"><path d="M2.9 1.6C2.4 2.6 -0.4 2.2 -1.2 1C-2.1 -0.2 -1 -2.2 0.3 -2C1.7 -1.8 3.5 0.6 2.9 1.6Z" fill="#ffffff"></path></g><g transform="translate(38 417)"><path d="M0.4 0.3C0.2 0.6 -0.4 0.6 -0.6 0.3C-0.7 0.1 -0.4 -0.5 0 -0.5C0.3 -0.6 0.6 0 0.4 0.3Z" fill="#ffffff"></path></g><g transform="translate(361 885)"><path d="M3.4 1.5C2.7 3.3 -0.9 2.9 -1.9 1C-3 -1 -1.5 -4.5 0.3 -4.4C2.1 -4.2 4.2 -0.3 3.4 1.5Z" fill="#ffffff"></path></g><g transform="translate(427 752)"><path d="M2.5 1.1C1.4 3.3 -2.6 3.6 -3.5 1.5C-4.4 -0.6 -2.2 -4.9 -0.2 -5.1C1.8 -5.2 3.6 -1 2.5 1.1Z" fill="#ffffff"></path></g><g transform="translate(501 290)"><path d="M0.4 0.2C0.4 0.4 -0.1 0.3 -0.2 0.1C-0.3 -0.1 -0.2 -0.5 0.1 -0.5C0.3 -0.4 0.5 0 0.4 0.2Z" fill="#ffffff"></path></g><g transform="translate(518 837)"><path d="M1.7 0.9C0.9 2.2 -1.7 2.4 -2.3 1.2C-2.9 0 -1.5 -2.6 -0.1 -2.7C1.2 -2.8 2.4 -0.4 1.7 0.9Z" fill="#ffffff"></path></g><g transform="translate(245 875)"><path d="M2.4 1.4C1.5 2.9 -1.8 2.9 -2.6 1.5C-3.4 0.1 -1.7 -2.7 0 -2.7C1.6 -2.7 3.2 0 2.4 1.4Z" fill="#ffffff"></path></g><g transform="translate(195 574)"><path d="M3 1.7C2.6 2.3 0.2 1.8 -0.6 0.9C-1.4 0 -0.7 -1.3 0.5 -1C1.7 -0.8 3.3 1.1 3 1.7Z" fill="#ffffff"></path></g><g transform="translate(112 318)"><path d="M0.3 0.2C0.3 0.4 -0.2 0.3 -0.3 0.2C-0.4 0 -0.2 -0.3 0 -0.3C0.2 -0.3 0.4 0.1 0.3 0.2Z" fill="#ffffff"></path></g><g transform="translate(507 99)"><path d="M0.7 0.4C0.5 0.8 -0.4 0.8 -0.6 0.4C-0.9 0 -0.4 -0.7 0 -0.6C0.5 -0.6 0.9 0.1 0.7 0.4Z" fill="#ffffff"></path></g><g transform="translate(341 339)"><path d="M3.7 2.7C2.2 4.7 -3.4 5 -4.7 3.1C-6 1.3 -3 -2.7 -0.2 -2.8C2.6 -3 5.2 0.8 3.7 2.7Z" fill="#ffffff"></path></g><g transform="translate(176 771)"><path d="M4.5 1.7C3.7 3.8 -0.3 3.2 -1.6 0.7C-2.9 -1.8 -1.4 -6.1 0.6 -5.8C2.6 -5.4 5.2 -0.5 4.5 1.7Z" fill="#ffffff"></path></g><g transform="translate(92 86)"><path d="M0.7 0.5C0.3 1 -0.9 1.1 -1.1 0.7C-1.4 0.2 -0.7 -0.8 -0.1 -0.9C0.5 -0.9 1 0 0.7 0.5Z" fill="#ffffff"></path></g><g transform="translate(279 510)"><path d="M3 2C1.6 4.1 -3.3 4.4 -4.3 2.5C-5.4 0.6 -2.7 -3.4 -0.3 -3.6C2.2 -3.8 4.3 0 3 2Z" fill="#ffffff"></path></g><g transform="translate(300 888)"><path d="M5.2 3C4.2 4.6 -0.7 4 -2.3 2C-3.8 0 -1.9 -3.2 0.6 -2.9C3.1 -2.5 6.1 1.4 5.2 3Z" fill="#ffffff"></path></g><g transform="translate(523 581)"><path d="M0.4 0.3C0.3 0.5 -0.2 0.5 -0.4 0.3C-0.5 0.1 -0.3 -0.3 0 -0.3C0.3 -0.3 0.6 0.1 0.4 0.3Z" fill="#ffffff"></path></g><g transform="translate(7 4)"><path d="M1 0.5C-0.1 2.5 -3.3 3.1 -3.8 1.5C-4.4 -0.1 -2.2 -4 -0.6 -4.3C1 -4.7 2.1 -1.4 1 0.5Z" fill="#ffffff"></path></g><g transform="translate(624 897)"><path d="M4.1 2.9C2.6 5 -3.2 5.1 -4.6 3.1C-6 1.1 -3 -3.1 -0.1 -3.2C2.8 -3.2 5.6 0.8 4.1 2.9Z" fill="#ffffff"></path></g><g transform="translate(4 87)"><path d="M4.4 2.4C3.2 4.5 -1.7 4.2 -3.1 1.9C-4.5 -0.3 -2.2 -4.4 0.3 -4.3C2.7 -4.1 5.5 0.3 4.4 2.4Z" fill="#ffffff"></path></g><g transform="translate(7 642)"><path d="M3.5 2.1C2.5 3.9 -1.9 3.7 -3 1.9C-4.2 0.1 -2.1 -3.5 0.1 -3.4C2.3 -3.4 4.6 0.3 3.5 2.1Z" fill="#ffffff"></path></g><g transform="translate(359 501)"><path d="M1.3 0.7C1 1.3 -0.5 1.2 -0.9 0.5C-1.3 -0.2 -0.7 -1.5 0.1 -1.4C0.8 -1.4 1.7 0 1.3 0.7Z" fill="#ffffff"></path></g><g transform="translate(571 196)"><path d="M1.9 1.5C0.9 2.7 -2.3 2.9 -3 1.9C-3.7 0.8 -1.9 -1.6 -0.2 -1.8C1.4 -1.9 2.8 0.2 1.9 1.5Z" fill="#ffffff"></path></g><g transform="translate(44 354)"><path d="M0.4 0.2C0.1 0.7 -0.7 0.8 -0.9 0.4C-1.1 0 -0.5 -1 -0.1 -1C0.3 -1.1 0.7 -0.3 0.4 0.2Z" fill="#ffffff"></path></g><g transform="translate(504 629)"><path d="M2.1 0.7C1.7 1.9 -0.3 1.6 -0.9 0.3C-1.5 -1 -0.8 -3.4 0.2 -3.3C1.3 -3.1 2.5 -0.5 2.1 0.7Z" fill="#ffffff"></path></g><g transform="translate(112 141)"><path d="M1.3 0.6C0.5 2.2 -2.1 2.5 -2.7 1.1C-3.2 -0.3 -1.6 -3.3 -0.3 -3.5C1.1 -3.6 2.2 -0.9 1.3 0.6Z" fill="#ffffff"></path></g><g transform="translate(468 672)"><path d="M2.1 0.4C1.3 2.6 -1.8 2.7 -2.5 0.6C-3.2 -1.5 -1.6 -5.8 -0.1 -5.9C1.4 -5.9 2.9 -1.7 2.1 0.4Z" fill="#ffffff"></path></g><g transform="translate(637 559)"><path d="M1 0.6C0 2.3 -3.1 2.9 -3.6 1.5C-4.1 0 -2.1 -3.6 -0.5 -3.9C1 -4.2 2 -1.2 1 0.6Z" fill="#ffffff"></path></g><g transform="translate(140 512)"><path d="M2.5 1.2C2.1 2.1 0 1.7 -0.8 0.7C-1.5 -0.4 -0.7 -2 0.3 -1.8C1.4 -1.6 2.8 0.4 2.5 1.2Z" fill="#ffffff"></path></g><g transform="translate(322 545)"><path d="M1.1 0.7C-0.3 2.9 -4.1 3.8 -4.7 2C-5.3 0.2 -2.7 -4.1 -0.7 -4.5C1.2 -5 2.4 -1.4 1.1 0.7Z" fill="#ffffff"></path></g><g transform="translate(279 550)"><path d="M0.5 0.3C0.2 1 -1.1 1.1 -1.3 0.6C-1.5 0.1 -0.8 -1.1 -0.2 -1.2C0.5 -1.3 0.9 -0.3 0.5 0.3Z" fill="#ffffff"></path></g><g transform="translate(554 133)"><path d="M4.3 2.2C3.5 3.7 -0.5 3.2 -1.7 1.3C-3 -0.5 -1.5 -3.5 0.5 -3.3C2.5 -3 5 0.7 4.3 2.2Z" fill="#ffffff"></path></g><g transform="translate(532 236)"><path d="M2.3 1.4C1.4 2.8 -1.9 2.9 -2.7 1.6C-3.4 0.2 -1.7 -2.5 -0.1 -2.5C1.6 -2.6 3.2 0.1 2.3 1.4Z" fill="#ffffff"></path></g><g transform="translate(42 559)"><path d="M0.7 0.9C-0.2 2.1 -3.1 2.8 -3.5 1.9C-3.9 1 -2 -1.5 -0.6 -1.8C0.9 -2.2 1.7 -0.3 0.7 0.9Z" fill="#ffffff"></path></g><g transform="translate(357 804)"><path d="M1.7 1.1C0.3 3.4 -4 4.1 -4.8 2.1C-5.5 0.2 -2.8 -4.4 -0.6 -4.8C1.6 -5.1 3.1 -1.2 1.7 1.1Z" fill="#ffffff"></path></g><g transform="translate(169 594)"><path d="M1.2 1.2C0.1 2.7 -3.3 3.3 -3.9 2.2C-4.5 1 -2.3 -1.9 -0.5 -2.2C1.2 -2.5 2.4 -0.2 1.2 1.2Z" fill="#ffffff"></path></g><g transform="translate(404 704)"><path d="M0.4 0.2C0.3 0.4 -0.1 0.3 -0.2 0.2C-0.3 0 -0.2 -0.3 0 -0.3C0.3 -0.3 0.5 0.1 0.4 0.2Z" fill="#ffffff"></path></g><g transform="translate(401 3)"><path d="M3.7 2C3.2 3.1 0 2.4 -1.1 1C-2.1 -0.4 -1.1 -2.6 0.5 -2.3C2.1 -2 4.2 0.9 3.7 2Z" fill="#ffffff"></path></g><g transform="translate(556 609)"><path d="M5.1 2.5C3.8 5.2 -2 4.8 -3.6 2C-5.2 -0.8 -2.6 -6 0.3 -5.8C3.2 -5.7 6.4 -0.1 5.1 2.5Z" fill="#ffffff"></path></g><g transform="translate(604 144)"><path d="M1.8 0.4C1.3 1.9 -0.9 1.8 -1.5 0.3C-2 -1.2 -1 -4.2 0.1 -4.1C1.1 -4.1 2.3 -1.1 1.8 0.4Z" fill="#ffffff"></path></g><g transform="translate(184 683)"><path d="M0.7 0.4C0.5 0.6 -0.2 0.6 -0.4 0.3C-0.6 0 -0.3 -0.5 0.1 -0.4C0.4 -0.4 0.8 0.2 0.7 0.4Z" fill="#ffffff"></path></g><g transform="translate(5 859)"><path d="M3.6 1.6C2.9 3.3 -0.7 2.9 -1.8 0.9C-2.9 -1 -1.4 -4.5 0.4 -4.3C2.2 -4.1 4.3 -0.2 3.6 1.6Z" fill="#ffffff"></path></g><g transform="translate(224 507)"><path d="M0.8 0.4C0.5 1 -0.6 1 -0.9 0.4C-1.2 -0.2 -0.6 -1.3 0 -1.3C0.6 -1.3 1.1 -0.2 0.8 0.4Z" fill="#ffffff"></path></g><g transform="translate(401 838)"><path d="M0.9 0.4C0 2 -2.6 2.5 -3 1.2C-3.5 -0.2 -1.7 -3.4 -0.4 -3.6C0.9 -3.9 1.8 -1.2 0.9 0.4Z" fill="#ffffff"></path></g><g transform="translate(408 154)"><path d="M0.5 0.3C0 1.1 -1.5 1.4 -1.7 0.7C-2 0 -1 -1.6 -0.2 -1.8C0.5 -1.9 1 -0.5 0.5 0.3Z" fill="#ffffff"></path></g><g transform="translate(370 283)"><path d="M2.8 1.8C2.2 2.6 -0.5 2.2 -1.4 1.3C-2.2 0.3 -1.1 -1.2 0.3 -1.1C1.7 -0.9 3.3 1 2.8 1.8Z" fill="#ffffff"></path></g><g transform="translate(255 406)"><path d="M3.9 2.8C2.6 4.4 -2.4 4.3 -3.7 2.7C-5 1 -2.5 -2.2 0 -2.2C2.6 -2.2 5.1 1.1 3.9 2.8Z" fill="#ffffff"></path></g><g transform="translate(212 730)"><path d="M1 0.6C0.7 1.3 -0.8 1.3 -1.2 0.7C-1.5 0.1 -0.8 -1.2 0 -1.2C0.7 -1.2 1.4 0 1 0.6Z" fill="#ffffff"></path></g><g transform="translate(28 843)"><path d="M3.3 2.2C2.2 3.8 -2.2 3.8 -3.3 2.2C-4.4 0.6 -2.2 -2.5 0 -2.5C2.2 -2.5 4.4 0.7 3.3 2.2Z" fill="#ffffff"></path></g><g transform="translate(155 78)"><path d="M3.7 2.6C2.8 3.6 -1.2 3.3 -2.3 2.1C-3.5 0.9 -1.7 -1.3 0.3 -1.1C2.3 -0.9 4.6 1.5 3.7 2.6Z" fill="#ffffff"></path></g><g transform="translate(244 811)"><path d="M2.9 2.4C1.8 3.7 -2.6 3.9 -3.7 2.7C-4.7 1.4 -2.3 -1.2 -0.1 -1.3C2.1 -1.4 4.1 1.1 2.9 2.4Z" fill="#ffffff"></path></g><g transform="translate(64 680)"><path d="M0.3 0.3C0.1 0.7 -0.8 0.8 -0.9 0.5C-1.1 0.2 -0.5 -0.6 -0.1 -0.7C0.3 -0.8 0.6 -0.1 0.3 0.3Z" fill="#ffffff"></path></g><g transform="translate(178 499)"><path d="M6.2 3.1C5.5 4.7 0.7 3.5 -1 1.3C-2.7 -0.9 -1.3 -4.1 1 -3.5C3.4 -2.9 6.8 1.5 6.2 3.1Z" fill="#ffffff"></path></g><g transform="translate(572 788)"><path d="M1.7 1C1.2 1.9 -1 1.8 -1.5 1C-2.1 0.1 -1 -1.5 0 -1.5C1.1 -1.5 2.2 0.2 1.7 1Z" fill="#ffffff"></path></g><g transform="translate(440 585)"><path d="M0.4 0.2C-0.1 1.1 -1.6 1.4 -1.8 0.7C-2 0 -1 -1.8 -0.3 -1.9C0.5 -2.1 0.9 -0.7 0.4 0.2Z" fill="#ffffff"></path></g><g transform="translate(104 263)"><path d="M2.1 1.4C0.6 3.8 -4.2 4.5 -5.1 2.4C-6 0.3 -3 -4.5 -0.6 -4.9C1.8 -5.2 3.6 -1.1 2.1 1.4Z" fill="#ffffff"></path></g><g transform="translate(160 419)"><path d="M0.3 0.2C0.2 0.3 -0.1 0.3 -0.2 0.2C-0.4 0.1 -0.2 -0.2 0 -0.2C0.2 -0.2 0.4 0.1 0.3 0.2Z" fill="#ffffff"></path></g><g transform="translate(205 389)"><path d="M0.4 0.2C0.4 0.4 -0.1 0.3 -0.2 0.1C-0.3 -0.1 -0.2 -0.5 0 -0.4C0.3 -0.4 0.5 0 0.4 0.2Z" fill="#ffffff"></path></g><g transform="translate(2 389)"><path d="M2.8 2.1C1.7 3.5 -2.4 3.6 -3.4 2.3C-4.4 0.9 -2.2 -2 -0.1 -2C1.9 -2.1 3.9 0.6 2.8 2.1Z" fill="#ffffff"></path></g><g transform="translate(610 853)"><path d="M1.2 0.5C0.2 2.4 -2.9 3 -3.4 1.2C-4 -0.5 -2 -4.5 -0.4 -4.7C1.1 -5 2.2 -1.5 1.2 0.5Z" fill="#ffffff"></path></g><g transform="translate(238 212)"><path d="M1.2 0.9C0.2 2.4 -2.8 2.9 -3.4 1.6C-3.9 0.4 -2 -2.6 -0.4 -2.8C1.1 -3.1 2.2 -0.6 1.2 0.9Z" fill="#ffffff"></path></g><g transform="translate(469 411)"><path d="M1.8 1.9C0.4 3.4 -3.9 4.1 -4.7 2.9C-5.5 1.7 -2.8 -1.3 -0.6 -1.7C1.6 -2 3.2 0.4 1.8 1.9Z" fill="#ffffff"></path></g><g transform="translate(1 680)"><path d="M0.7 0.5C0.5 0.8 -0.4 0.8 -0.6 0.4C-0.9 0.1 -0.4 -0.6 0 -0.6C0.5 -0.6 0.9 0.1 0.7 0.5Z" fill="#ffffff"></path></g><g transform="translate(115 1)"><path d="M1.8 0.9C1.5 1.7 -0.3 1.5 -0.9 0.6C-1.4 -0.3 -0.7 -1.8 0.2 -1.6C1.1 -1.5 2.2 0.2 1.8 0.9Z" fill="#ffffff"></path></g><g transform="translate(635 802)"><path d="M5 2.5C3.7 5.2 -2.2 5 -3.8 2.1C-5.4 -0.8 -2.7 -6.3 0.2 -6.2C3.2 -6 6.4 -0.3 5 2.5Z" fill="#ffffff"></path></g><g transform="translate(261 778)"><path d="M2.5 1C1.9 2.3 -0.6 2.1 -1.4 0.6C-2.1 -0.8 -1.1 -3.5 0.2 -3.3C1.5 -3.2 3 -0.3 2.5 1Z" fill="#ffffff"></path></g><g transform="translate(513 550)"><path d="M2.3 1.2C1.2 3.3 -2.8 3.6 -3.6 1.7C-4.5 -0.3 -2.2 -4.4 -0.3 -4.5C1.7 -4.7 3.4 -0.9 2.3 1.2Z" fill="#ffffff"></path></g><g transform="translate(526 863)"><path d="M3.3 1.7C2.4 3.5 -1.6 3.4 -2.6 1.5C-3.7 -0.3 -1.9 -3.9 0.1 -3.8C2.1 -3.7 4.2 0 3.3 1.7Z" fill="#ffffff"></path></g><g transform="translate(57 148)"><path d="M0.7 0.4C0 1.6 -2 2 -2.4 1C-2.7 0 -1.4 -2.4 -0.3 -2.6C0.7 -2.8 1.4 -0.8 0.7 0.4Z" fill="#ffffff"></path></g><g transform="translate(301 800)"><path d="M0.2 0.1C0 0.5 -0.7 0.7 -0.8 0.3C-0.9 0 -0.5 -0.7 -0.1 -0.8C0.2 -0.9 0.5 -0.2 0.2 0.1Z" fill="#ffffff"></path></g></g></svg>