<svg id="visual" viewBox="0 0 900 450" width="900" height="450" xmlns="http://www.w3.org/2000/svg" xmlns:xlink="http://www.w3.org/1999/xlink" version="1.1"><g><g transform="translate(459 308)"><path d="M1.1 0.3C0.6 1.6 -1.4 1.8 -1.8 0.5C-2.2 -0.8 -1.1 -3.5 -0.1 -3.6C0.8 -3.6 1.7 -1.1 1.1 0.3Z" fill="#ffffff"></path></g><g transform="translate(469 113)"><path d="M2.7 1.5C1.9 2.9 -1.4 2.8 -2.3 1.4C-3.1 0 -1.6 -2.7 0.1 -2.6C1.7 -2.6 3.4 0.2 2.7 1.5Z" fill="#ffffff"></path></g><g transform="translate(328 221)"><path d="M3.9 1.5C3.5 2.9 0.7 2.1 -0.4 0.3C-1.5 -1.5 -0.7 -4.3 0.7 -3.9C2.1 -3.5 4.2 0.1 3.9 1.5Z" fill="#ffffff"></path></g><g transform="translate(75 137)"><path d="M1.8 1.5C0.5 3.3 -3.7 3.9 -4.5 2.4C-5.3 1 -2.6 -2.6 -0.5 -2.9C1.6 -3.2 3.1 -0.3 1.8 1.5Z" fill="#ffffff"></path></g><g transform="translate(596 432)"><path d="M0.9 0.3C0.7 0.9 -0.3 0.8 -0.5 0.2C-0.8 -0.4 -0.4 -1.5 0.1 -1.5C0.5 -1.4 1.1 -0.3 0.9 0.3Z" fill="#ffffff"></path></g><g transform="translate(484 13)"><path d="M2.1 1.3C1.5 2.1 -0.9 2 -1.5 1.1C-2.2 0.1 -1.1 -1.6 0.1 -1.5C1.3 -1.5 2.6 0.4 2.1 1.3Z" fill="#ffffff"></path></g><g transform="translate(145 334)"><path d="M3.2 2.4C2.1 3.6 -2 3.6 -3.1 2.3C-4.1 1.1 -2 -1.3 0 -1.3C2.1 -1.3 4.2 1.2 3.2 2.4Z" fill="#ffffff"></path></g><g transform="translate(12 91)"><path d="M0.3 0.2C0.1 0.4 -0.4 0.4 -0.5 0.3C-0.6 0.1 -0.3 -0.3 0 -0.3C0.2 -0.3 0.4 0 0.3 0.2Z" fill="#ffffff"></path></g><g transform="translate(113 52)"><path d="M4 3.4C2.7 4.6 -2.6 4.5 -3.9 3.3C-5.2 2.1 -2.6 -0.2 0 -0.2C2.6 -0.2 5.3 2.2 4 3.4Z" fill="#ffffff"></path></g><g transform="translate(182 296)"><path d="M0.4 0.3C0.4 0.4 0 0.3 -0.2 0.2C-0.3 0.1 -0.1 -0.1 0.1 -0.1C0.3 0 0.5 0.2 0.4 0.3Z" fill="#ffffff"></path></g><g transform="translate(402 308)"><path d="M0.2 0.1C0.1 0.2 -0.2 0.3 -0.3 0.1C-0.3 0 -0.2 -0.3 0 -0.3C0.1 -0.3 0.2 0 0.2 0.1Z" fill="#ffffff"></path></g><g transform="translate(306 34)"><path d="M2.7 1.9C1.9 2.9 -1.4 2.8 -2.3 1.8C-3.2 0.7 -1.6 -1.3 0.1 -1.3C1.7 -1.2 3.5 0.9 2.7 1.9Z" fill="#ffffff"></path></g><g transform="translate(755 83)"><path d="M0.9 0.6C-0.3 2.5 -3.6 3.3 -4.1 1.7C-4.6 0.1 -2.3 -3.8 -0.6 -4.2C1 -4.6 2 -1.4 0.9 0.6Z" fill="#ffffff"></path></g><g transform="translate(669 176)"><path d="M0.3 0.1C0.2 0.2 0 0.2 -0.1 0C-0.2 -0.1 -0.1 -0.4 0 -0.3C0.2 -0.3 0.3 0 0.3 0.1Z" fill="#ffffff"></path></g><g transform="translate(375 321)"><path d="M2 1.5C0.7 3.3 -3.3 3.8 -4.1 2.3C-4.9 0.7 -2.5 -2.8 -0.4 -3C1.6 -3.3 3.2 -0.3 2 1.5Z" fill="#ffffff"></path></g><g transform="translate(708 68)"><path d="M1.2 0.7C0.8 1.3 -0.7 1.3 -1.1 0.7C-1.5 0.1 -0.7 -1.1 0 -1.1C0.8 -1.1 1.6 0.1 1.2 0.7Z" fill="#ffffff"></path></g><g transform="translate(778 291)"><path d="M2.1 0.8C1.8 1.7 0.1 1.3 -0.5 0.3C-1.1 -0.8 -0.5 -2.5 0.3 -2.4C1.2 -2.2 2.3 -0.1 2.1 0.8Z" fill="#ffffff"></path></g><g transform="translate(207 69)"><path d="M1.4 0.5C0.8 1.7 -1.2 1.8 -1.6 0.6C-2.1 -0.6 -1.1 -2.9 -0.1 -3C0.9 -3 1.9 -0.7 1.4 0.5Z" fill="#ffffff"></path></g><g transform="translate(885 286)"><path d="M1.6 1.5C0.8 2.3 -2 2.6 -2.6 1.9C-3.2 1.2 -1.6 -0.4 -0.2 -0.5C1.2 -0.6 2.4 0.7 1.6 1.5Z" fill="#ffffff"></path></g><g transform="translate(566 160)"><path d="M1.3 1.8C0 3.1 -4.1 3.9 -4.7 3C-5.4 2.2 -2.7 -0.4 -0.7 -0.8C1.3 -1.1 2.7 0.6 1.3 1.8Z" fill="#ffffff"></path></g><g transform="translate(608 333)"><path d="M0.5 0.2C0.3 0.6 -0.4 0.6 -0.6 0.2C-0.7 -0.2 -0.4 -1.1 0 -1.1C0.3 -1.1 0.7 -0.3 0.5 0.2Z" fill="#ffffff"></path></g><g transform="translate(332 28)"><path d="M2.7 1.1C2.2 2.5 -0.5 2.2 -1.3 0.6C-2.1 -1 -1.1 -3.8 0.3 -3.6C1.6 -3.4 3.3 -0.3 2.7 1.1Z" fill="#ffffff"></path></g><g transform="translate(239 238)"><path d="M3.1 2.1C1.7 4.1 -3.2 4.4 -4.3 2.5C-5.4 0.6 -2.7 -3.4 -0.2 -3.6C2.2 -3.7 4.4 0.1 3.1 2.1Z" fill="#ffffff"></path></g><g transform="translate(526 52)"><path d="M1.1 0.5C0.6 1.6 -1.3 1.7 -1.7 0.7C-2.1 -0.3 -1.1 -2.4 -0.1 -2.5C0.8 -2.5 1.6 -0.6 1.1 0.5Z" fill="#ffffff"></path></g><g transform="translate(831 99)"><path d="M0.9 0.6C0.5 1.2 -0.9 1.3 -1.2 0.7C-1.6 0.2 -0.8 -1 -0.1 -1C0.7 -1 1.3 0.1 0.9 0.6Z" fill="#ffffff"></path></g><g transform="translate(436 422)"><path d="M3.5 1.6C2.7 3.3 -1 3 -2.1 1.1C-3.1 -0.8 -1.6 -4.3 0.3 -4.2C2.1 -4 4.2 -0.2 3.5 1.6Z" fill="#ffffff"></path></g><g transform="translate(895 400)"><path d="M1.8 0.9C1.2 2.1 -1.2 2.1 -1.8 0.9C-2.4 -0.3 -1.2 -2.6 0 -2.6C1.2 -2.6 2.4 -0.3 1.8 0.9Z" fill="#ffffff"></path></g><g transform="translate(208 276)"><path d="M0.3 0.4C-0.6 1.6 -2.8 2.3 -3.1 1.4C-3.4 0.5 -1.7 -2 -0.6 -2.3C0.6 -2.6 1.1 -0.8 0.3 0.4Z" fill="#ffffff"></path></g><g transform="translate(361 365)"><path d="M1.1 0.3C0.2 2.3 -2.8 2.9 -3.4 1.1C-3.9 -0.7 -2 -4.7 -0.4 -5C1.1 -5.2 2.1 -1.7 1.1 0.3Z" fill="#ffffff"></path></g><g transform="translate(408 63)"><path d="M0.3 0.6C-0.8 2 -3.5 2.8 -3.9 1.9C-4.2 1 -2.1 -1.8 -0.7 -2.2C0.7 -2.6 1.4 -0.7 0.3 0.6Z" fill="#ffffff"></path></g><g transform="translate(484 296)"><path d="M1 0.5C0.8 0.8 0 0.6 -0.3 0.3C-0.5 -0.1 -0.3 -0.7 0.1 -0.6C0.5 -0.5 1.1 0.2 1 0.5Z" fill="#ffffff"></path></g><g transform="translate(676 285)"><path d="M3.4 1.3C2.9 2.8 0 2.2 -0.9 0.4C-1.9 -1.3 -0.9 -4.3 0.5 -4C1.9 -3.7 3.8 -0.2 3.4 1.3Z" fill="#ffffff"></path></g><g transform="translate(351 46)"><path d="M0.9 0.2C0.6 1.1 -0.7 1.1 -1 0.2C-1.3 -0.7 -0.6 -2.5 0 -2.5C0.6 -2.5 1.2 -0.7 0.9 0.2Z" fill="#ffffff"></path></g><g transform="translate(52 327)"><path d="M0.9 0.4C0.2 1.7 -1.9 2 -2.3 0.8C-2.7 -0.3 -1.3 -2.9 -0.3 -3.1C0.8 -3.2 1.5 -1 0.9 0.4Z" fill="#ffffff"></path></g><g transform="translate(474 447)"><path d="M2.2 1.8C1.3 2.9 -2.2 3.1 -3 2.1C-3.8 1 -1.9 -1.2 -0.2 -1.3C1.6 -1.4 3.2 0.7 2.2 1.8Z" fill="#ffffff"></path></g><g transform="translate(816 283)"><path d="M2.7 2.5C1.6 3.5 -2.6 3.7 -3.6 2.8C-4.5 1.8 -2.3 -0.3 -0.2 -0.4C1.9 -0.5 3.9 1.4 2.7 2.5Z" fill="#ffffff"></path></g><g transform="translate(236 72)"><path d="M2.7 0.7C2.3 2.2 0 1.8 -0.8 0C-1.5 -1.8 -0.8 -4.9 0.4 -4.7C1.5 -4.4 3.1 -0.9 2.7 0.7Z" fill="#ffffff"></path></g><g transform="translate(535 199)"><path d="M0.3 0.2C0.1 0.6 -0.7 0.7 -0.8 0.3C-1 0 -0.5 -0.9 -0.1 -1C0.3 -1 0.5 -0.3 0.3 0.2Z" fill="#ffffff"></path></g><g transform="translate(371 294)"><path d="M1.3 0.6C1.1 1.2 -0.2 1.1 -0.6 0.4C-1 -0.3 -0.5 -1.6 0.1 -1.5C0.8 -1.4 1.6 0 1.3 0.6Z" fill="#ffffff"></path></g><g transform="translate(666 137)"><path d="M0.3 0.2C0.2 0.4 -0.3 0.4 -0.4 0.3C-0.5 0.1 -0.3 -0.3 0 -0.3C0.2 -0.3 0.5 0.1 0.3 0.2Z" fill="#ffffff"></path></g><g transform="translate(709 213)"><path d="M1.9 1.6C1 2.5 -1.9 2.7 -2.6 1.9C-3.3 1.1 -1.6 -0.7 -0.1 -0.8C1.3 -0.9 2.7 0.7 1.9 1.6Z" fill="#ffffff"></path></g><g transform="translate(897 358)"><path d="M0.2 0.1C-0.3 0.9 -1.6 1.3 -1.8 0.7C-1.9 0 -1 -1.7 -0.3 -1.9C0.3 -2.1 0.6 -0.7 0.2 0.1Z" fill="#ffffff"></path></g><g transform="translate(616 234)"><path d="M1.2 0.7C1 1 0 0.8 -0.4 0.4C-0.7 -0.1 -0.4 -0.9 0.2 -0.8C0.7 -0.7 1.4 0.3 1.2 0.7Z" fill="#ffffff"></path></g><g transform="translate(167 327)"><path d="M1.3 0.7C1.1 1.1 -0.1 1 -0.5 0.4C-0.9 -0.1 -0.4 -1 0.2 -0.9C0.8 -0.8 1.5 0.3 1.3 0.7Z" fill="#ffffff"></path></g><g transform="translate(20 31)"><path d="M0.6 0.4C0.1 1.2 -1.4 1.4 -1.6 0.7C-1.9 0.1 -1 -1.5 -0.2 -1.7C0.5 -1.8 1.1 -0.4 0.6 0.4Z" fill="#ffffff"></path></g><g transform="translate(92 296)"><path d="M2.3 1.4C1.4 2.9 -2.1 3.1 -2.9 1.6C-3.7 0.2 -1.9 -2.9 -0.1 -3C1.6 -3 3.2 -0.1 2.3 1.4Z" fill="#ffffff"></path></g><g transform="translate(443 289)"><path d="M1.2 0.5C0.7 1.6 -1.2 1.7 -1.6 0.7C-2 -0.3 -1 -2.4 -0.1 -2.4C0.8 -2.5 1.7 -0.5 1.2 0.5Z" fill="#ffffff"></path></g><g transform="translate(732 366)"><path d="M3 1.4C2.7 2.4 0.3 1.8 -0.6 0.5C-1.4 -0.7 -0.7 -2.7 0.5 -2.4C1.7 -2.1 3.4 0.4 3 1.4Z" fill="#ffffff"></path></g><g transform="translate(804 395)"><path d="M1.4 0.6C0.5 2.3 -2.3 2.6 -2.8 1.1C-3.4 -0.4 -1.7 -3.8 -0.3 -4C1.1 -4.1 2.2 -1.1 1.4 0.6Z" fill="#ffffff"></path></g><g transform="translate(650 397)"><path d="M0.5 0.1C0.4 0.5 -0.1 0.4 -0.3 0.1C-0.4 -0.3 -0.2 -1 0 -0.9C0.3 -0.9 0.6 -0.2 0.5 0.1Z" fill="#ffffff"></path></g><g transform="translate(520 83)"><path d="M3.7 2C3 3.5 -0.8 3.1 -1.9 1.4C-3.1 -0.2 -1.5 -3 0.4 -2.8C2.2 -2.6 4.5 0.6 3.7 2Z" fill="#ffffff"></path></g><g transform="translate(40 202)"><path d="M1.4 0.7C1.2 1.1 0 0.9 -0.4 0.4C-0.7 -0.1 -0.4 -0.9 0.2 -0.8C0.8 -0.7 1.6 0.3 1.4 0.7Z" fill="#ffffff"></path></g><g transform="translate(270 299)"><path d="M2.1 1.3C1.4 2.5 -1.4 2.5 -2.2 1.3C-2.9 0.2 -1.4 -2.1 0 -2.1C1.4 -2.1 2.8 0.2 2.1 1.3Z" fill="#ffffff"></path></g><g transform="translate(185 115)"><path d="M0.9 1.1C0 2.1 -2.7 2.6 -3.1 1.8C-3.6 1.1 -1.8 -0.9 -0.4 -1.2C0.9 -1.4 1.8 0.1 0.9 1.1Z" fill="#ffffff"></path></g><g transform="translate(29 181)"><path d="M3.1 2.1C2.1 3.6 -2 3.6 -3.1 2.1C-4.1 0.6 -2 -2.3 0 -2.3C2.1 -2.3 4.1 0.6 3.1 2.1Z" fill="#ffffff"></path></g><g transform="translate(473 348)"><path d="M1.9 1.1C1.7 1.5 0.2 1.1 -0.3 0.6C-0.8 0 -0.4 -0.7 0.3 -0.5C1.1 -0.3 2.1 0.8 1.9 1.1Z" fill="#ffffff"></path></g><g transform="translate(511 6)"><path d="M0.2 0.2C-0.1 0.5 -0.7 0.7 -0.8 0.5C-0.9 0.3 -0.5 -0.3 -0.1 -0.4C0.2 -0.4 0.4 0 0.2 0.2Z" fill="#ffffff"></path></g><g transform="translate(800 261)"><path d="M2.7 1.6C1.9 3 -1.5 2.9 -2.4 1.5C-3.3 0 -1.7 -2.9 0.1 -2.8C1.8 -2.8 3.5 0.1 2.7 1.6Z" fill="#ffffff"></path></g><g transform="translate(767 378)"><path d="M0.2 0.1C-0.4 1 -1.8 1.4 -1.9 0.7C-2.1 -0.1 -1.1 -1.9 -0.4 -2.1C0.3 -2.4 0.7 -0.9 0.2 0.1Z" fill="#ffffff"></path></g><g transform="translate(111 435)"><path d="M3.2 1.6C2.8 2.7 -0.1 2.2 -1 0.8C-2 -0.6 -1 -2.9 0.4 -2.7C1.9 -2.4 3.7 0.4 3.2 1.6Z" fill="#ffffff"></path></g><g transform="translate(20 307)"><path d="M0.3 0.1C0.2 0.3 -0.1 0.3 -0.2 0.1C-0.3 -0.1 -0.1 -0.4 0 -0.4C0.2 -0.4 0.4 -0.1 0.3 0.1Z" fill="#ffffff"></path></g><g transform="translate(838 426)"><path d="M0.5 0.8C-0.2 1.6 -2.3 2 -2.6 1.5C-2.9 1.1 -1.4 -0.4 -0.4 -0.6C0.6 -0.9 1.2 0.1 0.5 0.8Z" fill="#ffffff"></path></g><g transform="translate(543 139)"><path d="M0.8 0.6C0.4 1.2 -1.1 1.3 -1.4 0.7C-1.7 0.2 -0.8 -1.1 -0.1 -1.2C0.6 -1.2 1.2 -0.1 0.8 0.6Z" fill="#ffffff"></path></g><g transform="translate(498 116)"><path d="M0.8 0.5C0.5 0.9 -0.6 1 -0.9 0.6C-1.1 0.2 -0.6 -0.6 0 -0.6C0.5 -0.6 1.1 0.1 0.8 0.5Z" fill="#ffffff"></path></g><g transform="translate(114 148)"><path d="M0.2 0.2C0.1 0.4 -0.4 0.4 -0.4 0.3C-0.5 0.1 -0.3 -0.3 0 -0.3C0.2 -0.3 0.4 0 0.2 0.2Z" fill="#ffffff"></path></g><g transform="translate(522 150)"><path d="M1.5 0.7C1.3 1.1 0.2 0.8 -0.2 0.2C-0.6 -0.4 -0.3 -1.3 0.3 -1.1C0.8 -1 1.7 0.2 1.5 0.7Z" fill="#ffffff"></path></g><g transform="translate(275 166)"><path d="M0.3 0.3C-0.1 0.8 -1.1 1.1 -1.3 0.7C-1.5 0.3 -0.7 -0.8 -0.2 -0.9C0.3 -1 0.7 -0.2 0.3 0.3Z" fill="#ffffff"></path></g><g transform="translate(424 326)"><path d="M0.9 0.5C0.7 0.9 -0.4 0.9 -0.7 0.4C-0.9 -0.1 -0.5 -1 0 -0.9C0.6 -0.9 1.1 0 0.9 0.5Z" fill="#ffffff"></path></g><g transform="translate(194 93)"><path d="M0.4 0.2C0.3 0.3 -0.1 0.3 -0.2 0.1C-0.3 -0.1 -0.2 -0.4 0 -0.4C0.2 -0.3 0.4 0 0.4 0.2Z" fill="#ffffff"></path></g><g transform="translate(798 72)"><path d="M1.7 0.9C1.4 1.6 -0.3 1.4 -0.8 0.6C-1.3 -0.2 -0.7 -1.5 0.2 -1.4C1 -1.2 2.1 0.3 1.7 0.9Z" fill="#ffffff"></path></g><g transform="translate(24 362)"><path d="M0.6 0.6C0.1 1 -1.2 1.2 -1.4 0.9C-1.7 0.5 -0.8 -0.4 -0.2 -0.5C0.5 -0.6 1 0.1 0.6 0.6Z" fill="#ffffff"></path></g><g transform="translate(617 151)"><path d="M0.7 0.5C0.4 1.1 -1 1.2 -1.3 0.6C-1.5 0.1 -0.8 -1.2 -0.1 -1.3C0.6 -1.3 1.1 -0.2 0.7 0.5Z" fill="#ffffff"></path></g><g transform="translate(528 176)"><path d="M0.7 0.5C0.3 1 -0.9 1.1 -1.2 0.7C-1.4 0.2 -0.7 -0.9 -0.1 -1C0.5 -1 1.1 -0.1 0.7 0.5Z" fill="#ffffff"></path></g><g transform="translate(93 22)"><path d="M4 1.9C3.3 3.4 -0.3 2.8 -1.4 1C-2.6 -0.8 -1.3 -3.9 0.5 -3.6C2.3 -3.3 4.6 0.4 4 1.9Z" fill="#ffffff"></path></g><g transform="translate(98 370)"><path d="M1.6 0.7C0.9 2.2 -1.6 2.3 -2.2 0.9C-2.8 -0.4 -1.4 -3.2 -0.1 -3.3C1.2 -3.4 2.3 -0.7 1.6 0.7Z" fill="#ffffff"></path></g><g transform="translate(410 425)"><path d="M2.6 1.4C2.2 2.2 -0.1 1.8 -0.8 0.8C-1.6 -0.2 -0.8 -1.7 0.3 -1.5C1.5 -1.3 3 0.6 2.6 1.4Z" fill="#ffffff"></path></g><g transform="translate(100 333)"><path d="M0.5 0.3C0.1 1 -1.2 1.2 -1.4 0.6C-1.7 0 -0.8 -1.4 -0.2 -1.5C0.5 -1.6 1 -0.4 0.5 0.3Z" fill="#ffffff"></path></g><g transform="translate(192 426)"><path d="M2 1.2C1.4 2 -0.8 1.9 -1.5 1C-2.1 0.1 -1 -1.6 0.1 -1.6C1.2 -1.5 2.5 0.3 2 1.2Z" fill="#ffffff"></path></g><g transform="translate(275 361)"><path d="M3.5 1.9C3.1 2.8 0.2 2.1 -0.7 1C-1.7 -0.2 -0.9 -1.9 0.6 -1.5C2 -1.2 3.9 1.1 3.5 1.9Z" fill="#ffffff"></path></g><g transform="translate(229 338)"><path d="M1.8 0.8C1.5 1.7 -0.3 1.5 -0.9 0.5C-1.4 -0.5 -0.7 -2.3 0.2 -2.1C1.1 -2 2.2 -0.1 1.8 0.8Z" fill="#ffffff"></path></g><g transform="translate(513 274)"><path d="M0 0C-0.1 0.2 -0.4 0.3 -0.5 0.2C-0.5 0 -0.2 -0.4 -0.1 -0.5C0.1 -0.5 0.2 -0.2 0 0Z" fill="#ffffff"></path></g><g transform="translate(266 139)"><path d="M4.3 2.2C3.1 4.4 -1.8 4.2 -3.2 1.8C-4.5 -0.6 -2.3 -5 0.2 -4.9C2.7 -4.8 5.4 -0.1 4.3 2.2Z" fill="#ffffff"></path></g><g transform="translate(498 342)"><path d="M1.9 1.1C1.1 2.4 -1.7 2.5 -2.3 1.3C-3 0.1 -1.5 -2.4 -0.1 -2.5C1.3 -2.5 2.6 -0.1 1.9 1.1Z" fill="#ffffff"></path></g><g transform="translate(80 173)"><path d="M0.4 0.2C0.1 0.9 -1.1 1.1 -1.2 0.5C-1.4 0 -0.7 -1.3 -0.2 -1.4C0.4 -1.5 0.8 -0.4 0.4 0.2Z" fill="#ffffff"></path></g><g transform="translate(627 52)"><path d="M0.3 0.2C-0.1 0.9 -1.4 1.2 -1.5 0.6C-1.7 0 -0.9 -1.5 -0.2 -1.6C0.4 -1.8 0.7 -0.6 0.3 0.2Z" fill="#ffffff"></path></g><g transform="translate(259 345)"><path d="M3.3 1.4C2.9 2.6 0.3 2 -0.6 0.5C-1.5 -1 -0.8 -3.3 0.5 -3C1.9 -2.6 3.7 0.3 3.3 1.4Z" fill="#ffffff"></path></g><g transform="translate(150 238)"><path d="M3.3 1.7C2.6 3.2 -0.9 2.8 -1.9 1.2C-2.9 -0.4 -1.5 -3.3 0.3 -3.1C2 -3 4 0.3 3.3 1.7Z" fill="#ffffff"></path></g><g transform="translate(152 161)"><path d="M5.1 1.9C4.6 3.8 0.8 2.8 -0.6 0.4C-2 -2 -1 -5.8 0.9 -5.3C2.8 -4.8 5.6 0 5.1 1.9Z" fill="#ffffff"></path></g><g transform="translate(316 153)"><path d="M1.5 0.7C1.2 1.4 -0.3 1.2 -0.7 0.5C-1.2 -0.3 -0.6 -1.6 0.2 -1.5C0.9 -1.4 1.8 0.1 1.5 0.7Z" fill="#ffffff"></path></g><g transform="translate(125 105)"><path d="M0.2 0.1C0.1 0.3 -0.2 0.3 -0.3 0.2C-0.4 0 -0.2 -0.3 0 -0.3C0.2 -0.3 0.3 0 0.2 0.1Z" fill="#ffffff"></path></g><g transform="translate(203 205)"><path d="M2.9 1.6C2.2 3 -1.1 2.8 -2.1 1.3C-3 -0.1 -1.5 -2.7 0.2 -2.6C1.8 -2.5 3.7 0.3 2.9 1.6Z" fill="#ffffff"></path></g><g transform="translate(871 70)"><path d="M1.3 0.6C1 1.4 -0.6 1.3 -1 0.5C-1.4 -0.3 -0.7 -1.8 0.1 -1.7C0.8 -1.7 1.7 -0.1 1.3 0.6Z" fill="#ffffff"></path></g><g transform="translate(162 5)"><path d="M0.2 0.1C0.1 0.3 -0.2 0.3 -0.3 0.1C-0.4 0 -0.2 -0.4 0 -0.4C0.1 -0.4 0.3 -0.1 0.2 0.1Z" fill="#ffffff"></path></g><g transform="translate(727 337)"><path d="M0.8 0.5C0 1.8 -2.4 2.3 -2.8 1.2C-3.2 0 -1.6 -2.6 -0.4 -2.9C0.8 -3.1 1.6 -0.8 0.8 0.5Z" fill="#ffffff"></path></g><g transform="translate(658 252)"><path d="M2.1 1C1.8 1.6 0.2 1.2 -0.4 0.5C-1 -0.3 -0.5 -1.4 0.3 -1.2C1.2 -1 2.3 0.5 2.1 1Z" fill="#ffffff"></path></g><g transform="translate(587 182)"><path d="M3.3 1.9C2.7 2.9 -0.5 2.5 -1.5 1.2C-2.4 0 -1.2 -2.2 0.4 -2C1.9 -1.7 3.9 0.8 3.3 1.9Z" fill="#ffffff"></path></g><g transform="translate(818 365)"><path d="M3.1 1.7C2.2 3.3 -1.5 3.1 -2.5 1.5C-3.4 -0.2 -1.7 -3.3 0.1 -3.2C2 -3.2 3.9 0.1 3.1 1.7Z" fill="#ffffff"></path></g><g transform="translate(670 207)"><path d="M3.4 1.7C2.8 3 -0.5 2.6 -1.5 1.1C-2.5 -0.4 -1.2 -3 0.4 -2.8C2 -2.6 4 0.5 3.4 1.7Z" fill="#ffffff"></path></g><g transform="translate(550 424)"><path d="M1.2 1C0.7 1.5 -1 1.6 -1.5 1.1C-1.9 0.6 -0.9 -0.4 -0.1 -0.4C0.8 -0.4 1.7 0.5 1.2 1Z" fill="#ffffff"></path></g><g transform="translate(248 437)"><path d="M0.4 0.2C0.4 0.4 0 0.3 -0.2 0.1C-0.3 -0.1 -0.1 -0.5 0.1 -0.5C0.2 -0.5 0.5 0 0.4 0.2Z" fill="#ffffff"></path></g><g transform="translate(700 143)"><path d="M2.1 1.7C1.2 2.7 -2.1 2.9 -2.8 1.9C-3.5 1 -1.8 -1.1 -0.1 -1.2C1.5 -1.3 3 0.6 2.1 1.7Z" fill="#ffffff"></path></g><g transform="translate(20 391)"><path d="M2.6 2C1.8 2.9 -1.6 2.9 -2.4 1.9C-3.3 1 -1.6 -0.9 0 -0.9C1.7 -0.9 3.4 1 2.6 2Z" fill="#ffffff"></path></g><g transform="translate(780 446)"><path d="M0.1 0.1C0 0.3 -0.4 0.4 -0.5 0.3C-0.5 0.1 -0.3 -0.2 -0.1 -0.2C0.1 -0.2 0.3 0 0.1 0.1Z" fill="#ffffff"></path></g><g transform="translate(387 103)"><path d="M0.3 0.3C0.2 0.4 -0.3 0.4 -0.4 0.3C-0.5 0.2 -0.2 -0.1 0 -0.1C0.2 -0.1 0.5 0.1 0.3 0.3Z" fill="#ffffff"></path></g><g transform="translate(844 56)"><path d="M0.5 0.3C-0.1 1.3 -1.8 1.7 -2.1 0.8C-2.4 -0.1 -1.2 -2.2 -0.3 -2.4C0.5 -2.6 1.1 -0.8 0.5 0.3Z" fill="#ffffff"></path></g><g transform="translate(114 125)"><path d="M0.9 0.2C0.8 0.7 0.1 0.6 -0.2 -0.1C-0.4 -0.7 -0.2 -1.7 0.1 -1.7C0.5 -1.6 1 -0.3 0.9 0.2Z" fill="#ffffff"></path></g><g transform="translate(281 71)"><path d="M0.9 1C0 2.2 -2.9 2.7 -3.3 1.8C-3.8 0.9 -1.9 -1.6 -0.5 -1.8C0.9 -2.1 1.9 -0.3 0.9 1Z" fill="#ffffff"></path></g><g transform="translate(685 435)"><path d="M2.2 1.6C1.7 2.3 -0.8 2.1 -1.5 1.3C-2.2 0.5 -1.1 -0.8 0.1 -0.8C1.4 -0.7 2.8 0.9 2.2 1.6Z" fill="#ffffff"></path></g><g transform="translate(60 441)"><path d="M1.5 1C0.9 2 -1.4 2.1 -2 1.1C-2.5 0.2 -1.3 -1.8 -0.1 -1.9C1.1 -1.9 2.2 0 1.5 1Z" fill="#ffffff"></path></g><g transform="translate(892 165)"><path d="M0.1 0.2C-0.1 0.5 -0.8 0.7 -0.9 0.4C-1 0.2 -0.5 -0.5 -0.2 -0.6C0.2 -0.7 0.4 -0.2 0.1 0.2Z" fill="#ffffff"></path></g><g transform="translate(621 440)"><path d="M2.8 1.6C1.9 3.2 -1.8 3.1 -2.7 1.6C-3.6 0 -1.8 -3.2 0 -3.1C1.8 -3.1 3.7 0 2.8 1.6Z" fill="#ffffff"></path></g><g transform="translate(34 61)"><path d="M2.6 2.1C1.7 3 -1.7 3 -2.6 2.1C-3.4 1.2 -1.7 -0.6 0 -0.6C1.7 -0.6 3.5 1.2 2.6 2.1Z" fill="#ffffff"></path></g><g transform="translate(207 300)"><path d="M0.3 0.1C0.2 0.3 -0.1 0.3 -0.2 0.1C-0.3 0 -0.1 -0.3 0 -0.3C0.2 -0.3 0.3 0 0.3 0.1Z" fill="#ffffff"></path></g><g transform="translate(234 140)"><path d="M2.8 2.2C1.5 3.9 -3.1 4.2 -4.2 2.7C-5.2 1.2 -2.6 -2.1 -0.3 -2.3C2.1 -2.4 4.1 0.6 2.8 2.2Z" fill="#ffffff"></path></g><g transform="translate(407 6)"><path d="M1.9 1.3C1.4 2 -0.9 1.9 -1.5 1.2C-2.1 0.5 -1 -0.7 0.1 -0.7C1.2 -0.6 2.4 0.7 1.9 1.3Z" fill="#ffffff"></path></g><g transform="translate(626 114)"><path d="M2 1.2C1.5 2.2 -1.1 2.1 -1.7 1.1C-2.4 0 -1.2 -2 0.1 -2C1.3 -1.9 2.6 0.2 2 1.2Z" fill="#ffffff"></path></g><g transform="translate(708 247)"><path d="M0.9 0.9C0.1 1.9 -2.4 2.4 -2.8 1.6C-3.3 0.8 -1.6 -1.2 -0.4 -1.4C0.9 -1.6 1.7 -0.1 0.9 0.9Z" fill="#ffffff"></path></g><g transform="translate(335 347)"><path d="M0.4 0.3C0.2 0.6 -0.6 0.7 -0.7 0.4C-0.9 0.1 -0.4 -0.5 -0.1 -0.5C0.3 -0.6 0.6 0 0.4 0.3Z" fill="#ffffff"></path></g><g transform="translate(386 259)"><path d="M0.4 0.2C0.3 0.4 -0.1 0.4 -0.3 0.2C-0.4 0 -0.2 -0.4 0 -0.4C0.2 -0.4 0.5 0 0.4 0.2Z" fill="#ffffff"></path></g><g transform="translate(569 224)"><path d="M1.1 0.7C0.6 1.3 -0.9 1.4 -1.3 0.7C-1.6 0.1 -0.8 -1.2 0 -1.2C0.7 -1.3 1.5 0 1.1 0.7Z" fill="#ffffff"></path></g><g transform="translate(302 4)"><path d="M2.6 1.6C1.9 2.6 -1 2.5 -1.8 1.4C-2.7 0.3 -1.3 -1.8 0.1 -1.7C1.6 -1.6 3.3 0.6 2.6 1.6Z" fill="#ffffff"></path></g><g transform="translate(53 292)"><path d="M0.7 0.1C-0.3 2.1 -3.1 2.8 -3.5 1.1C-4 -0.6 -2 -4.6 -0.6 -5C0.9 -5.3 1.7 -1.9 0.7 0.1Z" fill="#ffffff"></path></g><g transform="translate(712 416)"><path d="M2.9 1.9C2.4 2.5 -0.2 2.1 -1.1 1.3C-1.9 0.5 -1 -0.7 0.4 -0.5C1.7 -0.3 3.4 1.3 2.9 1.9Z" fill="#ffffff"></path></g><g transform="translate(740 124)"><path d="M3.1 1.6C2.3 3.1 -1.1 2.8 -2.1 1.2C-3 -0.4 -1.5 -3.3 0.2 -3.2C1.9 -3.1 3.8 0.1 3.1 1.6Z" fill="#ffffff"></path></g><g transform="translate(145 75)"><path d="M1.5 1.7C0.4 2.8 -3.2 3.4 -3.8 2.5C-4.5 1.7 -2.2 -0.5 -0.5 -0.8C1.3 -1 2.7 0.6 1.5 1.7Z" fill="#ffffff"></path></g><g transform="translate(824 259)"><path d="M1.5 0.6C1.3 1.2 0.1 0.9 -0.3 0.2C-0.7 -0.5 -0.4 -1.7 0.2 -1.5C0.8 -1.4 1.7 0 1.5 0.6Z" fill="#ffffff"></path></g><g transform="translate(459 69)"><path d="M3.1 2.3C1.9 3.9 -2.7 4.1 -3.8 2.5C-4.9 0.9 -2.4 -2.4 -0.1 -2.5C2.2 -2.5 4.3 0.6 3.1 2.3Z" fill="#ffffff"></path></g><g transform="translate(161 352)"><path d="M1.9 0.3C1.6 1.6 -0.1 1.3 -0.6 -0.2C-1.2 -1.7 -0.6 -4.4 0.3 -4.2C1.1 -4.1 2.2 -1.1 1.9 0.3Z" fill="#ffffff"></path></g><g transform="translate(400 165)"><path d="M0.5 0.4C0.3 0.6 -0.4 0.6 -0.6 0.4C-0.8 0.2 -0.4 -0.3 0 -0.3C0.3 -0.3 0.6 0.1 0.5 0.4Z" fill="#ffffff"></path></g><g transform="translate(673 113)"><path d="M0.2 0.1C0 0.4 -0.5 0.5 -0.6 0.3C-0.7 0 -0.3 -0.6 -0.1 -0.6C0.2 -0.7 0.3 -0.2 0.2 0.1Z" fill="#ffffff"></path></g><g transform="translate(413 90)"><path d="M0.2 0.2C0 0.3 -0.4 0.4 -0.5 0.3C-0.6 0.1 -0.3 -0.2 -0.1 -0.2C0.2 -0.3 0.3 0 0.2 0.2Z" fill="#ffffff"></path></g><g transform="translate(679 372)"><path d="M1.3 0.6C0.3 2.5 -2.8 3 -3.4 1.4C-4 -0.2 -2 -3.9 -0.4 -4.2C1.2 -4.4 2.3 -1.2 1.3 0.6Z" fill="#ffffff"></path></g><g transform="translate(25 110)"><path d="M0.4 1.2C-0.8 2.2 -3.8 3.1 -4.2 2.5C-4.6 1.9 -2.3 -0.2 -0.8 -0.7C0.8 -1.1 1.5 0.1 0.4 1.2Z" fill="#ffffff"></path></g><g transform="translate(585 106)"><path d="M3.5 2.2C2.3 4.2 -2.5 4.2 -3.7 2.3C-4.9 0.4 -2.5 -3.4 0 -3.4C2.4 -3.4 4.7 0.3 3.5 2.2Z" fill="#ffffff"></path></g><g transform="translate(501 406)"><path d="M0.1 0.1C0 0.2 -0.4 0.3 -0.4 0.2C-0.5 0.1 -0.2 -0.2 -0.1 -0.2C0.1 -0.2 0.2 0 0.1 0.1Z" fill="#ffffff"></path></g><g transform="translate(587 345)"><path d="M0.2 0.1C0 0.4 -0.6 0.5 -0.7 0.3C-0.7 0 -0.4 -0.7 -0.1 -0.8C0.2 -0.8 0.4 -0.2 0.2 0.1Z" fill="#ffffff"></path></g><g transform="translate(713 277)"><path d="M3.2 2.4C2.3 3.4 -1.5 3.2 -2.5 2.2C-3.6 1.1 -1.8 -0.8 0.1 -0.8C2 -0.7 4 1.4 3.2 2.4Z" fill="#ffffff"></path></g><g transform="translate(751 406)"><path d="M1.8 0.9C1.6 1.4 0.2 1 -0.3 0.3C-0.8 -0.3 -0.4 -1.3 0.3 -1.2C1 -1 2 0.4 1.8 0.9Z" fill="#ffffff"></path></g><g transform="translate(311 288)"><path d="M2.6 1.6C2.1 2.4 -0.5 2.1 -1.3 1.2C-2.1 0.2 -1 -1.3 0.3 -1.2C1.6 -1 3.1 0.8 2.6 1.6Z" fill="#ffffff"></path></g><g transform="translate(502 316)"><path d="M0.7 0.2C0.5 0.7 -0.3 0.7 -0.5 0.1C-0.7 -0.4 -0.4 -1.4 0 -1.4C0.4 -1.4 0.9 -0.3 0.7 0.2Z" fill="#ffffff"></path></g><g transform="translate(449 447)"><path d="M0.5 0.6C-0.2 1.4 -2 1.8 -2.3 1.3C-2.5 0.8 -1.3 -0.7 -0.4 -0.9C0.5 -1.1 1.1 -0.1 0.5 0.6Z" fill="#ffffff"></path></g><g transform="translate(760 51)"><path d="M0.7 -0.3C0.5 0.9 -0.6 1 -0.9 -0.2C-1.1 -1.4 -0.6 -3.7 0 -3.8C0.5 -3.8 1 -1.4 0.7 -0.3Z" fill="#ffffff"></path></g><g transform="translate(254 36)"><path d="M0.2 0.1C0.2 0.2 -0.1 0.2 -0.1 0.1C-0.2 0 -0.1 -0.3 0 -0.2C0.1 -0.2 0.3 0 0.2 0.1Z" fill="#ffffff"></path></g><g transform="translate(545 114)"><path d="M2.9 1.5C2.2 2.9 -1.1 2.7 -2 1.1C-2.9 -0.4 -1.4 -3.3 0.2 -3.2C1.8 -3.1 3.6 0 2.9 1.5Z" fill="#ffffff"></path></g><g transform="translate(800 423)"><path d="M0.5 0.2C-0.8 2.5 -4.1 3.4 -4.6 1.6C-5 -0.2 -2.5 -4.7 -0.8 -5.1C0.9 -5.6 1.8 -2 0.5 0.2Z" fill="#ffffff"></path></g><g transform="translate(833 137)"><path d="M1 0.5C0.4 1.5 -1.4 1.7 -1.8 0.8C-2.2 0 -1.1 -1.9 -0.2 -2C0.8 -2.1 1.5 -0.4 1 0.5Z" fill="#ffffff"></path></g><g transform="translate(16 246)"><path d="M1 0.1C0.9 0.9 0 0.7 -0.3 -0.1C-0.6 -1 -0.3 -2.5 0.1 -2.4C0.6 -2.3 1.2 -0.7 1 0.1Z" fill="#ffffff"></path></g><g transform="translate(470 248)"><path d="M3.5 2.7C2.4 4 -2.3 4 -3.5 2.7C-4.6 1.3 -2.3 -1.4 0 -1.4C2.3 -1.4 4.7 1.3 3.5 2.7Z" fill="#ffffff"></path></g><g transform="translate(343 188)"><path d="M1.6 0.5C1.3 1.3 0 1 -0.4 0.1C-0.9 -0.8 -0.4 -2.3 0.2 -2.1C0.9 -2 1.8 -0.2 1.6 0.5Z" fill="#ffffff"></path></g><g transform="translate(864 229)"><path d="M3.8 2.3C2.8 4 -1.7 3.8 -2.9 2C-4.1 0.3 -2.1 -3 0.2 -2.9C2.4 -2.8 4.9 0.7 3.8 2.3Z" fill="#ffffff"></path></g><g transform="translate(689 396)"><path d="M1.4 0.8C0.6 2.2 -2.2 2.5 -2.7 1.3C-3.3 0 -1.6 -2.8 -0.3 -2.9C1.1 -3.1 2.2 -0.6 1.4 0.8Z" fill="#ffffff"></path></g><g transform="translate(423 365)"><path d="M0.8 0.4C0.3 1.2 -1.1 1.4 -1.4 0.7C-1.7 0 -0.9 -1.6 -0.1 -1.7C0.6 -1.7 1.2 -0.3 0.8 0.4Z" fill="#ffffff"></path></g><g transform="translate(444 189)"><path d="M1.9 1.4C1.3 2.3 -1.4 2.3 -2 1.4C-2.7 0.5 -1.3 -1.4 0 -1.4C1.3 -1.4 2.6 0.4 1.9 1.4Z" fill="#ffffff"></path></g><g transform="translate(651 320)"><path d="M4.7 3.5C3.7 4.5 -1.3 4.1 -2.7 2.8C-4.2 1.5 -2.1 -0.6 0.4 -0.3C2.9 -0.1 5.8 2.4 4.7 3.5Z" fill="#ffffff"></path></g><g transform="translate(468 137)"><path d="M2.4 1.4C1.7 2.6 -1.2 2.5 -2 1.2C-2.8 0 -1.4 -2.4 0.1 -2.4C1.5 -2.3 3.1 0.2 2.4 1.4Z" fill="#ffffff"></path></g><g transform="translate(230 15)"><path d="M0.8 0.5C0.7 0.7 -0.1 0.6 -0.4 0.3C-0.6 0 -0.3 -0.6 0.1 -0.6C0.5 -0.5 1 0.2 0.8 0.5Z" fill="#ffffff"></path></g><g transform="translate(431 236)"><path d="M2.6 1C2 2.5 -0.8 2.3 -1.6 0.7C-2.4 -0.9 -1.2 -3.9 0.2 -3.8C1.6 -3.7 3.2 -0.5 2.6 1Z" fill="#ffffff"></path></g><g transform="translate(112 258)"><path d="M1.8 0.9C1.6 1.5 0.1 1.1 -0.5 0.4C-1 -0.3 -0.5 -1.4 0.3 -1.3C1 -1.1 2 0.3 1.8 0.9Z" fill="#ffffff"></path></g><g transform="translate(252 323)"><path d="M0.4 0.6C-0.1 1.1 -1.5 1.4 -1.7 1.1C-1.9 0.8 -1 -0.1 -0.3 -0.3C0.4 -0.4 0.9 0.2 0.4 0.6Z" fill="#ffffff"></path></g><g transform="translate(757 242)"><path d="M0.5 0.4C0.3 0.8 -0.8 0.9 -1 0.5C-1.2 0.1 -0.6 -0.9 -0.1 -0.9C0.4 -1 0.8 -0.1 0.5 0.4Z" fill="#ffffff"></path></g><g transform="translate(492 87)"><path d="M0.9 0.6C0.1 2 -2.5 2.5 -2.9 1.4C-3.4 0.3 -1.7 -2.4 -0.4 -2.7C0.9 -2.9 1.7 -0.7 0.9 0.6Z" fill="#ffffff"></path></g><g transform="translate(350 160)"><path d="M0.9 0.2C0.3 1.5 -1.5 1.7 -1.8 0.6C-2.2 -0.6 -1.1 -3.1 -0.2 -3.2C0.7 -3.3 1.4 -1 0.9 0.2Z" fill="#ffffff"></path></g><g transform="translate(898 205)"><path d="M1.1 0.9C0.6 1.5 -1.2 1.6 -1.6 1C-2 0.5 -1 -0.7 -0.1 -0.7C0.8 -0.8 1.6 0.3 1.1 0.9Z" fill="#ffffff"></path></g><g transform="translate(82 235)"><path d="M1.1 0.8C0.5 1.7 -1.6 1.9 -2 1.1C-2.4 0.3 -1.2 -1.5 -0.2 -1.6C0.8 -1.7 1.7 -0.1 1.1 0.8Z" fill="#ffffff"></path></g><g transform="translate(64 58)"><path d="M0.2 0.1C0.1 0.3 -0.2 0.3 -0.2 0.1C-0.3 -0.1 -0.2 -0.5 0 -0.5C0.1 -0.5 0.3 -0.1 0.2 0.1Z" fill="#ffffff"></path></g><g transform="translate(369 173)"><path d="M2 1.2C1.5 2 -0.8 1.9 -1.4 1C-2 0.1 -1 -1.6 0.1 -1.5C1.2 -1.5 2.5 0.3 2 1.2Z" fill="#ffffff"></path></g><g transform="translate(739 200)"><path d="M3.7 2.1C3 3.4 -0.6 2.9 -1.7 1.4C-2.8 0 -1.4 -2.5 0.4 -2.3C2.2 -2 4.4 0.9 3.7 2.1Z" fill="#ffffff"></path></g><g transform="translate(362 101)"><path d="M1.1 0.1C0.1 2.3 -2.8 2.8 -3.3 0.9C-3.8 -0.9 -1.9 -5.2 -0.4 -5.4C1 -5.7 2 -2 1.1 0.1Z" fill="#ffffff"></path></g><g transform="translate(469 201)"><path d="M1.9 1.2C0.8 3 -2.9 3.4 -3.6 1.8C-4.3 0.2 -2.2 -3.4 -0.4 -3.6C1.5 -3.8 2.9 -0.6 1.9 1.2Z" fill="#ffffff"></path></g><g transform="translate(291 393)"><path d="M1.7 1.2C0.8 2.7 -2.5 3 -3.2 1.7C-3.9 0.3 -1.9 -2.8 -0.3 -2.9C1.4 -3.1 2.7 -0.4 1.7 1.2Z" fill="#ffffff"></path></g><g transform="translate(130 174)"><path d="M0.1 0.1C0 0.3 -0.3 0.3 -0.4 0.1C-0.4 0 -0.2 -0.4 0 -0.5C0.1 -0.5 0.2 -0.1 0.1 0.1Z" fill="#ffffff"></path></g><g transform="translate(698 44)"><path d="M2.2 1C1.9 1.9 -0.1 1.5 -0.7 0.5C-1.3 -0.6 -0.7 -2.4 0.3 -2.2C1.3 -2 2.6 0.1 2.2 1Z" fill="#ffffff"></path></g><g transform="translate(613 289)"><path d="M2.3 1.9C1.2 3.2 -2.7 3.5 -3.6 2.3C-4.4 1.1 -2.2 -1.6 -0.3 -1.7C1.7 -1.9 3.4 0.5 2.3 1.9Z" fill="#ffffff"></path></g><g transform="translate(163 277)"><path d="M2 1.8C1.1 2.7 -2 2.8 -2.7 2.1C-3.5 1.3 -1.7 -0.4 -0.1 -0.5C1.4 -0.6 2.9 1 2 1.8Z" fill="#ffffff"></path></g><g transform="translate(171 43)"><path d="M0.6 0.2C0.4 0.6 -0.3 0.6 -0.5 0.1C-0.6 -0.3 -0.3 -1.2 0 -1.2C0.4 -1.2 0.7 -0.3 0.6 0.2Z" fill="#ffffff"></path></g><g transform="translate(645 173)"><path d="M2.5 1.6C2 2.4 -0.7 2.2 -1.4 1.2C-2.2 0.3 -1.1 -1.3 0.2 -1.1C1.5 -1 3.1 0.8 2.5 1.6Z" fill="#ffffff"></path></g><g transform="translate(351 405)"><path d="M2.6 1.1C2.3 2 0.3 1.5 -0.4 0.4C-1.2 -0.8 -0.6 -2.5 0.4 -2.3C1.5 -2 2.9 0.2 2.6 1.1Z" fill="#ffffff"></path></g><g transform="translate(616 212)"><path d="M2.5 1.5C1.9 2.4 -0.8 2.2 -1.5 1.2C-2.3 0.2 -1.2 -1.6 0.2 -1.5C1.5 -1.4 3.1 0.6 2.5 1.5Z" fill="#ffffff"></path></g><g transform="translate(264 230)"><path d="M1.7 1.2C1.2 1.8 -0.8 1.7 -1.3 1C-1.9 0.4 -0.9 -0.8 0.1 -0.8C1.1 -0.8 2.1 0.5 1.7 1.2Z" fill="#ffffff"></path></g><g transform="translate(384 406)"><path d="M1.8 1.2C1.5 1.6 -0.2 1.4 -0.8 0.9C-1.3 0.4 -0.6 -0.4 0.2 -0.3C1.1 -0.2 2.1 0.8 1.8 1.2Z" fill="#ffffff"></path></g><g transform="translate(705 328)"><path d="M2 0.9C1.6 1.8 -0.4 1.6 -1 0.6C-1.6 -0.5 -0.8 -2.4 0.2 -2.3C1.2 -2.2 2.4 -0.1 2 0.9Z" fill="#ffffff"></path></g><g transform="translate(310 432)"><path d="M1.8 1.5C0.9 2.7 -2.4 2.9 -3 1.9C-3.7 0.9 -1.9 -1.4 -0.2 -1.6C1.4 -1.7 2.7 0.3 1.8 1.5Z" fill="#ffffff"></path></g><g transform="translate(279 413)"><path d="M0.1 0.2C-0.1 0.5 -0.8 0.6 -0.9 0.4C-0.9 0.2 -0.5 -0.4 -0.2 -0.5C0.2 -0.6 0.3 -0.1 0.1 0.2Z" fill="#ffffff"></path></g><g transform="translate(896 245)"><path d="M3 1.8C2 3.5 -2 3.5 -3 1.8C-4 0.1 -2 -3.3 0 -3.4C2 -3.4 4 0 3 1.8Z" fill="#ffffff"></path></g><g transform="translate(725 167)"><path d="M0.7 0.5C0.5 0.9 -0.5 0.9 -0.8 0.6C-1 0.2 -0.5 -0.4 0 -0.4C0.5 -0.5 1 0.2 0.7 0.5Z" fill="#ffffff"></path></g><g transform="translate(897 13)"><path d="M3 1.7C2.7 2.3 0.4 1.7 -0.5 0.8C-1.3 -0.2 -0.7 -1.5 0.5 -1.2C1.7 -0.9 3.4 1 3 1.7Z" fill="#ffffff"></path></g><g transform="translate(551 70)"><path d="M0.4 0.5C0 1.1 -1.4 1.4 -1.7 0.9C-1.9 0.5 -0.9 -0.7 -0.2 -0.8C0.5 -1 0.9 -0.1 0.4 0.5Z" fill="#ffffff"></path></g><g transform="translate(645 367)"><path d="M0.8 0.4C0.5 0.9 -0.6 0.9 -0.8 0.4C-1.1 0 -0.5 -1 0 -1C0.5 -1 1 -0.1 0.8 0.4Z" fill="#ffffff"></path></g><g transform="translate(76 84)"><path d="M0.8 0.6C0.6 0.9 -0.5 0.9 -0.7 0.6C-1 0.2 -0.5 -0.5 0 -0.5C0.5 -0.4 1.1 0.2 0.8 0.6Z" fill="#ffffff"></path></g><g transform="translate(639 138)"><path d="M4.4 3.5C3.2 4.7 -2 4.4 -3.4 3.1C-4.8 1.8 -2.4 -0.6 0.2 -0.5C2.8 -0.4 5.6 2.3 4.4 3.5Z" fill="#ffffff"></path></g><g transform="translate(167 425)"><path d="M0.6 0.9C-0.4 2.1 -3.2 2.7 -3.6 2C-4 1.2 -2 -1 -0.6 -1.4C0.8 -1.7 1.6 -0.2 0.6 0.9Z" fill="#ffffff"></path></g><g transform="translate(319 255)"><path d="M3.3 1.6C2.3 3.6 -1.8 3.5 -2.9 1.4C-4 -0.7 -2 -4.8 0.1 -4.8C2.1 -4.7 4.3 -0.5 3.3 1.6Z" fill="#ffffff"></path></g><g transform="translate(873 101)"><path d="M3.5 2.2C2.8 3.2 -0.7 2.8 -1.7 1.6C-2.8 0.3 -1.4 -1.8 0.4 -1.6C2.1 -1.4 4.2 1.1 3.5 2.2Z" fill="#ffffff"></path></g><g transform="translate(567 311)"><path d="M0.4 0C0.3 0.5 -0.3 0.5 -0.4 0C-0.6 -0.6 -0.3 -1.6 0 -1.6C0.3 -1.6 0.6 -0.6 0.4 0Z" fill="#ffffff"></path></g><g transform="translate(632 416)"><path d="M1.2 0.4C1 1.1 -0.2 0.9 -0.5 0.2C-0.9 -0.6 -0.4 -1.9 0.1 -1.9C0.7 -1.8 1.4 -0.3 1.2 0.4Z" fill="#ffffff"></path></g><g transform="translate(823 190)"><path d="M0.4 0.1C0.1 0.7 -0.8 0.9 -1 0.4C-1.2 -0.2 -0.6 -1.4 -0.1 -1.5C0.4 -1.5 0.7 -0.5 0.4 0.1Z" fill="#ffffff"></path></g><g transform="translate(891 116)"><path d="M1.2 0.6C1.1 1 0.1 0.7 -0.3 0.2C-0.6 -0.3 -0.3 -1.1 0.2 -0.9C0.7 -0.8 1.4 0.2 1.2 0.6Z" fill="#ffffff"></path></g><g transform="translate(139 430)"><path d="M1.9 0.7C1.5 1.8 -0.5 1.6 -1 0.4C-1.6 -0.7 -0.8 -2.9 0.2 -2.8C1.2 -2.7 2.3 -0.3 1.9 0.7Z" fill="#ffffff"></path></g><g transform="translate(97 107)"><path d="M0.9 0.8C0.5 1.3 -1.1 1.4 -1.4 1C-1.8 0.5 -0.9 -0.5 -0.1 -0.6C0.7 -0.6 1.4 0.3 0.9 0.8Z" fill="#ffffff"></path></g><g transform="translate(296 340)"><path d="M4.8 1.9C4.3 3.5 0.9 2.5 -0.4 0.4C-1.7 -1.7 -0.9 -4.9 0.9 -4.4C2.6 -3.9 5.2 0.3 4.8 1.9Z" fill="#ffffff"></path></g><g transform="translate(51 9)"><path d="M1.1 0.5C0.7 1.3 -0.8 1.3 -1.1 0.5C-1.5 -0.3 -0.8 -2 0 -2C0.7 -2 1.5 -0.4 1.1 0.5Z" fill="#ffffff"></path></g><g transform="translate(87 443)"><path d="M0.4 0C0.1 0.7 -0.8 0.8 -0.9 0.2C-1.1 -0.5 -0.6 -1.9 -0.1 -2C0.3 -2 0.7 -0.7 0.4 0Z" fill="#ffffff"></path></g><g transform="translate(523 241)"><path d="M0.4 0.2C0.2 0.6 -0.6 0.7 -0.8 0.3C-0.9 -0.1 -0.5 -1 -0.1 -1.1C0.3 -1.1 0.6 -0.3 0.4 0.2Z" fill="#ffffff"></path></g><g transform="translate(577 73)"><path d="M0.9 0.6C0.8 0.8 -0.1 0.6 -0.3 0.4C-0.6 0.1 -0.3 -0.3 0.1 -0.2C0.5 -0.2 1 0.4 0.9 0.6Z" fill="#ffffff"></path></g><g transform="translate(18 275)"><path d="M0.9 0.5C0.6 0.9 -0.3 0.8 -0.6 0.4C-0.9 0 -0.4 -0.7 0.1 -0.7C0.5 -0.6 1.1 0.1 0.9 0.5Z" fill="#ffffff"></path></g><g transform="translate(348 269)"><path d="M1.6 1.1C1.1 1.8 -1 1.8 -1.6 1.1C-2.1 0.4 -1.1 -1.1 0 -1.1C1.1 -1.1 2.1 0.4 1.6 1.1Z" fill="#ffffff"></path></g><g transform="translate(149 23)"><path d="M1.4 0.2C0.9 1.6 -0.8 1.5 -1.3 0.2C-1.8 -1.1 -0.9 -3.7 0 -3.7C0.9 -3.7 1.8 -1.1 1.4 0.2Z" fill="#ffffff"></path></g><g transform="translate(2 158)"><path d="M1 0.7C0.2 1.9 -2.3 2.4 -2.7 1.3C-3.2 0.2 -1.6 -2.3 -0.4 -2.5C0.9 -2.7 1.8 -0.6 1 0.7Z" fill="#ffffff"></path></g><g transform="translate(268 205)"><path d="M4.3 1.8C3.4 3.9 -0.8 3.4 -2 1.1C-3.3 -1.3 -1.7 -5.4 0.4 -5.1C2.5 -4.9 5.1 -0.2 4.3 1.8Z" fill="#ffffff"></path></g><g transform="translate(211 231)"><path d="M0.7 0.4C0.5 0.6 -0.1 0.5 -0.3 0.2C-0.5 0 -0.2 -0.5 0.1 -0.5C0.4 -0.4 0.8 0.1 0.7 0.4Z" fill="#ffffff"></path></g><g transform="translate(180 177)"><path d="M0.3 0C-0.8 2.1 -3.7 3 -4.1 1.3C-4.4 -0.4 -2.2 -4.6 -0.8 -5C0.7 -5.5 1.4 -2.1 0.3 0Z" fill="#ffffff"></path></g><g transform="translate(539 225)"><path d="M0.7 0.4C0.4 0.9 -0.6 0.9 -0.9 0.5C-1.1 0 -0.6 -0.9 0 -0.9C0.5 -0.9 1 0 0.7 0.4Z" fill="#ffffff"></path></g><g transform="translate(14 447)"><path d="M0.8 0.9C-0.2 2.1 -3 2.7 -3.4 1.8C-3.8 0.8 -1.9 -1.6 -0.5 -1.9C0.9 -2.2 1.8 -0.4 0.8 0.9Z" fill="#ffffff"></path></g><g transform="translate(657 19)"><path d="M0.6 0.5C-0.1 1.5 -2 1.8 -2.3 1.1C-2.6 0.4 -1.3 -1.5 -0.3 -1.7C0.6 -1.9 1.2 -0.4 0.6 0.5Z" fill="#ffffff"></path></g><g transform="translate(286 449)"><path d="M4.1 3C2.8 4.7 -2.6 4.7 -4 2.9C-5.3 1.2 -2.7 -2.3 0 -2.2C2.7 -2.2 5.5 1.3 4.1 3Z" fill="#ffffff"></path></g><g transform="translate(540 370)"><path d="M0.7 0.3C0.5 0.8 -0.4 0.8 -0.7 0.3C-0.9 -0.1 -0.4 -1 0 -1C0.4 -1 0.9 -0.1 0.7 0.3Z" fill="#ffffff"></path></g><g transform="translate(845 27)"><path d="M0.9 0.5C0.8 0.7 0.1 0.6 -0.2 0.2C-0.4 -0.2 -0.2 -0.7 0.2 -0.6C0.5 -0.5 1 0.2 0.9 0.5Z" fill="#ffffff"></path></g><g transform="translate(813 232)"><path d="M0.6 0.4C0.3 0.8 -0.6 0.8 -0.8 0.5C-1 0.1 -0.5 -0.6 0 -0.6C0.4 -0.7 0.8 0 0.6 0.4Z" fill="#ffffff"></path></g><g transform="translate(91 269)"><path d="M3.9 3C2.8 4 -1.7 3.8 -2.9 2.6C-4.1 1.5 -2.1 -0.6 0.2 -0.5C2.5 -0.4 4.9 1.9 3.9 3Z" fill="#ffffff"></path></g><g transform="translate(66 388)"><path d="M0.1 0.1C0.1 0.2 -0.1 0.2 -0.1 0.1C-0.2 0 -0.1 -0.2 0 -0.2C0.1 -0.2 0.2 0 0.1 0.1Z" fill="#ffffff"></path></g><g transform="translate(850 190)"><path d="M0.6 0.4C0.2 1 -1 1.1 -1.2 0.6C-1.4 0.2 -0.7 -0.9 -0.1 -1C0.5 -1.1 0.9 -0.1 0.6 0.4Z" fill="#ffffff"></path></g><g transform="translate(388 209)"><path d="M0.4 0.1C0.3 0.3 0 0.3 -0.1 0C-0.2 -0.2 -0.1 -0.5 0 -0.5C0.2 -0.5 0.4 -0.1 0.4 0.1Z" fill="#ffffff"></path></g><g transform="translate(682 19)"><path d="M0.6 0C0.5 0.6 -0.1 0.5 -0.3 -0.1C-0.5 -0.7 -0.2 -1.8 0.1 -1.8C0.4 -1.7 0.8 -0.5 0.6 0Z" fill="#ffffff"></path></g><g transform="translate(589 32)"><path d="M0.5 0.3C0.4 0.4 0 0.3 -0.1 0.1C-0.2 0 -0.1 -0.3 0.1 -0.2C0.3 -0.2 0.5 0.1 0.5 0.3Z" fill="#ffffff"></path></g><g transform="translate(444 27)"><path d="M0.4 0.1C0.2 0.6 -0.4 0.6 -0.6 0.2C-0.8 -0.2 -0.4 -1.1 0 -1.1C0.3 -1.1 0.6 -0.3 0.4 0.1Z" fill="#ffffff"></path></g><g transform="translate(468 404)"><path d="M2.6 1.2C2.3 1.9 0.4 1.4 -0.3 0.4C-1 -0.6 -0.5 -2.1 0.4 -1.9C1.4 -1.6 2.8 0.4 2.6 1.2Z" fill="#ffffff"></path></g><g transform="translate(777 400)"><path d="M1.3 0.4C0.8 1.6 -1.1 1.7 -1.6 0.5C-2 -0.6 -1 -2.9 -0.1 -3C0.9 -3 1.8 -0.7 1.3 0.4Z" fill="#ffffff"></path></g><g transform="translate(212 47)"><path d="M0.3 0.2C0.2 0.4 -0.2 0.4 -0.4 0.2C-0.5 0.1 -0.2 -0.2 0 -0.3C0.2 -0.3 0.4 0.1 0.3 0.2Z" fill="#ffffff"></path></g><g transform="translate(443 3)"><path d="M2.1 0.9C1 3.1 -2.8 3.5 -3.6 1.5C-4.4 -0.5 -2.2 -4.9 -0.3 -5C1.6 -5.2 3.2 -1.2 2.1 0.9Z" fill="#ffffff"></path></g><g transform="translate(780 138)"><path d="M0.6 0.4C-0.3 1.9 -2.8 2.5 -3.2 1.3C-3.5 0.2 -1.8 -2.7 -0.5 -3C0.7 -3.3 1.4 -1 0.6 0.4Z" fill="#ffffff"></path></g><g transform="translate(239 395)"><path d="M1.9 0.5C1.7 1.4 0.3 1 -0.2 -0.1C-0.7 -1.2 -0.4 -3 0.3 -2.8C1 -2.6 2 -0.4 1.9 0.5Z" fill="#ffffff"></path></g><g transform="translate(663 42)"><path d="M1 0.7C0.5 1.4 -1.2 1.6 -1.6 0.9C-1.9 0.2 -1 -1.3 -0.1 -1.3C0.8 -1.4 1.5 0 1 0.7Z" fill="#ffffff"></path></g><g transform="translate(722 442)"><path d="M3.4 1.8C3 2.6 0.4 1.9 -0.5 0.8C-1.5 -0.3 -0.7 -1.8 0.6 -1.5C1.9 -1.1 3.8 1.1 3.4 1.8Z" fill="#ffffff"></path></g><g transform="translate(645 225)"><path d="M1.6 0.7C1.3 1.3 -0.1 1.1 -0.6 0.3C-1 -0.5 -0.5 -1.9 0.2 -1.7C0.9 -1.6 1.8 0 1.6 0.7Z" fill="#ffffff"></path></g><g transform="translate(500 212)"><path d="M0 0.8C-0.9 1.7 -3.4 2.6 -3.7 2.1C-3.9 1.6 -2 -0.3 -0.7 -0.7C0.5 -1.1 1 -0.1 0 0.8Z" fill="#ffffff"></path></g><g transform="translate(204 406)"><path d="M0.2 0.1C0.1 0.2 -0.1 0.2 -0.1 0.1C-0.2 0 -0.1 -0.1 0 -0.1C0.1 -0.1 0.2 0 0.2 0.1Z" fill="#ffffff"></path></g><g transform="translate(609 259)"><path d="M3.4 1.8C2.5 3.6 -1.5 3.4 -2.6 1.5C-3.7 -0.4 -1.9 -4 0.2 -3.9C2.2 -3.8 4.3 0 3.4 1.8Z" fill="#ffffff"></path></g><g transform="translate(125 367)"><path d="M0.9 -0.4C0.3 1.6 -1.8 1.9 -2.2 0C-2.6 -1.8 -1.3 -5.9 -0.3 -6C0.8 -6.2 1.5 -2.4 0.9 -0.4Z" fill="#ffffff"></path></g><g transform="translate(494 43)"><path d="M1.2 0.6C1 1 0 0.8 -0.4 0.3C-0.7 -0.2 -0.4 -1 0.2 -0.9C0.7 -0.9 1.4 0.2 1.2 0.6Z" fill="#ffffff"></path></g><g transform="translate(188 255)"><path d="M1 0.6C0.8 1 -0.3 0.9 -0.6 0.5C-0.9 0 -0.5 -0.7 0.1 -0.7C0.6 -0.6 1.3 0.2 1 0.6Z" fill="#ffffff"></path></g><g transform="translate(330 392)"><path d="M0.4 0.2C0.3 0.4 -0.2 0.4 -0.4 0.2C-0.5 0 -0.2 -0.5 0 -0.5C0.2 -0.5 0.5 0 0.4 0.2Z" fill="#ffffff"></path></g><g transform="translate(495 380)"><path d="M0.8 0.4C0.6 0.8 -0.2 0.7 -0.4 0.2C-0.7 -0.2 -0.3 -1 0.1 -0.9C0.5 -0.9 1 0 0.8 0.4Z" fill="#ffffff"></path></g><g transform="translate(559 186)"><path d="M1 0.5C0.9 0.7 0.2 0.5 0 0.2C-0.3 -0.1 -0.1 -0.5 0.2 -0.4C0.5 -0.3 1.1 0.3 1 0.5Z" fill="#ffffff"></path></g><g transform="translate(808 333)"><path d="M0.9 -0.1C0.5 1.1 -0.8 1.2 -1.1 0C-1.4 -1.1 -0.7 -3.4 0 -3.5C0.6 -3.5 1.2 -1.2 0.9 -0.1Z" fill="#ffffff"></path></g><g transform="translate(771 314)"><path d="M3.6 2.5C2.8 3.5 -1 3.1 -2.1 2C-3.2 0.8 -1.6 -1.1 0.3 -1C2.2 -0.8 4.4 1.5 3.6 2.5Z" fill="#ffffff"></path></g><g transform="translate(379 73)"><path d="M4.2 2.3C3.1 4.3 -1.7 4 -3 1.9C-4.4 -0.3 -2.2 -4.4 0.2 -4.3C2.6 -4.2 5.3 0.2 4.2 2.3Z" fill="#ffffff"></path></g><g transform="translate(844 385)"><path d="M0.3 0.3C0.1 0.6 -0.7 0.7 -0.8 0.5C-1 0.2 -0.5 -0.5 -0.1 -0.5C0.3 -0.6 0.6 0 0.3 0.3Z" fill="#ffffff"></path></g><g transform="translate(368 140)"><path d="M1.2 0.6C0.9 1.1 -0.4 1 -0.7 0.5C-1.1 -0.1 -0.5 -1.1 0.1 -1.1C0.7 -1 1.4 0.1 1.2 0.6Z" fill="#ffffff"></path></g><g transform="translate(137 43)"><path d="M0.4 0.3C0.3 0.4 -0.2 0.4 -0.3 0.2C-0.4 0.1 -0.2 -0.3 0 -0.2C0.3 -0.2 0.5 0.1 0.4 0.3Z" fill="#ffffff"></path></g><g transform="translate(410 219)"><path d="M2.1 1.1C1.5 2.2 -1 2.1 -1.6 1C-2.3 -0.1 -1.1 -2.2 0.1 -2.1C1.3 -2.1 2.6 0.1 2.1 1.1Z" fill="#ffffff"></path></g><g transform="translate(310 100)"><path d="M0.8 0.4C0.4 1.1 -0.9 1.2 -1.2 0.6C-1.5 0 -0.8 -1.4 -0.1 -1.5C0.6 -1.5 1.2 -0.3 0.8 0.4Z" fill="#ffffff"></path></g><g transform="translate(561 94)"><path d="M1.7 1.2C1.2 1.8 -0.8 1.7 -1.4 1.1C-1.9 0.4 -1 -0.8 0.1 -0.8C1.1 -0.8 2.1 0.5 1.7 1.2Z" fill="#ffffff"></path></g><g transform="translate(875 1)"><path d="M1.6 0.7C1.2 1.5 -0.5 1.4 -1 0.5C-1.4 -0.3 -0.7 -1.9 0.1 -1.8C1 -1.7 1.9 0 1.6 0.7Z" fill="#ffffff"></path></g><g transform="translate(873 144)"><path d="M1 -0.4C0.5 1.4 -1.2 1.6 -1.6 -0.2C-2 -2 -1 -5.8 -0.1 -5.9C0.8 -5.9 1.5 -2.3 1 -0.4Z" fill="#ffffff"></path></g><g transform="translate(270 266)"><path d="M2.7 1.6C2.1 2.6 -0.7 2.3 -1.5 1.2C-2.3 0.2 -1.2 -1.7 0.2 -1.5C1.6 -1.4 3.3 0.7 2.7 1.6Z" fill="#ffffff"></path></g><g transform="translate(564 13)"><path d="M2.4 1.5C2.1 1.9 0.2 1.4 -0.5 0.8C-1.2 0.2 -0.6 -0.5 0.4 -0.3C1.3 -0.1 2.7 1.1 2.4 1.5Z" fill="#ffffff"></path></g><g transform="translate(775 102)"><path d="M2.7 1.3C2.3 2.4 -0.2 2 -1 0.8C-1.8 -0.5 -0.9 -2.5 0.3 -2.3C1.6 -2.1 3.2 0.3 2.7 1.3Z" fill="#ffffff"></path></g><g transform="translate(263 102)"><path d="M0.2 0.1C0 0.5 -0.6 0.6 -0.7 0.3C-0.8 0 -0.4 -0.7 -0.1 -0.7C0.2 -0.8 0.4 -0.2 0.2 0.1Z" fill="#ffffff"></path></g><g transform="translate(98 400)"><path d="M1.8 1.1C1.3 1.8 -0.7 1.6 -1.2 0.9C-1.8 0.1 -0.9 -1.3 0.1 -1.3C1.1 -1.2 2.2 0.3 1.8 1.1Z" fill="#ffffff"></path></g><g transform="translate(617 6)"><path d="M0.2 0.1C0.2 0.2 -0.1 0.2 -0.2 0.1C-0.2 -0.1 -0.1 -0.4 0 -0.4C0.2 -0.4 0.3 -0.1 0.2 0.1Z" fill="#ffffff"></path></g><g transform="translate(874 422)"><path d="M1.8 0.5C1.5 1.6 -0.2 1.3 -0.7 0.2C-1.2 -1 -0.6 -3 0.2 -2.9C1 -2.8 2.1 -0.5 1.8 0.5Z" fill="#ffffff"></path></g><g transform="translate(56 250)"><path d="M0.9 -0.2C0.2 1.8 -2.1 2.1 -2.5 0.4C-2.9 -1.4 -1.4 -5.3 -0.3 -5.5C0.8 -5.7 1.6 -2.1 0.9 -0.2Z" fill="#ffffff"></path></g><g transform="translate(121 407)"><path d="M3.8 3C2.6 4.1 -2 4 -3.2 2.8C-4.5 1.6 -2.2 -0.6 0.1 -0.6C2.4 -0.5 4.9 1.8 3.8 3Z" fill="#ffffff"></path></g><g transform="translate(523 409)"><path d="M3.9 1.7C3.5 3 0.5 2.2 -0.6 0.5C-1.7 -1.2 -0.8 -3.9 0.7 -3.5C2.2 -3.1 4.3 0.3 3.9 1.7Z" fill="#ffffff"></path></g><g transform="translate(817 447)"><path d="M0.2 0.2C0 0.5 -0.7 0.7 -0.8 0.4C-0.9 0 -0.5 -0.7 -0.1 -0.8C0.2 -0.8 0.5 -0.2 0.2 0.2Z" fill="#ffffff"></path></g><g transform="translate(753 11)"><path d="M1.9 0.7C1.2 2.3 -1.5 2.4 -2.2 0.8C-2.8 -0.7 -1.4 -3.9 -0.1 -3.9C1.3 -4 2.6 -0.9 1.9 0.7Z" fill="#ffffff"></path></g><g transform="translate(653 344)"><path d="M0.2 0.9C-1.1 2.2 -4.3 3.3 -4.6 2.4C-5 1.6 -2.5 -1.1 -0.9 -1.6C0.7 -2.1 1.4 -0.4 0.2 0.9Z" fill="#ffffff"></path></g><g transform="translate(588 298)"><path d="M3.3 2C2.2 3.8 -2.2 3.8 -3.3 2C-4.4 0.1 -2.2 -3.5 0 -3.5C2.2 -3.5 4.4 0.1 3.3 2Z" fill="#ffffff"></path></g><g transform="translate(859 257)"><path d="M1.9 0.6C1.1 2.6 -2.1 2.8 -2.8 0.9C-3.5 -0.9 -1.7 -4.9 -0.2 -5C1.4 -5.1 2.8 -1.3 1.9 0.6Z" fill="#ffffff"></path></g><g transform="translate(280 14)"><path d="M0.7 0.6C-0.2 2.1 -3 2.7 -3.4 1.5C-3.8 0.4 -1.9 -2.5 -0.5 -2.8C0.8 -3.2 1.7 -0.9 0.7 0.6Z" fill="#ffffff"></path></g><g transform="translate(509 443)"><path d="M4.5 1.8C4 3.4 0.5 2.6 -0.7 0.5C-2 -1.5 -1 -4.7 0.7 -4.3C2.5 -3.8 5 0.2 4.5 1.8Z" fill="#ffffff"></path></g><g transform="translate(107 216)"><path d="M1.3 0.5C0.8 1.6 -1.1 1.7 -1.6 0.6C-2 -0.6 -1 -2.9 -0.1 -2.9C0.9 -3 1.8 -0.7 1.3 0.5Z" fill="#ffffff"></path></g><g transform="translate(199 376)"><path d="M2.6 1.9C1.6 3.2 -2.2 3.4 -3.1 2.1C-4 0.8 -2 -1.9 -0.1 -2C1.8 -2 3.6 0.5 2.6 1.9Z" fill="#ffffff"></path></g><g transform="translate(221 186)"><path d="M3 1.3C2.7 2.4 0.3 1.8 -0.6 0.4C-1.4 -1 -0.7 -3.2 0.5 -2.9C1.7 -2.6 3.4 0.2 3 1.3Z" fill="#ffffff"></path></g><g transform="translate(14 416)"><path d="M2 2C0.9 3.1 -2.9 3.5 -3.6 2.5C-4.4 1.6 -2.2 -0.7 -0.3 -0.9C1.6 -1.1 3.1 0.8 2 2Z" fill="#ffffff"></path></g><g transform="translate(729 294)"><path d="M0.5 0.4C0.1 1 -1.2 1.2 -1.4 0.8C-1.7 0.3 -0.8 -0.8 -0.2 -0.9C0.5 -1 0.9 -0.1 0.5 0.4Z" fill="#ffffff"></path></g><g transform="translate(21 331)"><path d="M0.3 0.2C0.2 0.4 -0.3 0.4 -0.4 0.2C-0.5 0.1 -0.2 -0.3 0 -0.3C0.2 -0.3 0.4 0 0.3 0.2Z" fill="#ffffff"></path></g><g transform="translate(745 318)"><path d="M0.8 0.9C0.2 1.5 -1.6 1.7 -2 1.3C-2.3 0.8 -1.2 -0.3 -0.2 -0.5C0.7 -0.6 1.4 0.3 0.8 0.9Z" fill="#ffffff"></path></g><g transform="translate(18 209)"><path d="M0.2 0.1C0.1 0.2 -0.1 0.2 -0.1 0.1C-0.2 0 -0.1 -0.2 0 -0.2C0.1 -0.2 0.2 0 0.2 0.1Z" fill="#ffffff"></path></g><g transform="translate(137 300)"><path d="M2.7 1.2C2.2 2.4 -0.4 2.1 -1.2 0.6C-2 -0.8 -1 -3.2 0.3 -3C1.6 -2.9 3.2 0 2.7 1.2Z" fill="#ffffff"></path></g><g transform="translate(336 323)"><path d="M0.5 0.4C0.2 0.8 -0.7 0.9 -0.9 0.6C-1.1 0.2 -0.6 -0.5 -0.1 -0.5C0.4 -0.6 0.8 0 0.5 0.4Z" fill="#ffffff"></path></g><g transform="translate(577 250)"><path d="M1.8 1.1C0.7 2.9 -2.8 3.3 -3.5 1.7C-4.3 0.2 -2.1 -3.4 -0.3 -3.6C1.4 -3.8 2.9 -0.6 1.8 1.1Z" fill="#ffffff"></path></g><g transform="translate(597 400)"><path d="M0.6 0.6C0.2 1.1 -1.2 1.3 -1.5 0.9C-1.7 0.5 -0.9 -0.5 -0.2 -0.6C0.5 -0.7 1 0.1 0.6 0.6Z" fill="#ffffff"></path></g><g transform="translate(62 211)"><path d="M2.6 1.7C1.9 2.6 -1 2.4 -1.8 1.5C-2.6 0.5 -1.3 -1.3 0.2 -1.2C1.6 -1.1 3.2 0.9 2.6 1.7Z" fill="#ffffff"></path></g><g transform="translate(224 438)"><path d="M2.7 1.6C2.2 2.5 -0.5 2.2 -1.3 1.1C-2.1 0 -1.1 -1.8 0.3 -1.6C1.6 -1.5 3.3 0.7 2.7 1.6Z" fill="#ffffff"></path></g><g transform="translate(348 239)"><path d="M3.6 1.8C2.5 3.9 -1.9 3.7 -3 1.6C-4.2 -0.5 -2.1 -4.6 0.1 -4.6C2.3 -4.5 4.6 -0.3 3.6 1.8Z" fill="#ffffff"></path></g><g transform="translate(43 125)"><path d="M0.3 0.1C0.2 0.3 -0.1 0.3 -0.2 0.1C-0.3 -0.1 -0.2 -0.4 0 -0.4C0.2 -0.4 0.4 0 0.3 0.1Z" fill="#ffffff"></path></g><g transform="translate(312 190)"><path d="M1.9 1.1C1.6 1.5 0.1 1.2 -0.4 0.6C-0.9 0.1 -0.5 -0.6 0.3 -0.5C1.1 -0.3 2.1 0.8 1.9 1.1Z" fill="#ffffff"></path></g><g transform="translate(161 108)"><path d="M1.3 0.6C1.1 1.2 -0.2 1 -0.6 0.3C-1 -0.3 -0.5 -1.5 0.1 -1.4C0.8 -1.3 1.5 0 1.3 0.6Z" fill="#ffffff"></path></g><g transform="translate(756 443)"><path d="M3.8 3.2C2.5 4.4 -2.5 4.4 -3.8 3.2C-5.1 2 -2.5 -0.3 0 -0.3C2.5 -0.3 5.1 2 3.8 3.2Z" fill="#ffffff"></path></g><g transform="translate(250 183)"><path d="M0.4 -0.1C-0.1 1 -1.4 1.3 -1.6 0.4C-1.8 -0.6 -0.9 -2.8 -0.3 -2.9C0.4 -3.1 0.8 -1.2 0.4 -0.1Z" fill="#ffffff"></path></g><g transform="translate(318 69)"><path d="M1 0.8C0.4 1.6 -1.6 1.9 -2 1.1C-2.4 0.4 -1.2 -1.3 -0.2 -1.4C0.8 -1.5 1.6 -0.1 1 0.8Z" fill="#ffffff"></path></g><g transform="translate(53 411)"><path d="M0.1 0.2C-0.6 1.2 -2.4 1.8 -2.6 1.1C-2.8 0.3 -1.4 -1.8 -0.5 -2.1C0.4 -2.4 0.8 -0.9 0.1 0.2Z" fill="#ffffff"></path></g><g transform="translate(530 27)"><path d="M0.3 0.2C0.1 0.6 -0.7 0.7 -0.9 0.4C-1 0.1 -0.5 -0.7 -0.1 -0.7C0.3 -0.8 0.6 -0.1 0.3 0.2Z" fill="#ffffff"></path></g><g transform="translate(563 387)"><path d="M0.4 0.2C0.3 0.4 -0.2 0.4 -0.3 0.2C-0.4 0 -0.2 -0.4 0 -0.4C0.3 -0.4 0.5 0 0.4 0.2Z" fill="#ffffff"></path></g><g transform="translate(799 99)"><path d="M0.7 0.9C-0.1 1.7 -2.3 2.1 -2.6 1.5C-3 0.9 -1.5 -0.8 -0.4 -1C0.7 -1.2 1.4 0 0.7 0.9Z" fill="#ffffff"></path></g><g transform="translate(838 320)"><path d="M1.8 1.2C1.1 2.3 -1.6 2.4 -2.2 1.3C-2.8 0.3 -1.4 -1.9 -0.1 -2C1.3 -2 2.6 0.1 1.8 1.2Z" fill="#ffffff"></path></g><g transform="translate(206 133)"><path d="M0.3 0.4C0.1 0.7 -0.8 0.8 -0.9 0.6C-1.1 0.4 -0.5 -0.1 -0.1 -0.2C0.3 -0.3 0.6 0.1 0.3 0.4Z" fill="#ffffff"></path></g><g transform="translate(224 105)"><path d="M1.1 0.9C0.1 2.5 -3.1 3 -3.6 1.7C-4.2 0.4 -2.1 -2.7 -0.5 -3C1.1 -3.3 2.2 -0.7 1.1 0.9Z" fill="#ffffff"></path></g><g transform="translate(244 287)"><path d="M1.9 0.7C0.9 2.8 -2.5 3.1 -3.2 1.2C-4 -0.8 -2 -5 -0.3 -5.2C1.5 -5.3 2.9 -1.4 1.9 0.7Z" fill="#ffffff"></path></g><g transform="translate(778 20)"><path d="M2.7 1.4C2.3 2.2 0 1.8 -0.8 0.8C-1.5 -0.3 -0.8 -1.9 0.4 -1.7C1.6 -1.4 3.1 0.6 2.7 1.4Z" fill="#ffffff"></path></g><g transform="translate(467 40)"><path d="M1.8 0.6C1.6 1.4 0.3 1 -0.2 0C-0.7 -1 -0.4 -2.6 0.3 -2.5C1 -2.3 2 -0.3 1.8 0.6Z" fill="#ffffff"></path></g><g transform="translate(440 263)"><path d="M1.8 0.7C1.5 1.7 -0.3 1.4 -0.9 0.4C-1.4 -0.6 -0.7 -2.5 0.2 -2.4C1.1 -2.3 2.2 -0.2 1.8 0.7Z" fill="#ffffff"></path></g><g transform="translate(804 151)"><path d="M4.3 2.2C3.5 3.9 -0.7 3.4 -2 1.4C-3.3 -0.6 -1.6 -4.1 0.5 -3.8C2.6 -3.5 5.2 0.5 4.3 2.2Z" fill="#ffffff"></path></g><g transform="translate(287 240)"><path d="M3.2 1.6C2.2 3.6 -2 3.6 -3.1 1.5C-4.1 -0.6 -2.1 -4.7 0 -4.7C2.1 -4.7 4.2 -0.5 3.2 1.6Z" fill="#ffffff"></path></g><g transform="translate(880 380)"><path d="M1.5 0.8C1.3 1.2 0.2 0.9 -0.3 0.3C-0.7 -0.2 -0.3 -1 0.2 -0.8C0.8 -0.7 1.7 0.4 1.5 0.8Z" fill="#ffffff"></path></g><g transform="translate(893 327)"><path d="M1.9 1.1C1.5 1.8 -0.5 1.6 -1.1 0.9C-1.7 0.1 -0.8 -1.3 0.2 -1.2C1.1 -1.1 2.3 0.4 1.9 1.1Z" fill="#ffffff"></path></g><g transform="translate(263 386)"><path d="M4 1.6C3.7 2.8 1 1.9 -0.1 0.2C-1.2 -1.5 -0.6 -4 0.8 -3.5C2.1 -3.1 4.3 0.3 4 1.6Z" fill="#ffffff"></path></g><g transform="translate(707 377)"><path d="M1.8 0.6C1.4 1.8 -0.7 1.7 -1.2 0.4C-1.8 -0.9 -0.9 -3.3 0.1 -3.2C1.1 -3.2 2.2 -0.6 1.8 0.6Z" fill="#ffffff"></path></g><g transform="translate(580 274)"><path d="M0.4 0.2C0.3 0.5 -0.3 0.5 -0.5 0.2C-0.6 -0.1 -0.3 -0.8 0 -0.8C0.3 -0.8 0.6 -0.1 0.4 0.2Z" fill="#ffffff"></path></g><g transform="translate(187 351)"><path d="M0.1 0.1C0.1 0.2 -0.2 0.2 -0.2 0.1C-0.3 -0.1 -0.1 -0.3 0 -0.4C0.1 -0.4 0.2 -0.1 0.1 0.1Z" fill="#ffffff"></path></g><g transform="translate(367 427)"><path d="M0.5 1.1C-0.8 2.5 -4.2 3.4 -4.6 2.5C-5 1.6 -2.5 -1.2 -0.8 -1.6C0.9 -2.1 1.7 -0.3 0.5 1.1Z" fill="#ffffff"></path></g><g transform="translate(482 170)"><path d="M4 2.4C3 4.1 -1.6 3.9 -2.9 2C-4.2 0.1 -2.1 -3.5 0.2 -3.4C2.5 -3.2 5.1 0.6 4 2.4Z" fill="#ffffff"></path></g><g transform="translate(333 124)"><path d="M1.5 0.6C1.3 1.1 0.2 0.8 -0.2 0.2C-0.6 -0.4 -0.3 -1.4 0.2 -1.2C0.8 -1.1 1.6 0.2 1.5 0.6Z" fill="#ffffff"></path></g><g transform="translate(55 171)"><path d="M2 1.2C1.4 2.1 -1.1 2.1 -1.7 1.1C-2.3 0.1 -1.2 -1.8 0.1 -1.7C1.3 -1.7 2.5 0.3 2 1.2Z" fill="#ffffff"></path></g><g transform="translate(209 323)"><path d="M1 0.2C0.9 0.8 0.1 0.6 -0.2 0C-0.5 -0.6 -0.2 -1.7 0.2 -1.6C0.5 -1.5 1.1 -0.3 1 0.2Z" fill="#ffffff"></path></g><g transform="translate(69 352)"><path d="M0.2 0.1C0.2 0.3 -0.1 0.3 -0.2 0.1C-0.3 0 -0.1 -0.2 0 -0.2C0.2 -0.2 0.3 0 0.2 0.1Z" fill="#ffffff"></path></g><g transform="translate(721 18)"><path d="M0.8 0.4C0.5 1 -0.7 1.1 -1 0.4C-1.3 -0.2 -0.6 -1.5 0 -1.5C0.5 -1.5 1.1 -0.3 0.8 0.4Z" fill="#ffffff"></path></g><g transform="translate(537 292)"><path d="M1.5 0.8C1.1 1.6 -0.8 1.6 -1.3 0.7C-1.7 -0.1 -0.9 -1.7 0.1 -1.7C1 -1.6 2 0 1.5 0.8Z" fill="#ffffff"></path></g><g transform="translate(592 153)"><path d="M0.2 0.5C-0.3 1.1 -1.8 1.5 -2 1.2C-2.2 0.8 -1.1 -0.4 -0.4 -0.6C0.4 -0.8 0.8 0 0.2 0.5Z" fill="#ffffff"></path></g><g transform="translate(40 147)"><path d="M0.7 0.1C0.5 0.7 -0.3 0.7 -0.5 0.1C-0.7 -0.5 -0.4 -1.7 0 -1.7C0.4 -1.6 0.9 -0.5 0.7 0.1Z" fill="#ffffff"></path></g><g transform="translate(556 266)"><path d="M3.5 1.4C3.1 2.8 0.2 2.2 -0.8 0.5C-1.8 -1.2 -0.9 -3.9 0.5 -3.6C2 -3.3 4 0.1 3.5 1.4Z" fill="#ffffff"></path></g><g transform="translate(150 377)"><path d="M3.6 1.8C2.8 3.5 -1.1 3.1 -2.2 1.4C-3.3 -0.4 -1.6 -3.7 0.3 -3.5C2.2 -3.3 4.4 0.2 3.6 1.8Z" fill="#ffffff"></path></g><g transform="translate(181 218)"><path d="M2.9 1C2.1 3.1 -1.3 2.9 -2.3 0.7C-3.2 -1.5 -1.6 -5.7 0.1 -5.6C1.9 -5.5 3.7 -1.2 2.9 1Z" fill="#ffffff"></path></g><g transform="translate(630 90)"><path d="M0.3 0.2C0.1 0.5 -0.4 0.5 -0.6 0.3C-0.7 0.1 -0.3 -0.4 0 -0.5C0.2 -0.5 0.5 0 0.3 0.2Z" fill="#ffffff"></path></g><g transform="translate(414 144)"><path d="M2.1 1.6C1.5 2.4 -1.2 2.3 -1.9 1.5C-2.6 0.7 -1.3 -0.8 0 -0.8C1.4 -0.7 2.8 0.8 2.1 1.6Z" fill="#ffffff"></path></g><g transform="translate(797 355)"><path d="M2.4 1.7C1.7 2.7 -1.4 2.6 -2.2 1.6C-3 0.5 -1.5 -1.5 0.1 -1.5C1.6 -1.5 3.2 0.6 2.4 1.7Z" fill="#ffffff"></path></g><g transform="translate(755 164)"><path d="M1.1 0.7C0.9 1.1 -0.3 1 -0.7 0.6C-1 0.1 -0.5 -0.7 0.1 -0.6C0.7 -0.6 1.4 0.3 1.1 0.7Z" fill="#ffffff"></path></g><g transform="translate(854 128)"><path d="M0.4 0.4C-0.1 0.9 -1.3 1.2 -1.5 0.8C-1.6 0.4 -0.8 -0.7 -0.2 -0.8C0.4 -1 0.8 -0.2 0.4 0.4Z" fill="#ffffff"></path></g><g transform="translate(137 136)"><path d="M0.9 0.6C0.7 0.9 -0.3 0.9 -0.6 0.5C-0.9 0.1 -0.5 -0.6 0.1 -0.6C0.6 -0.5 1.2 0.2 0.9 0.6Z" fill="#ffffff"></path></g><g transform="translate(387 349)"><path d="M2.4 1.3C1.9 2.3 -0.7 2.1 -1.4 1C-2.2 -0.2 -1.1 -2.3 0.2 -2.1C1.5 -2 3 0.3 2.4 1.3Z" fill="#ffffff"></path></g><g transform="translate(495 260)"><path d="M0.3 0.1C0.1 0.6 -0.7 0.7 -0.8 0.2C-1 -0.2 -0.5 -1.3 -0.1 -1.3C0.3 -1.4 0.6 -0.4 0.3 0.1Z" fill="#ffffff"></path></g><g transform="translate(223 163)"><path d="M1.9 1.3C1.5 1.8 -0.5 1.6 -1 1C-1.6 0.5 -0.8 -0.4 0.2 -0.3C1.1 -0.2 2.3 0.9 1.9 1.3Z" fill="#ffffff"></path></g><g transform="translate(433 111)"><path d="M0.5 0.2C0.3 0.7 -0.5 0.7 -0.7 0.2C-0.8 -0.2 -0.4 -1.2 0 -1.2C0.4 -1.2 0.7 -0.3 0.5 0.2Z" fill="#ffffff"></path></g><g transform="translate(722 100)"><path d="M0.4 0.4C0.1 0.7 -0.8 0.9 -1 0.6C-1.2 0.4 -0.6 -0.3 -0.1 -0.4C0.3 -0.4 0.7 0.1 0.4 0.4Z" fill="#ffffff"></path></g><g transform="translate(651 433)"><path d="M1.5 0.9C1.2 1.3 -0.1 1 -0.5 0.5C-0.9 0 -0.5 -0.8 0.2 -0.7C0.9 -0.5 1.7 0.5 1.5 0.9Z" fill="#ffffff"></path></g><g transform="translate(281 39)"><path d="M1 0.3C0.5 1.3 -1 1.4 -1.4 0.5C-1.7 -0.5 -0.9 -2.5 -0.1 -2.5C0.7 -2.6 1.4 -0.7 1 0.3Z" fill="#ffffff"></path></g><g transform="translate(467 377)"><path d="M3.1 1.3C2.7 2.5 0.2 1.9 -0.7 0.5C-1.6 -0.9 -0.8 -3.2 0.5 -3C1.8 -2.7 3.5 0.2 3.1 1.3Z" fill="#ffffff"></path></g><g transform="translate(336 442)"><path d="M0.5 0.5C0.2 0.9 -0.9 1 -1.1 0.8C-1.4 0.5 -0.7 -0.1 -0.1 -0.2C0.4 -0.3 0.8 0.2 0.5 0.5Z" fill="#ffffff"></path></g><g transform="translate(876 310)"><path d="M1.9 1.1C1.5 1.7 -0.3 1.5 -0.9 0.7C-1.5 -0.1 -0.7 -1.4 0.2 -1.3C1.1 -1.2 2.3 0.4 1.9 1.1Z" fill="#ffffff"></path></g><g transform="translate(292 132)"><path d="M0.2 0.5C-0.4 1.3 -2.2 1.8 -2.5 1.3C-2.7 0.8 -1.3 -0.7 -0.4 -1C0.5 -1.3 0.9 -0.2 0.2 0.5Z" fill="#ffffff"></path></g><g transform="translate(782 177)"><path d="M0.9 0.6C0.5 1.2 -0.8 1.2 -1.2 0.7C-1.5 0.2 -0.7 -0.9 0 -0.9C0.6 -1 1.3 0.1 0.9 0.6Z" fill="#ffffff"></path></g><g transform="translate(425 396)"><path d="M1.8 0.5C1.1 2.3 -1.6 2.4 -2.2 0.7C-2.9 -1.1 -1.4 -4.6 -0.1 -4.7C1.3 -4.7 2.5 -1.3 1.8 0.5Z" fill="#ffffff"></path></g><g transform="translate(74 314)"><path d="M0.8 0.4C0.6 0.9 -0.4 0.8 -0.6 0.4C-0.9 -0.1 -0.4 -0.9 0 -0.9C0.5 -0.9 1.1 0 0.8 0.4Z" fill="#ffffff"></path></g><g transform="translate(734 224)"><path d="M0.7 0.5C0.5 0.7 -0.2 0.6 -0.4 0.4C-0.7 0.1 -0.3 -0.3 0.1 -0.3C0.4 -0.3 0.9 0.2 0.7 0.5Z" fill="#ffffff"></path></g><g transform="translate(124 5)"><path d="M3.2 1.9C2.2 3.7 -2.1 3.7 -3.1 1.9C-4.2 0.1 -2.1 -3.5 0 -3.5C2.1 -3.5 4.3 0.1 3.2 1.9Z" fill="#ffffff"></path></g><g transform="translate(78 412)"><path d="M2.8 1.4C1.9 3.2 -1.9 3.3 -2.8 1.4C-3.8 -0.4 -1.9 -4.1 0 -4.1C1.9 -4.1 3.7 -0.4 2.8 1.4Z" fill="#ffffff"></path></g><g transform="translate(523 122)"><path d="M0.8 0.5C-0.1 2.1 -2.9 2.6 -3.3 1.4C-3.7 0.2 -1.9 -2.9 -0.5 -3.2C0.9 -3.5 1.7 -1 0.8 0.5Z" fill="#ffffff"></path></g><g transform="translate(822 14)"><path d="M1 0.6C0.7 1 -0.4 0.9 -0.7 0.5C-1 0 -0.5 -0.8 0.1 -0.8C0.6 -0.7 1.2 0.2 1 0.6Z" fill="#ffffff"></path></g><g transform="translate(404 383)"><path d="M0.1 0.1C-0.4 0.7 -1.4 1.1 -1.5 0.6C-1.6 0.2 -0.8 -1 -0.3 -1.2C0.2 -1.4 0.5 -0.5 0.1 0.1Z" fill="#ffffff"></path></g><g transform="translate(671 89)"><path d="M2.7 1.7C1.8 3.1 -1.8 3.1 -2.7 1.7C-3.6 0.3 -1.8 -2.5 0 -2.5C1.8 -2.5 3.6 0.3 2.7 1.7Z" fill="#ffffff"></path></g><g transform="translate(852 358)"><path d="M1 0.4C0.9 0.7 0.2 0.5 0 0C-0.3 -0.4 -0.2 -1.1 0.2 -1C0.5 -0.9 1.1 0 1 0.4Z" fill="#ffffff"></path></g><g transform="translate(374 231)"><path d="M0.4 0.2C0.3 0.4 -0.1 0.3 -0.2 0.1C-0.3 0 -0.2 -0.4 0 -0.4C0.2 -0.3 0.5 0 0.4 0.2Z" fill="#ffffff"></path></g><g transform="translate(768 217)"><path d="M1 0.6C0.7 1.1 -0.5 1 -0.8 0.6C-1.1 0.1 -0.6 -0.8 0 -0.8C0.6 -0.8 1.3 0.2 1 0.6Z" fill="#ffffff"></path></g><g transform="translate(2 70)"><path d="M0.2 0.2C0 0.6 -0.7 0.7 -0.9 0.4C-1 0.2 -0.5 -0.5 -0.1 -0.6C0.2 -0.7 0.5 -0.1 0.2 0.2Z" fill="#ffffff"></path></g><g transform="translate(647 279)"><path d="M3.3 2.2C2.2 3.7 -2.1 3.7 -3.1 2.2C-4.2 0.7 -2.1 -2.3 0 -2.3C2.2 -2.3 4.3 0.7 3.3 2.2Z" fill="#ffffff"></path></g><g transform="translate(614 372)"><path d="M1.5 1.1C0.8 2.1 -1.7 2.3 -2.3 1.4C-2.9 0.5 -1.4 -1.4 -0.2 -1.5C1.1 -1.6 2.2 0.2 1.5 1.1Z" fill="#ffffff"></path></g><g transform="translate(114 83)"><path d="M2.5 1.3C2.1 2 0 1.6 -0.7 0.7C-1.4 -0.2 -0.7 -1.6 0.3 -1.4C1.4 -1.2 2.8 0.6 2.5 1.3Z" fill="#ffffff"></path></g><g transform="translate(591 8)"><path d="M2.1 0.9C1.9 1.5 0.3 1.1 -0.2 0.2C-0.8 -0.7 -0.4 -2 0.4 -1.8C1.1 -1.6 2.3 0.2 2.1 0.9Z" fill="#ffffff"></path></g><g transform="translate(599 125)"><path d="M0.9 0C0.7 1 -0.5 0.9 -0.8 -0.1C-1.1 -1.1 -0.5 -3 0 -3C0.6 -3 1.2 -1 0.9 0Z" fill="#ffffff"></path></g><g transform="translate(140 216)"><path d="M0.4 0.3C-0.7 2.3 -3.9 3.2 -4.3 1.7C-4.7 0.1 -2.3 -3.8 -0.8 -4.2C0.8 -4.6 1.6 -1.6 0.4 0.3Z" fill="#ffffff"></path></g><g transform="translate(140 263)"><path d="M0.9 0.2C0.5 1.1 -0.7 1.1 -1 0.3C-1.3 -0.6 -0.7 -2.3 0 -2.3C0.6 -2.4 1.2 -0.7 0.9 0.2Z" fill="#ffffff"></path></g><g transform="translate(689 306)"><path d="M2 1C1.1 2.7 -2.2 3 -2.9 1.4C-3.7 -0.2 -1.8 -3.6 -0.2 -3.7C1.5 -3.8 2.9 -0.7 2 1Z" fill="#ffffff"></path></g><g transform="translate(456 226)"><path d="M0.2 0.1C0 0.4 -0.5 0.5 -0.6 0.2C-0.7 -0.1 -0.4 -0.8 -0.1 -0.9C0.2 -1 0.4 -0.3 0.2 0.1Z" fill="#ffffff"></path></g><g transform="translate(382 37)"><path d="M0.6 0.1C0.3 0.8 -0.7 0.9 -0.9 0.3C-1.1 -0.4 -0.6 -1.7 -0.1 -1.8C0.4 -1.8 0.8 -0.5 0.6 0.1Z" fill="#ffffff"></path></g><g transform="translate(48 102)"><path d="M3.1 1.5C2.5 2.8 -0.5 2.4 -1.4 0.9C-2.3 -0.5 -1.2 -3.1 0.3 -2.9C1.8 -2.7 3.7 0.2 3.1 1.5Z" fill="#ffffff"></path></g><g transform="translate(170 67)"><path d="M0.2 0.1C0.2 0.3 -0.1 0.3 -0.2 0.1C-0.3 -0.1 -0.2 -0.5 0 -0.5C0.2 -0.5 0.3 -0.1 0.2 0.1Z" fill="#ffffff"></path></g><g transform="translate(817 308)"><path d="M2.1 0.8C1.7 1.8 -0.2 1.6 -0.9 0.4C-1.5 -0.8 -0.7 -2.8 0.2 -2.7C1.2 -2.5 2.4 -0.2 2.1 0.8Z" fill="#ffffff"></path></g><g transform="translate(240 210)"><path d="M2.6 1.2C2.3 2 0.3 1.5 -0.4 0.5C-1.1 -0.5 -0.6 -2 0.4 -1.8C1.4 -1.5 2.9 0.5 2.6 1.2Z" fill="#ffffff"></path></g><g transform="translate(710 122)"><path d="M1.9 1.6C1 2.6 -2.1 2.8 -2.7 1.9C-3.4 1 -1.7 -0.9 -0.2 -1C1.4 -1.1 2.7 0.6 1.9 1.6Z" fill="#ffffff"></path></g><g transform="translate(311 409)"><path d="M1.3 0.7C1.2 1.1 0 0.9 -0.3 0.4C-0.7 -0.1 -0.4 -0.8 0.2 -0.7C0.8 -0.6 1.5 0.4 1.3 0.7Z" fill="#ffffff"></path></g><g transform="translate(682 262)"><path d="M1.1 0.5C0.9 1.1 -0.3 1 -0.7 0.4C-1 -0.2 -0.5 -1.3 0.1 -1.3C0.7 -1.2 1.4 0 1.1 0.5Z" fill="#ffffff"></path></g><g transform="translate(344 295)"><path d="M1.8 1.3C1.3 1.8 -0.6 1.6 -1.2 1.1C-1.7 0.5 -0.9 -0.5 0.1 -0.4C1.1 -0.4 2.2 0.8 1.8 1.3Z" fill="#ffffff"></path></g><g transform="translate(797 123)"><path d="M1.5 1.1C0.8 2.1 -1.7 2.3 -2.3 1.4C-2.9 0.5 -1.4 -1.5 -0.2 -1.6C1.1 -1.7 2.2 0.1 1.5 1.1Z" fill="#ffffff"></path></g><g transform="translate(543 314)"><path d="M4.5 2.6C3.8 3.8 -0.2 3.1 -1.5 1.6C-2.8 0.1 -1.4 -2.2 0.6 -1.9C2.6 -1.5 5.2 1.5 4.5 2.6Z" fill="#ffffff"></path></g><g transform="translate(753 267)"><path d="M0.7 0.4C0.1 1.5 -1.9 1.9 -2.2 0.9C-2.6 0 -1.3 -2.3 -0.3 -2.5C0.7 -2.7 1.3 -0.8 0.7 0.4Z" fill="#ffffff"></path></g><g transform="translate(427 45)"><path d="M1.3 0.9C0.9 1.4 -0.7 1.4 -1.1 0.9C-1.6 0.4 -0.8 -0.6 0 -0.5C0.8 -0.5 1.7 0.5 1.3 0.9Z" fill="#ffffff"></path></g><g transform="translate(769 348)"><path d="M3.3 2.1C2.3 3.5 -1.7 3.4 -2.8 1.9C-3.8 0.4 -1.9 -2.6 0.1 -2.6C2.1 -2.5 4.2 0.6 3.3 2.1Z" fill="#ffffff"></path></g><g transform="translate(202 2)"><path d="M0.2 0.1C0.2 0.2 -0.1 0.2 -0.2 0.1C-0.3 -0.1 -0.1 -0.4 0 -0.4C0.1 -0.4 0.3 -0.1 0.2 0.1Z" fill="#ffffff"></path></g><g transform="translate(36 429)"><path d="M2.2 1.1C1.8 1.9 -0.3 1.6 -0.9 0.6C-1.6 -0.4 -0.8 -2 0.3 -1.9C1.3 -1.8 2.6 0.2 2.2 1.1Z" fill="#ffffff"></path></g><g transform="translate(727 144)"><path d="M0.6 0.3C0.5 0.5 0 0.4 -0.2 0.2C-0.3 -0.1 -0.2 -0.4 0.1 -0.3C0.3 -0.3 0.7 0.1 0.6 0.3Z" fill="#ffffff"></path></g><g transform="translate(334 420)"><path d="M1 0.5C0.7 1 -0.4 1 -0.7 0.4C-1 -0.2 -0.5 -1.3 0.1 -1.2C0.6 -1.2 1.2 -0.1 1 0.5Z" fill="#ffffff"></path></g><g transform="translate(868 34)"><path d="M0.9 0.4C0.7 0.9 -0.3 0.8 -0.6 0.3C-0.8 -0.2 -0.4 -1.1 0.1 -1C0.5 -1 1.1 0 0.9 0.4Z" fill="#ffffff"></path></g><g transform="translate(546 42)"><path d="M1.8 1.2C1.2 2.1 -1.3 2.2 -1.9 1.2C-2.5 0.3 -1.3 -1.6 0 -1.6C1.2 -1.7 2.4 0.2 1.8 1.2Z" fill="#ffffff"></path></g><g transform="translate(608 68)"><path d="M3.4 2C2.7 3.2 -0.8 2.8 -1.8 1.5C-2.8 0.2 -1.4 -2.1 0.3 -1.9C2 -1.7 4.1 0.9 3.4 2Z" fill="#ffffff"></path></g><g transform="translate(343 80)"><path d="M0.4 0.4C0 1 -1.3 1.2 -1.5 0.8C-1.7 0.3 -0.8 -0.8 -0.2 -0.9C0.4 -1 0.8 -0.2 0.4 0.4Z" fill="#ffffff"></path></g><g transform="translate(393 285)"><path d="M2.6 1.4C1.7 3 -1.7 3 -2.6 1.4C-3.5 -0.2 -1.7 -3.4 0 -3.4C1.7 -3.4 3.5 -0.2 2.6 1.4Z" fill="#ffffff"></path></g><g transform="translate(565 127)"><path d="M1.4 0.6C1.1 1.3 -0.4 1.2 -0.8 0.4C-1.2 -0.4 -0.6 -1.9 0.1 -1.8C0.8 -1.7 1.7 -0.1 1.4 0.6Z" fill="#ffffff"></path></g><g transform="translate(103 189)"><path d="M0.4 0.2C-0.5 1.9 -3.1 2.6 -3.4 1.2C-3.8 -0.1 -1.9 -3.5 -0.6 -3.8C0.7 -4.2 1.4 -1.5 0.4 0.2Z" fill="#ffffff"></path></g><g transform="translate(692 175)"><path d="M0.4 0.3C0.4 0.4 0 0.3 -0.2 0.2C-0.3 0.1 -0.1 -0.1 0.1 -0.1C0.2 -0.1 0.5 0.2 0.4 0.3Z" fill="#ffffff"></path></g><g transform="translate(698 94)"><path d="M0.6 0.4C0.3 0.9 -0.8 1 -1.1 0.6C-1.3 0.1 -0.6 -0.8 -0.1 -0.9C0.5 -0.9 0.9 -0.1 0.6 0.4Z" fill="#ffffff"></path></g><g transform="translate(87 52)"><path d="M1.3 0.1C0.7 2 -1.7 2.2 -2.2 0.4C-2.7 -1.3 -1.4 -4.9 -0.2 -5C1 -5.1 2 -1.7 1.3 0.1Z" fill="#ffffff"></path></g><g transform="translate(171 400)"><path d="M2.2 1.6C1.5 2.6 -1.5 2.6 -2.3 1.6C-3 0.5 -1.5 -1.5 0 -1.5C1.5 -1.5 3 0.5 2.2 1.6Z" fill="#ffffff"></path></g><g transform="translate(847 286)"><path d="M0.8 0.8C0.2 1.3 -1.4 1.5 -1.7 1.1C-2 0.7 -1 -0.4 -0.2 -0.5C0.6 -0.6 1.3 0.2 0.8 0.8Z" fill="#ffffff"></path></g><g transform="translate(777 265)"><path d="M1.1 0.7C0.7 1.3 -0.8 1.3 -1.2 0.7C-1.6 0.1 -0.8 -1.1 0 -1.1C0.7 -1.1 1.4 0.1 1.1 0.7Z" fill="#ffffff"></path></g><g transform="translate(646 67)"><path d="M0.2 0C0.1 0.2 -0.1 0.2 -0.2 0C-0.3 -0.2 -0.1 -0.6 0 -0.6C0.1 -0.6 0.3 -0.2 0.2 0Z" fill="#ffffff"></path></g><g transform="translate(820 61)"><path d="M0.7 0.5C0.3 1.1 -1.1 1.3 -1.3 0.7C-1.6 0.2 -0.8 -1 -0.1 -1.1C0.6 -1.1 1.1 -0.1 0.7 0.5Z" fill="#ffffff"></path></g><g transform="translate(441 162)"><path d="M0.5 0.2C0.5 0.4 0.1 0.3 -0.1 0.1C-0.2 -0.1 -0.1 -0.5 0.1 -0.4C0.3 -0.4 0.6 0.1 0.5 0.2Z" fill="#ffffff"></path></g><g transform="translate(198 160)"><path d="M0.1 0.1C-0.2 0.5 -0.8 0.7 -0.9 0.4C-1 0.2 -0.5 -0.6 -0.2 -0.7C0.2 -0.8 0.4 -0.2 0.1 0.1Z" fill="#ffffff"></path></g><g transform="translate(895 438)"><path d="M2.8 1.8C1.8 3.3 -2.1 3.4 -3 1.8C-3.9 0.3 -2 -2.7 0 -2.8C1.9 -2.8 3.7 0.2 2.8 1.8Z" fill="#ffffff"></path></g><g transform="translate(414 196)"><path d="M0.2 0.1C0.1 0.2 -0.1 0.2 -0.1 0C-0.2 -0.1 -0.1 -0.4 0 -0.4C0.1 -0.4 0.2 -0.1 0.2 0.1Z" fill="#ffffff"></path></g><g transform="translate(897 64)"><path d="M1.9 1.1C1.5 1.7 -0.4 1.5 -1 0.8C-1.5 0.1 -0.8 -1.1 0.2 -1C1.1 -0.9 2.2 0.5 1.9 1.1Z" fill="#ffffff"></path></g><g transform="translate(689 234)"><path d="M3.5 1.6C3.2 2.6 0.6 1.8 -0.3 0.5C-1.3 -0.9 -0.6 -3 0.6 -2.6C1.9 -2.2 3.8 0.5 3.5 1.6Z" fill="#ffffff"></path></g><g transform="translate(4 121)"><path d="M2 1.7C0.6 3.6 -3.9 4.3 -4.8 2.7C-5.7 1.1 -2.8 -2.7 -0.5 -3C1.7 -3.4 3.5 -0.2 2 1.7Z" fill="#ffffff"></path></g><g transform="translate(286 100)"><path d="M1 0.6C0.7 1 -0.5 1 -0.8 0.6C-1.1 0.1 -0.6 -0.7 0 -0.7C0.6 -0.7 1.2 0.2 1 0.6Z" fill="#ffffff"></path></g><g transform="translate(837 218)"><path d="M2.6 1.1C2.3 1.9 0.4 1.4 -0.3 0.3C-1 -0.8 -0.5 -2.4 0.4 -2.1C1.4 -1.9 2.8 0.3 2.6 1.1Z" fill="#ffffff"></path></g><g transform="translate(614 175)"><path d="M2.2 2.4C0.8 3.7 -3.8 4.3 -4.7 3.2C-5.6 2.2 -2.8 -0.5 -0.5 -0.8C1.8 -1.1 3.6 1 2.2 2.4Z" fill="#ffffff"></path></g><g transform="translate(2 189)"><path d="M0.2 0.1C0.1 0.3 -0.2 0.3 -0.3 0.2C-0.4 0.1 -0.2 -0.2 0 -0.2C0.1 -0.2 0.3 0 0.2 0.1Z" fill="#ffffff"></path></g><g transform="translate(791 41)"><path d="M1.3 0.5C1.1 1.1 0 0.9 -0.4 0.2C-0.8 -0.6 -0.4 -1.8 0.2 -1.7C0.8 -1.6 1.5 -0.1 1.3 0.5Z" fill="#ffffff"></path></g><g transform="translate(679 67)"><path d="M0.8 0.2C0.6 0.9 -0.4 0.8 -0.7 0.2C-0.9 -0.4 -0.5 -1.7 0 -1.6C0.5 -1.6 1 -0.4 0.8 0.2Z" fill="#ffffff"></path></g><g transform="translate(443 134)"><path d="M1 0.4C0.7 1 -0.4 0.9 -0.7 0.3C-1 -0.3 -0.5 -1.5 0.1 -1.5C0.6 -1.4 1.2 -0.2 1 0.4Z" fill="#ffffff"></path></g><g transform="translate(238 369)"><path d="M0.3 0.2C0.2 0.3 -0.1 0.3 -0.2 0.2C-0.3 0.1 -0.2 -0.2 0 -0.2C0.2 -0.2 0.4 0.1 0.3 0.2Z" fill="#ffffff"></path></g><g transform="translate(391 136)"><path d="M0.4 0.2C0.3 0.4 -0.1 0.4 -0.3 0.1C-0.4 -0.1 -0.2 -0.5 0 -0.5C0.2 -0.5 0.5 0 0.4 0.2Z" fill="#ffffff"></path></g><g transform="translate(163 132)"><path d="M1.3 0.3C0.5 2.1 -2 2.4 -2.5 0.7C-3 -0.9 -1.5 -4.4 -0.2 -4.5C1 -4.7 2.1 -1.5 1.3 0.3Z" fill="#ffffff"></path></g><g transform="translate(257 9)"><path d="M1.4 1C0.5 2.5 -2.6 2.9 -3.2 1.6C-3.9 0.3 -1.9 -2.8 -0.4 -3C1.2 -3.2 2.4 -0.6 1.4 1Z" fill="#ffffff"></path></g><g transform="translate(535 1)"><path d="M1.8 0.9C1.3 1.8 -0.6 1.6 -1.2 0.7C-1.7 -0.3 -0.9 -2.1 0.1 -2C1.1 -2 2.2 0 1.8 0.9Z" fill="#ffffff"></path></g><g transform="translate(518 362)"><path d="M0.4 0.2C0.3 0.3 0 0.2 -0.1 0.1C-0.2 -0.1 -0.1 -0.3 0.1 -0.3C0.2 -0.3 0.4 0.1 0.4 0.2Z" fill="#ffffff"></path></g><g transform="translate(230 312)"><path d="M1.6 0.8C0.7 2.6 -2.5 2.9 -3.1 1.3C-3.8 -0.3 -1.9 -3.9 -0.3 -4.1C1.3 -4.2 2.6 -1 1.6 0.8Z" fill="#ffffff"></path></g><g transform="translate(874 183)"><path d="M0.6 1.1C-0.5 2.3 -3.6 3.1 -4 2.3C-4.4 1.6 -2.2 -0.7 -0.7 -1.1C0.9 -1.5 1.7 0 0.6 1.1Z" fill="#ffffff"></path></g><g transform="translate(389 439)"><path d="M4.8 1.9C4.1 3.9 0.1 3.1 -1.3 0.7C-2.6 -1.7 -1.3 -5.7 0.7 -5.3C2.7 -4.9 5.4 -0.1 4.8 1.9Z" fill="#ffffff"></path></g><g transform="translate(640 203)"><path d="M0.7 1.2C-0.4 2.5 -3.8 3.3 -4.3 2.4C-4.7 1.5 -2.4 -1.2 -0.7 -1.6C1 -2 1.9 -0.2 0.7 1.2Z" fill="#ffffff"></path></g><g transform="translate(499 142)"><path d="M1.8 0.9C1.4 1.6 -0.3 1.4 -0.8 0.6C-1.3 -0.1 -0.7 -1.4 0.2 -1.3C1 -1.2 2.1 0.3 1.8 0.9Z" fill="#ffffff"></path></g><g transform="translate(683 341)"><path d="M0.2 0.2C-0.1 0.6 -0.9 0.8 -1 0.5C-1.2 0.1 -0.6 -0.7 -0.2 -0.8C0.2 -0.9 0.5 -0.3 0.2 0.2Z" fill="#ffffff"></path></g><g transform="translate(876 342)"><path d="M0.7 0.5C0.5 0.7 -0.2 0.6 -0.5 0.4C-0.7 0.2 -0.3 -0.2 0 -0.1C0.4 -0.1 0.8 0.3 0.7 0.5Z" fill="#ffffff"></path></g><g transform="translate(364 199)"><path d="M4.7 2.5C4 3.9 0 3.2 -1.4 1.4C-2.8 -0.5 -1.4 -3.3 0.7 -2.9C2.7 -2.5 5.4 1.1 4.7 2.5Z" fill="#ffffff"></path></g><g transform="translate(849 165)"><path d="M0.5 0.3C0.2 0.6 -0.5 0.7 -0.7 0.4C-0.9 0.1 -0.4 -0.5 0 -0.6C0.3 -0.6 0.7 0 0.5 0.3Z" fill="#ffffff"></path></g><g transform="translate(156 186)"><path d="M0.8 0.5C0.7 0.7 0 0.5 -0.3 0.3C-0.5 0 -0.2 -0.4 0.1 -0.3C0.5 -0.3 0.9 0.2 0.8 0.5Z" fill="#ffffff"></path></g><g transform="translate(825 166)"><path d="M1.9 1C1.5 1.8 -0.5 1.6 -1.1 0.8C-1.6 -0.1 -0.8 -1.6 0.2 -1.5C1.1 -1.4 2.3 0.3 1.9 1Z" fill="#ffffff"></path></g><g transform="translate(379 8)"><path d="M1.1 0.7C0.1 2.2 -2.8 2.8 -3.3 1.5C-3.8 0.2 -1.9 -2.8 -0.4 -3.1C1 -3.3 2 -0.8 1.1 0.7Z" fill="#ffffff"></path></g><g transform="translate(452 94)"><path d="M0.4 0.2C0.3 0.4 -0.2 0.4 -0.3 0.2C-0.4 -0.1 -0.2 -0.5 0 -0.5C0.2 -0.5 0.5 -0.1 0.4 0.2Z" fill="#ffffff"></path></g><g transform="translate(864 398)"><path d="M3.9 3C2.5 4.6 -2.9 4.7 -4.2 3.1C-5.5 1.5 -2.8 -1.8 -0.1 -1.9C2.6 -1.9 5.2 1.3 3.9 3Z" fill="#ffffff"></path></g><g transform="translate(313 356)"><path d="M1 0.8C0.7 1.2 -0.6 1.1 -1 0.7C-1.3 0.3 -0.7 -0.4 0 -0.4C0.7 -0.4 1.3 0.4 1 0.8Z" fill="#ffffff"></path></g><g transform="translate(422 448)"><path d="M1.1 0.8C0.4 1.9 -2 2.2 -2.4 1.2C-2.9 0.2 -1.4 -2 -0.3 -2.2C0.9 -2.3 1.8 -0.4 1.1 0.8Z" fill="#ffffff"></path></g><g transform="translate(569 52)"><path d="M1.5 0.8C1.1 1.5 -0.6 1.4 -1.1 0.7C-1.5 0 -0.8 -1.4 0.1 -1.3C0.9 -1.3 1.9 0.2 1.5 0.8Z" fill="#ffffff"></path></g><g transform="translate(257 62)"><path d="M1.8 1C1.3 1.8 -0.6 1.6 -1.2 0.8C-1.7 -0.1 -0.9 -1.7 0.1 -1.6C1.1 -1.5 2.2 0.2 1.8 1Z" fill="#ffffff"></path></g><g transform="translate(113 310)"><path d="M0.7 0.5C-0.7 2.8 -4.5 3.8 -5 2C-5.5 0.1 -2.8 -4.5 -0.9 -5C1 -5.5 2.1 -1.8 0.7 0.5Z" fill="#ffffff"></path></g><g transform="translate(635 301)"><path d="M0.1 0C0 0.2 -0.2 0.2 -0.2 0.1C-0.2 0 -0.1 -0.3 0 -0.3C0.1 -0.3 0.2 -0.1 0.1 0Z" fill="#ffffff"></path></g><g transform="translate(551 347)"><path d="M1.9 1C1.7 1.5 0.1 1.2 -0.4 0.5C-1 -0.1 -0.5 -1.1 0.3 -1C1.1 -0.8 2.1 0.5 1.9 1Z" fill="#ffffff"></path></g><g transform="translate(416 269)"><path d="M1.2 0.5C1 1.1 -0.3 1 -0.6 0.3C-1 -0.4 -0.5 -1.7 0.1 -1.6C0.7 -1.5 1.4 -0.1 1.2 0.5Z" fill="#ffffff"></path></g><g transform="translate(57 35)"><path d="M2.1 1.2C1.8 1.6 0.2 1.3 -0.4 0.6C-1 -0.1 -0.5 -1.1 0.3 -0.9C1.2 -0.7 2.3 0.7 2.1 1.2Z" fill="#ffffff"></path></g><g transform="translate(35 231)"><path d="M2.9 1.6C2.5 2.3 0.2 1.8 -0.7 0.8C-1.5 -0.1 -0.7 -1.5 0.4 -1.3C1.6 -1 3.3 0.9 2.9 1.6Z" fill="#ffffff"></path></g><g transform="translate(429 73)"><path d="M1.9 1.4C1.2 2.3 -1.5 2.4 -2.2 1.5C-2.9 0.6 -1.4 -1.3 -0.1 -1.4C1.3 -1.4 2.6 0.4 1.9 1.4Z" fill="#ffffff"></path></g><g transform="translate(522 326)"><path d="M0.1 0.2C-0.2 0.5 -0.9 0.8 -1 0.5C-1.1 0.3 -0.6 -0.3 -0.2 -0.4C0.2 -0.5 0.4 -0.1 0.1 0.2Z" fill="#ffffff"></path></g><g transform="translate(628 391)"><path d="M0.8 0.5C0.5 0.9 -0.5 0.9 -0.8 0.5C-1.1 0.1 -0.5 -0.7 0 -0.8C0.5 -0.8 1 0.1 0.8 0.5Z" fill="#ffffff"></path></g><g transform="translate(305 225)"><path d="M0.4 0.5C-0.4 1.5 -2.4 2 -2.6 1.3C-2.9 0.6 -1.5 -1.3 -0.5 -1.6C0.6 -1.8 1.1 -0.4 0.4 0.5Z" fill="#ffffff"></path></g><g transform="translate(176 378)"><path d="M1.9 1C1.7 1.5 0.2 1.1 -0.4 0.5C-0.9 -0.1 -0.5 -1 0.3 -0.8C1.1 -0.7 2.1 0.6 1.9 1Z" fill="#ffffff"></path></g><g transform="translate(452 333)"><path d="M1.8 0.6C1.3 1.9 -0.8 1.8 -1.4 0.5C-2 -0.9 -1 -3.5 0.1 -3.4C1.2 -3.4 2.3 -0.7 1.8 0.6Z" fill="#ffffff"></path></g><g transform="translate(860 443)"><path d="M0.1 0C0 0.2 -0.3 0.3 -0.3 0.1C-0.4 0 -0.2 -0.3 0 -0.4C0.1 -0.4 0.2 -0.1 0.1 0Z" fill="#ffffff"></path></g><g transform="translate(474 274)"><path d="M0.5 0.1C0.3 0.7 -0.6 0.7 -0.8 0.2C-0.9 -0.3 -0.5 -1.4 -0.1 -1.5C0.4 -1.5 0.7 -0.4 0.5 0.1Z" fill="#ffffff"></path></g><g transform="translate(782 241)"><path d="M2 0.7C1.8 1.6 0.1 1.2 -0.5 0.1C-1 -1 -0.5 -2.9 0.3 -2.7C1.1 -2.5 2.3 -0.3 2 0.7Z" fill="#ffffff"></path></g><g transform="translate(581 372)"><path d="M0.8 -0.1C0.1 1.8 -2.2 2.2 -2.6 0.5C-3 -1.2 -1.5 -5 -0.3 -5.2C0.8 -5.4 1.6 -2 0.8 -0.1Z" fill="#ffffff"></path></g><g transform="translate(42 268)"><path d="M0.7 0.2C0.5 0.6 -0.1 0.5 -0.3 0.1C-0.5 -0.3 -0.3 -1.1 0.1 -1.1C0.4 -1 0.8 -0.2 0.7 0.2Z" fill="#ffffff"></path></g><g transform="translate(802 202)"><path d="M0.6 0.2C0.5 0.6 -0.2 0.5 -0.4 0.1C-0.6 -0.3 -0.3 -1 0.1 -1C0.4 -1 0.8 -0.2 0.6 0.2Z" fill="#ffffff"></path></g><g transform="translate(641 1)"><path d="M1.3 0.7C1 1.2 -0.3 1.1 -0.7 0.5C-1.1 -0.1 -0.6 -1.2 0.1 -1.1C0.8 -1 1.6 0.2 1.3 0.7Z" fill="#ffffff"></path></g><g transform="translate(295 312)"><path d="M0.3 0.1C0.3 0.2 0 0.2 -0.1 0C-0.2 -0.2 -0.1 -0.5 0 -0.5C0.2 -0.5 0.3 -0.1 0.3 0.1Z" fill="#ffffff"></path></g><g transform="translate(453 359)"><path d="M2.9 2.4C1.5 4.1 -3.4 4.4 -4.4 3C-5.5 1.5 -2.8 -1.7 -0.3 -1.9C2.1 -2.1 4.3 0.8 2.9 2.4Z" fill="#ffffff"></path></g><g transform="translate(633 251)"><path d="M0.4 0.2C0.4 0.4 0 0.3 -0.1 0.1C-0.2 -0.1 -0.1 -0.5 0.1 -0.4C0.3 -0.4 0.5 0 0.4 0.2Z" fill="#ffffff"></path></g><g transform="translate(595 225)"><path d="M0.5 0.6C0.1 1 -1.2 1.2 -1.4 0.9C-1.6 0.7 -0.8 -0.1 -0.2 -0.2C0.4 -0.3 0.9 0.2 0.5 0.6Z" fill="#ffffff"></path></g><g transform="translate(618 29)"><path d="M0.8 0.1C0.3 1.3 -1.4 1.6 -1.7 0.4C-2 -0.8 -1 -3.4 -0.2 -3.5C0.7 -3.6 1.3 -1.2 0.8 0.1Z" fill="#ffffff"></path></g><g transform="translate(409 244)"><path d="M1.7 1.1C1.2 1.7 -0.7 1.6 -1.2 0.9C-1.7 0.3 -0.8 -0.9 0.1 -0.8C1 -0.7 2.1 0.5 1.7 1.1Z" fill="#ffffff"></path></g><g transform="translate(182 17)"><path d="M1.5 0.7C1.1 1.4 -0.4 1.3 -0.9 0.5C-1.3 -0.3 -0.7 -1.7 0.1 -1.7C0.9 -1.6 1.8 0 1.5 0.7Z" fill="#ffffff"></path></g><g transform="translate(849 79)"><path d="M0.2 0.2C0.1 0.4 -0.4 0.4 -0.5 0.3C-0.6 0.2 -0.3 -0.1 -0.1 -0.1C0.2 -0.2 0.4 0.1 0.2 0.2Z" fill="#ffffff"></path></g><g transform="translate(160 448)"><path d="M0.5 0.2C0.4 0.4 0.1 0.3 -0.1 0.1C-0.2 -0.1 -0.1 -0.4 0.1 -0.3C0.3 -0.3 0.5 0.1 0.5 0.2Z" fill="#ffffff"></path></g><g transform="translate(85 207)"><path d="M1.7 1.1C0.8 2.5 -2.3 2.8 -3 1.5C-3.6 0.2 -1.8 -2.7 -0.3 -2.9C1.3 -3 2.6 -0.4 1.7 1.1Z" fill="#ffffff"></path></g><g transform="translate(6 7)"><path d="M1.1 1C0.6 1.6 -1.2 1.7 -1.6 1.2C-2.1 0.7 -1 -0.3 -0.1 -0.4C0.8 -0.4 1.7 0.5 1.1 1Z" fill="#ffffff"></path></g><g transform="translate(732 73)"><path d="M4.8 2.3C4.1 4 -0.1 3.2 -1.4 1.2C-2.8 -0.9 -1.4 -4.2 0.7 -3.8C2.8 -3.4 5.5 0.7 4.8 2.3Z" fill="#ffffff"></path></g><g transform="translate(362 24)"><path d="M0.9 0.5C0.7 0.9 -0.3 0.8 -0.6 0.4C-0.8 -0.1 -0.4 -0.8 0.1 -0.8C0.6 -0.8 1.1 0.1 0.9 0.5Z" fill="#ffffff"></path></g><g transform="translate(498 187)"><path d="M1.5 0.4C1.2 1.3 -0.2 1.1 -0.6 0.1C-1 -1 -0.5 -2.9 0.2 -2.8C0.9 -2.7 1.7 -0.6 1.5 0.4Z" fill="#ffffff"></path></g><g transform="translate(2 368)"><path d="M0.4 0.3C0 0.9 -1.2 1.1 -1.4 0.6C-1.6 0.1 -0.8 -1.1 -0.2 -1.2C0.4 -1.4 0.8 -0.3 0.4 0.3Z" fill="#ffffff"></path></g><g transform="translate(344 8)"><path d="M0.4 0.4C0.2 0.6 -0.6 0.7 -0.8 0.5C-1 0.4 -0.5 -0.1 -0.1 -0.2C0.3 -0.2 0.6 0.2 0.4 0.4Z" fill="#ffffff"></path></g><g transform="translate(493 236)"><path d="M1.8 1C1.4 1.8 -0.5 1.6 -1.1 0.8C-1.6 -0.1 -0.8 -1.5 0.2 -1.4C1.1 -1.3 2.2 0.3 1.8 1Z" fill="#ffffff"></path></g><g transform="translate(237 263)"><path d="M2.4 1.4C2.1 2 0 1.6 -0.7 0.8C-1.4 0 -0.7 -1.3 0.3 -1.1C1.4 -0.9 2.8 0.8 2.4 1.4Z" fill="#ffffff"></path></g><g transform="translate(501 66)"><path d="M2.9 2.5C1.9 3.4 -2.1 3.4 -3 2.6C-4 1.7 -2 -0.1 0 -0.1C1.9 -0.1 3.9 1.6 2.9 2.5Z" fill="#ffffff"></path></g><g transform="translate(890 42)"><path d="M0.3 0.1C0.2 0.3 -0.1 0.2 -0.2 0C-0.3 -0.2 -0.1 -0.6 0 -0.5C0.2 -0.5 0.3 -0.1 0.3 0.1Z" fill="#ffffff"></path></g><g transform="translate(446 388)"><path d="M0.3 0.1C0.3 0.3 0 0.2 -0.1 0C-0.2 -0.2 -0.1 -0.6 0.1 -0.5C0.2 -0.5 0.4 -0.1 0.3 0.1Z" fill="#ffffff"></path></g><g transform="translate(576 417)"><path d="M2 0.8C1.3 2.4 -1.5 2.5 -2.2 0.9C-2.9 -0.8 -1.4 -4 0 -4C1.4 -4.1 2.7 -0.9 2 0.8Z" fill="#ffffff"></path></g><g transform="translate(764 192)"><path d="M0.2 0.1C0.1 0.3 -0.4 0.4 -0.4 0.2C-0.5 0.1 -0.3 -0.3 0 -0.4C0.2 -0.4 0.3 -0.1 0.2 0.1Z" fill="#ffffff"></path></g><g transform="translate(650 104)"><path d="M2.8 1.9C2.1 2.9 -1.2 2.8 -2.1 1.6C-3 0.5 -1.5 -1.6 0.2 -1.5C1.8 -1.4 3.6 0.8 2.8 1.9Z" fill="#ffffff"></path></g><g transform="translate(276 329)"><path d="M2.7 1.3C2.1 2.6 -0.8 2.4 -1.6 1C-2.5 -0.5 -1.2 -3.1 0.2 -3C1.6 -2.8 3.3 0 2.7 1.3Z" fill="#ffffff"></path></g><g transform="translate(561 445)"><path d="M0.8 0.5C0.6 0.9 -0.5 0.9 -0.7 0.5C-1 0.1 -0.5 -0.7 0 -0.7C0.5 -0.7 1.1 0.1 0.8 0.5Z" fill="#ffffff"></path></g><g transform="translate(421 296)"><path d="M0.9 0.7C0.7 0.9 -0.4 0.9 -0.7 0.6C-1 0.4 -0.5 -0.1 0 -0.1C0.6 0 1.1 0.5 0.9 0.7Z" fill="#ffffff"></path></g><g transform="translate(669 416)"><path d="M0.8 0.5C0.6 0.8 -0.2 0.7 -0.5 0.4C-0.7 0.1 -0.4 -0.4 0.1 -0.3C0.5 -0.3 1 0.3 0.8 0.5Z" fill="#ffffff"></path></g><g transform="translate(898 91)"><path d="M2.4 1.9C1.7 2.6 -1.2 2.5 -2 1.7C-2.7 1 -1.4 -0.4 0.1 -0.3C1.5 -0.3 3.1 1.2 2.4 1.9Z" fill="#ffffff"></path></g><g transform="translate(731 260)"><path d="M0.7 0.2C0.4 0.9 -0.7 0.9 -0.9 0.2C-1.1 -0.4 -0.6 -1.8 0 -1.9C0.5 -1.9 0.9 -0.5 0.7 0.2Z" fill="#ffffff"></path></g><g transform="translate(736 46)"><path d="M0.3 0.4C-0.1 1 -1.5 1.3 -1.7 0.9C-1.9 0.4 -0.9 -0.9 -0.3 -1C0.4 -1.2 0.8 -0.2 0.3 0.4Z" fill="#ffffff"></path></g><g transform="translate(73 106)"><path d="M1.8 0C1.3 2 -1 2 -1.6 0C-2.2 -2 -1.1 -6 0 -6C1.2 -5.9 2.4 -1.9 1.8 0Z" fill="#ffffff"></path></g><g transform="translate(435 213)"><path d="M1.2 0.5C1.1 0.9 0.2 0.7 -0.2 0.1C-0.5 -0.5 -0.3 -1.4 0.2 -1.3C0.7 -1.1 1.3 0 1.2 0.5Z" fill="#ffffff"></path></g><g transform="translate(852 6)"><path d="M2 1C1.7 1.7 -0.1 1.4 -0.7 0.6C-1.3 -0.3 -0.6 -1.7 0.3 -1.6C1.2 -1.4 2.3 0.3 2 1Z" fill="#ffffff"></path></g><g transform="translate(486 425)"><path d="M1.1 0.6C0.9 1.1 -0.4 1.1 -0.8 0.4C-1.1 -0.2 -0.6 -1.3 0.1 -1.2C0.7 -1.2 1.4 0 1.1 0.6Z" fill="#ffffff"></path></g><g transform="translate(410 30)"><path d="M0 0.1C-0.1 0.3 -0.4 0.4 -0.5 0.2C-0.5 0.1 -0.3 -0.3 -0.1 -0.4C0.1 -0.4 0.2 -0.1 0 0.1Z" fill="#ffffff"></path></g><g transform="translate(719 190)"><path d="M1.3 0.2C0.8 1.6 -1 1.6 -1.5 0.3C-1.9 -1 -1 -3.7 0 -3.7C0.9 -3.8 1.7 -1.1 1.3 0.2Z" fill="#ffffff"></path></g><g transform="translate(115 29)"><path d="M2.7 1C2.4 2 0.5 1.4 -0.3 0.2C-1 -1 -0.5 -2.9 0.5 -2.7C1.5 -2.4 2.9 0.1 2.7 1Z" fill="#ffffff"></path></g><g transform="translate(358 339)"><path d="M1 0.3C0.5 1.4 -1.3 1.6 -1.6 0.6C-2 -0.5 -1 -2.7 -0.1 -2.8C0.7 -2.9 1.5 -0.8 1 0.3Z" fill="#ffffff"></path></g><g transform="translate(49 366)"><path d="M0.1 0.1C-0.1 0.4 -0.6 0.6 -0.7 0.3C-0.8 0.1 -0.4 -0.5 -0.1 -0.5C0.2 -0.6 0.3 -0.2 0.1 0.1Z" fill="#ffffff"></path></g><g transform="translate(120 236)"><path d="M3.7 2.2C3.2 3.1 -0.1 2.5 -1.2 1.3C-2.3 0 -1.1 -2 0.5 -1.7C2.1 -1.4 4.3 1.2 3.7 2.2Z" fill="#ffffff"></path></g><g transform="translate(2 291)"><path d="M0.2 0.1C0.1 0.2 -0.2 0.2 -0.2 0.1C-0.3 0 -0.1 -0.2 0 -0.3C0.1 -0.3 0.2 0 0.2 0.1Z" fill="#ffffff"></path></g><g transform="translate(480 326)"><path d="M1.8 1.5C0.9 2.6 -2.2 2.8 -2.9 1.9C-3.6 0.9 -1.8 -1.2 -0.2 -1.4C1.3 -1.5 2.7 0.4 1.8 1.5Z" fill="#ffffff"></path></g><g transform="translate(409 121)"><path d="M0.4 0.3C0.4 0.4 0 0.3 -0.1 0.2C-0.2 0.1 -0.1 -0.1 0.1 -0.1C0.3 0 0.5 0.2 0.4 0.3Z" fill="#ffffff"></path></g><g transform="translate(727 393)"><path d="M1.1 1C0.4 1.8 -1.9 2.1 -2.3 1.4C-2.7 0.7 -1.4 -0.9 -0.2 -1.1C0.9 -1.2 1.8 0.2 1.1 1Z" fill="#ffffff"></path></g><g transform="translate(705 352)"><path d="M0.8 0.5C0.7 0.7 0 0.6 -0.3 0.3C-0.5 0 -0.3 -0.4 0.1 -0.3C0.5 -0.3 0.9 0.3 0.8 0.5Z" fill="#ffffff"></path></g><g transform="translate(840 240)"><path d="M2.9 1C2.7 2.1 0.6 1.5 -0.2 0.1C-1 -1.3 -0.5 -3.5 0.5 -3.2C1.6 -2.9 3.2 -0.1 2.9 1Z" fill="#ffffff"></path></g><g transform="translate(294 269)"><path d="M0.4 0.2C0.3 0.4 0 0.3 -0.1 0.1C-0.3 -0.2 -0.1 -0.6 0.1 -0.6C0.2 -0.5 0.5 -0.1 0.4 0.2Z" fill="#ffffff"></path></g><g transform="translate(289 193)"><path d="M0.5 0C0 1.3 -1.7 1.6 -2 0.5C-2.3 -0.5 -1.1 -3.1 -0.3 -3.2C0.5 -3.4 1.1 -1.2 0.5 0Z" fill="#ffffff"></path></g><g transform="translate(462 426)"><path d="M0.4 0.3C0.3 0.4 -0.1 0.4 -0.3 0.2C-0.4 0.1 -0.2 -0.2 0 -0.2C0.3 -0.1 0.5 0.2 0.4 0.3Z" fill="#ffffff"></path></g><g transform="translate(380 383)"><path d="M2.3 1.2C1.8 2.3 -0.8 2.2 -1.6 0.9C-2.3 -0.4 -1.2 -2.8 0.2 -2.7C1.5 -2.6 2.9 0 2.3 1.2Z" fill="#ffffff"></path></g><g transform="translate(146 402)"><path d="M2.3 1.1C2 1.9 0.1 1.5 -0.6 0.5C-1.3 -0.5 -0.6 -2.1 0.3 -1.9C1.3 -1.7 2.7 0.3 2.3 1.1Z" fill="#ffffff"></path></g><g transform="translate(3 226)"><path d="M2.3 1.3C1.8 2.3 -0.7 2.1 -1.5 1C-2.2 -0.1 -1.1 -2.2 0.2 -2.1C1.4 -2 2.9 0.3 2.3 1.3Z" fill="#ffffff"></path></g><g transform="translate(754 290)"><path d="M4.1 2.4C2.8 4.7 -2.6 4.7 -4 2.3C-5.3 0 -2.7 -4.7 0 -4.7C2.7 -4.6 5.5 0.1 4.1 2.4Z" fill="#ffffff"></path></g><g transform="translate(534 445)"><path d="M1.1 0.8C0.6 1.6 -1.3 1.7 -1.8 1.1C-2.2 0.4 -1.1 -1.1 -0.1 -1.2C0.8 -1.2 1.7 0.1 1.1 0.8Z" fill="#ffffff"></path></g><g transform="translate(68 271)"><path d="M2.6 0.7C2.1 2.3 -0.3 1.9 -1.1 0.2C-1.8 -1.6 -0.9 -4.7 0.3 -4.5C1.5 -4.4 3.1 -0.9 2.6 0.7Z" fill="#ffffff"></path></g><g transform="translate(736 423)"><path d="M0.6 0.2C0.1 1.2 -1.5 1.5 -1.7 0.6C-2 -0.2 -1 -2.1 -0.2 -2.3C0.5 -2.4 1.1 -0.7 0.6 0.2Z" fill="#ffffff"></path></g><g transform="translate(789 377)"><path d="M2.7 2C1.6 3.4 -2.4 3.5 -3.3 2.3C-4.3 1 -2.1 -1.7 -0.1 -1.8C1.9 -1.9 3.7 0.7 2.7 2Z" fill="#ffffff"></path></g><g transform="translate(897 139)"><path d="M1.4 0.7C1 1.5 -0.7 1.4 -1.2 0.7C-1.6 -0.1 -0.8 -1.7 0 -1.6C0.9 -1.6 1.8 0 1.4 0.7Z" fill="#ffffff"></path></g><g transform="translate(607 91)"><path d="M1.3 0.8C1.1 1.1 0 0.9 -0.4 0.5C-0.8 0 -0.4 -0.6 0.2 -0.5C0.8 -0.4 1.5 0.5 1.3 0.8Z" fill="#ffffff"></path></g><g transform="translate(247 122)"><path d="M0.5 0.3C0.4 0.4 0 0.3 -0.1 0.1C-0.3 0 -0.1 -0.3 0.1 -0.2C0.3 -0.2 0.5 0.1 0.5 0.3Z" fill="#ffffff"></path></g><g transform="translate(795 3)"><path d="M1.3 0.3C0.6 2 -1.9 2.3 -2.5 0.7C-3 -0.9 -1.5 -4.5 -0.2 -4.6C1 -4.7 2.1 -1.5 1.3 0.3Z" fill="#ffffff"></path></g><g transform="translate(123 342)"><path d="M1.3 1C0.3 2.5 -2.9 3 -3.5 1.8C-4 0.5 -2 -2.5 -0.4 -2.7C1.2 -3 2.3 -0.5 1.3 1Z" fill="#ffffff"></path></g><g transform="translate(628 348)"><path d="M1.5 1.2C0.5 2.6 -2.7 3 -3.3 1.8C-4 0.5 -2 -2.4 -0.4 -2.6C1.3 -2.8 2.5 -0.3 1.5 1.2Z" fill="#ffffff"></path></g><g transform="translate(391 186)"><path d="M4.3 1.9C3.5 3.8 -0.5 3.2 -1.8 1C-3 -1.1 -1.5 -4.9 0.5 -4.6C2.5 -4.3 5 0 4.3 1.9Z" fill="#ffffff"></path></g><g transform="translate(518 385)"><path d="M0.9 0.3C0.1 1.9 -2.3 2.3 -2.8 0.9C-3.2 -0.5 -1.6 -3.7 -0.4 -3.9C0.9 -4.1 1.7 -1.3 0.9 0.3Z" fill="#ffffff"></path></g><g transform="translate(253 158)"><path d="M1.1 0.3C0.8 1.3 -0.7 1.2 -1 0.3C-1.4 -0.7 -0.7 -2.5 0 -2.5C0.8 -2.5 1.5 -0.6 1.1 0.3Z" fill="#ffffff"></path></g><g transform="translate(75 4)"><path d="M0.9 0.6C0.8 0.7 0 0.6 -0.2 0.3C-0.5 0.1 -0.3 -0.3 0.1 -0.2C0.5 -0.2 1 0.4 0.9 0.6Z" fill="#ffffff"></path></g><g transform="translate(232 417)"><path d="M1.8 0.7C1.3 1.9 -0.8 1.8 -1.4 0.6C-2 -0.6 -1 -2.9 0.1 -2.8C1.1 -2.8 2.3 -0.4 1.8 0.7Z" fill="#ffffff"></path></g><g transform="translate(698 1)"><path d="M0.6 0.6C0.3 1 -0.9 1.1 -1.1 0.8C-1.4 0.4 -0.7 -0.4 -0.1 -0.4C0.5 -0.5 1 0.2 0.6 0.6Z" fill="#ffffff"></path></g><g transform="translate(118 284)"><path d="M3.6 1.6C3.2 2.9 0.2 2.2 -0.8 0.6C-1.8 -1.1 -0.9 -3.7 0.6 -3.3C2 -3 4.1 0.3 3.6 1.6Z" fill="#ffffff"></path></g><g transform="translate(175 154)"><path d="M3.7 2C2.9 3.5 -0.9 3.1 -2.1 1.4C-3.2 -0.3 -1.6 -3.3 0.3 -3.2C2.3 -3 4.5 0.5 3.7 2Z" fill="#ffffff"></path></g><g transform="translate(402 331)"><path d="M2.1 1.2C1.7 1.7 -0.1 1.4 -0.7 0.7C-1.3 0 -0.6 -1.1 0.3 -0.9C1.2 -0.8 2.4 0.6 2.1 1.2Z" fill="#ffffff"></path></g><g transform="translate(824 407)"><path d="M0.4 0.3C0.3 0.5 -0.3 0.5 -0.4 0.3C-0.5 0.1 -0.3 -0.3 0 -0.3C0.3 -0.3 0.6 0.1 0.4 0.3Z" fill="#ffffff"></path></g><g transform="translate(824 37)"><path d="M0.3 0.1C0.1 0.6 -0.7 0.8 -0.9 0.3C-1 -0.1 -0.5 -1.2 -0.1 -1.2C0.3 -1.3 0.6 -0.4 0.3 0.1Z" fill="#ffffff"></path></g><g transform="translate(212 357)"><path d="M0.2 0.1C0 0.3 -0.4 0.4 -0.5 0.2C-0.5 0 -0.3 -0.4 -0.1 -0.4C0.1 -0.4 0.3 -0.1 0.2 0.1Z" fill="#ffffff"></path></g><g transform="translate(183 448)"><path d="M0.4 0.7C-0.5 1.6 -2.7 2.2 -3 1.6C-3.3 1 -1.6 -0.8 -0.5 -1.1C0.6 -1.4 1.2 -0.2 0.4 0.7Z" fill="#ffffff"></path></g><g transform="translate(832 344)"><path d="M0.4 0.2C0.4 0.3 0 0.3 -0.1 0.1C-0.2 0 -0.1 -0.2 0.1 -0.1C0.2 -0.1 0.5 0.2 0.4 0.2Z" fill="#ffffff"></path></g><g transform="translate(757 141)"><path d="M1.2 0.8C0.8 1.3 -0.7 1.3 -1 0.8C-1.4 0.3 -0.7 -0.7 0 -0.7C0.8 -0.7 1.5 0.3 1.2 0.8Z" fill="#ffffff"></path></g><g transform="translate(254 412)"><path d="M1.8 0.6C1.6 1.5 0.1 1.2 -0.5 0.2C-1 -0.8 -0.5 -2.5 0.3 -2.4C1 -2.2 2.1 -0.2 1.8 0.6Z" fill="#ffffff"></path></g><g transform="translate(772 423)"><path d="M2.4 0.8C2.2 1.8 0.4 1.3 -0.3 0C-0.9 -1.3 -0.5 -3.4 0.4 -3.2C1.3 -2.9 2.7 -0.3 2.4 0.8Z" fill="#ffffff"></path></g><g transform="translate(124 198)"><path d="M3.7 1.7C2.9 3.6 -1.1 3.2 -2.2 1.2C-3.4 -0.8 -1.7 -4.6 0.3 -4.4C2.3 -4.2 4.5 -0.2 3.7 1.7Z" fill="#ffffff"></path></g><g transform="translate(868 206)"><path d="M0.1 0C0.1 0.2 -0.1 0.2 -0.2 0C-0.2 -0.2 -0.1 -0.5 0 -0.5C0.1 -0.5 0.2 -0.2 0.1 0Z" fill="#ffffff"></path></g></g></svg>